<svg xmlns="http://www.w3.org/2000/svg" width="730.733" height="134.091" viewBox="0 0 730.733 134.091">
  <g id="Group_2087" data-name="Group 2087" transform="translate(-157.991 -521.755)">
    <g id="Group_1365" data-name="Group 1365" transform="translate(159 535.931)">
      <path id="Path_16680" data-name="Path 16680" d="M465.372,648.947c12.875,2.276,26.7-3.078,35.194-12.9a17.134,17.134,0,0,0,4.048-7.151c.893-3.9-1.168-9.463-5.708-9.959a3.755,3.755,0,0,0-4.09,3.534,5.86,5.86,0,0,0,1.2,3.908c2.278,3.133,6.431,4.839,10.045,5.787a34.557,34.557,0,0,0,25.255-3.422,33.363,33.363,0,0,0,14-14.912c2.37-5.4,4.405-13.416.509-18.6-1.373-1.828-4.207-2.708-6.018-1.314-2.24,1.725-1.273,5.651,1.15,7.11,9.991,6.015,22.846-1.447,29.038-9.648,5.324-7.051,10.177-21.516,2.753-28.843a7.868,7.868,0,0,0-5.645-2.551c-2.122.09-4.241,1.742-4.322,3.865-.1,2.619,2.933,4.519,5.517,4.085s4.6-2.484,6.034-4.677a23.146,23.146,0,0,0-2.321-27.557" transform="translate(150.884 -530.572)" fill="none" stroke="#4a3d27" stroke-miterlimit="10" stroke-width="2"/>
      <path id="Path_16681" data-name="Path 16681" d="M366.1,648.947c-12.875,2.276-26.7-3.078-35.194-12.9a17.117,17.117,0,0,1-4.046-7.151c-.895-3.9,1.166-9.463,5.708-9.959a3.754,3.754,0,0,1,4.089,3.534,5.86,5.86,0,0,1-1.2,3.908c-2.278,3.133-6.43,4.839-10.045,5.787a34.557,34.557,0,0,1-25.255-3.422,33.363,33.363,0,0,1-14-14.912c-2.37-5.4-4.405-13.416-.509-18.6,1.373-1.828,4.207-2.708,6.018-1.314,2.241,1.725,1.273,5.651-1.15,7.11-9.991,6.015-22.844-1.447-29.038-9.648-5.324-7.051-10.177-21.516-2.753-28.843a7.868,7.868,0,0,1,5.645-2.551c2.123.09,4.241,1.742,4.322,3.865.1,2.619-2.933,4.519-5.517,4.085s-4.6-2.484-6.036-4.677a23.146,23.146,0,0,1,2.323-27.557" transform="translate(-253.645 -535.699)" fill="none" stroke="#4a3d27" stroke-miterlimit="10" stroke-width="2"/>
    </g>
    <g id="Group_1337" data-name="Group 1337" transform="translate(803.316 560.784)">
      <line id="Line_335" data-name="Line 335" x2="43.401" transform="translate(0 21.7)" fill="none" stroke="#56b5a5" stroke-miterlimit="10" stroke-width="2.51"/>
      <line id="Line_336" data-name="Line 336" y1="43.401" transform="translate(21.7 0)" fill="none" stroke="#56b5a5" stroke-miterlimit="10" stroke-width="2.51"/>
      <line id="Line_337" data-name="Line 337" y1="22.133" x2="22.133" transform="translate(10.634 10.634)" fill="none" stroke="#56b5a5" stroke-miterlimit="10" stroke-width="2.51"/>
      <line id="Line_338" data-name="Line 338" x1="22.133" y1="22.133" transform="translate(10.634 10.634)" fill="none" stroke="#56b5a5" stroke-miterlimit="10" stroke-width="2.51"/>
    </g>
    <g id="Group_1366" data-name="Group 1366" transform="translate(243.167 533.233) rotate(120)">
      <line id="Line_335-2" data-name="Line 335" x2="43.401" transform="translate(0 21.7)" fill="none" stroke="#56b5a5" stroke-miterlimit="10" stroke-width="2.51"/>
      <line id="Line_336-2" data-name="Line 336" y1="43.401" transform="translate(21.7 0)" fill="none" stroke="#56b5a5" stroke-miterlimit="10" stroke-width="2.51"/>
      <line id="Line_337-2" data-name="Line 337" y1="22.133" x2="22.133" transform="translate(10.634 10.634)" fill="none" stroke="#56b5a5" stroke-miterlimit="10" stroke-width="2.51"/>
      <line id="Line_338-2" data-name="Line 338" x1="22.133" y1="22.133" transform="translate(10.634 10.634)" fill="none" stroke="#56b5a5" stroke-miterlimit="10" stroke-width="2.51"/>
    </g>
    <g id="Group_1338" data-name="Group 1338" transform="translate(833.899 530.547)">
      <line id="Line_339" data-name="Line 339" x2="26.499" transform="translate(0 13.249)" fill="none" stroke="#f19a84" stroke-miterlimit="10" stroke-width="1.532"/>
      <line id="Line_340" data-name="Line 340" y1="26.499" transform="translate(13.249 0)" fill="none" stroke="#f19a84" stroke-miterlimit="10" stroke-width="1.532"/>
      <line id="Line_341" data-name="Line 341" y1="13.513" x2="13.514" transform="translate(6.493 6.493)" fill="none" stroke="#f19a84" stroke-miterlimit="10" stroke-width="1.532"/>
      <line id="Line_342" data-name="Line 342" x1="13.514" y1="13.513" transform="translate(6.493 6.493)" fill="none" stroke="#f19a84" stroke-miterlimit="10" stroke-width="1.532"/>
    </g>
    <g id="Group_1367" data-name="Group 1367" transform="translate(254.702 573.727) rotate(120)">
      <line id="Line_339-2" data-name="Line 339" x2="26.499" transform="translate(0 13.249)" fill="none" stroke="#f19a84" stroke-miterlimit="10" stroke-width="1.532"/>
      <line id="Line_340-2" data-name="Line 340" y1="26.499" transform="translate(13.249 0)" fill="none" stroke="#f19a84" stroke-miterlimit="10" stroke-width="1.532"/>
      <line id="Line_341-2" data-name="Line 341" y1="13.513" x2="13.514" transform="translate(6.493 6.493)" fill="none" stroke="#f19a84" stroke-miterlimit="10" stroke-width="1.532"/>
      <line id="Line_342-2" data-name="Line 342" x1="13.514" y1="13.513" transform="translate(6.493 6.493)" fill="none" stroke="#f19a84" stroke-miterlimit="10" stroke-width="1.532"/>
    </g>
  </g>
</svg>
