<svg xmlns="http://www.w3.org/2000/svg" width="304.16" height="61.018" viewBox="0 0 304.16 61.018">
  <g id="Group_2087" data-name="Group 2087" transform="translate(-370.61 -4312.969)">
    <g id="Group_1448" data-name="Group 1448" transform="translate(-259.703 1445)">
      <g id="Group_48" data-name="Group 48" transform="translate(630.313 2867.969)">
        <g id="Group_47" data-name="Group 47">
          <path id="Path_383" data-name="Path 383" d="M1305.769,2902.157c.982,1.153-1.132,1.418-2.79.835-1.581-.556-9.552-3.392-7.253-4.961C1296.321,2897.625,1304.426,2900.682,1305.769,2902.157Z" transform="translate(-1295.313 -2885.001)" fill-rule="evenodd"/>
          <path id="Path_384" data-name="Path 384" d="M1300.287,2892.126c1.418-.724,4.51,3.237,5.891,4.787,1.606,1.8,2.834,4.8-.056,2.9C1305.2,2899.206,1298.372,2893.3,1300.287,2892.126Z" transform="translate(-1293.274 -2887.62)" fill-rule="evenodd"/>
          <path id="Path_385" data-name="Path 385" d="M1310.365,2896.731c.072,1.176-.187,3.252-1.234,3.151-.95-.091-1.337-2.993-1.449-3.927-.213-1.77-.776-7.005,1.019-6.986C1309.952,2889.038,1310.163,2893.972,1310.365,2896.731Z" transform="translate(-1289.987 -2888.969)" fill-rule="evenodd"/>
        </g>
      </g>
    </g>
    <g id="Group_1458" data-name="Group 1458" transform="translate(-458.203 37.711)">
      <path id="Path_16795" data-name="Path 16795" d="M24.138,0A24.138,24.138,0,1,1,0,24.138,24.138,24.138,0,0,1,24.138,0Z" transform="translate(844 4288)" fill="#ea527b"/>
      <path id="Path_16797" data-name="Path 16797" d="M24.138,0A24.138,24.138,0,1,1,0,24.138,24.138,24.138,0,0,1,24.138,0Z" transform="translate(892.275 4288)" fill="#ea527b"/>
      <path id="Path_16799" data-name="Path 16799" d="M23.8,0A23.97,23.97,0,0,1,47.6,24.138,23.97,23.97,0,0,1,23.8,48.275,23.97,23.97,0,0,1,0,24.138,23.97,23.97,0,0,1,23.8,0Z" transform="translate(940.551 4288)" fill="#ea527b"/>
      <path id="Path_16801" data-name="Path 16801" d="M24.138,0A24.138,24.138,0,1,1,0,24.138,24.138,24.138,0,0,1,24.138,0Z" transform="translate(988.146 4288)" fill="#ea527b"/>
      <path id="Path_16803" data-name="Path 16803" d="M24.138,0A24.138,24.138,0,1,1,0,24.138,24.138,24.138,0,0,1,24.138,0Z" transform="translate(1036.422 4288)" fill="#ea527b"/>
      <path id="Path_16805" data-name="Path 16805" d="M24.138,0A24.138,24.138,0,1,1,0,24.138,24.138,24.138,0,0,1,24.138,0Z" transform="translate(1084.697 4288)" fill="#ea527b"/>
      <path id="Path_16796" data-name="Path 16796" d="M10.415-8.391a7.579,7.579,0,0,0,5.948-2.693l-2.3-2.741a4.733,4.733,0,0,1-3.476,1.664c-2.57,0-4.235-2.105-4.235-5.728,0-3.549,1.934-5.654,4.284-5.654a4.517,4.517,0,0,1,3.158,1.42l2.3-2.79a7.758,7.758,0,0,0-5.532-2.374c-4.626,0-8.69,3.476-8.69,9.546C1.872-11.573,5.788-8.391,10.415-8.391Z" transform="translate(859.719 4331.411)" fill="#fff" stroke="#fff" stroke-width="0.5"/>
      <path id="Path_16798" data-name="Path 16798" d="M3.1-8.573H7.478v-7.49h6v7.49h4.333V-26.784H13.475v6.927h-6v-6.927H3.1Z" transform="translate(906.243 4331.249)" fill="#fff" stroke="#fff" stroke-width="0.5"/>
      <path id="Path_16800" data-name="Path 16800" d="M3.1-8.573H14.919v-3.672H7.478v-3.867h6.095v-3.672H7.478v-3.378h7.172v-3.623H3.1Z" transform="translate(955.878 4331.249)" fill="#fff" stroke="#fff" stroke-width="0.5"/>
      <path id="Path_16802" data-name="Path 16802" d="M10.415-8.391a7.579,7.579,0,0,0,5.948-2.693l-2.3-2.741a4.733,4.733,0,0,1-3.476,1.664c-2.57,0-4.235-2.105-4.235-5.728,0-3.549,1.934-5.654,4.284-5.654a4.517,4.517,0,0,1,3.158,1.42l2.3-2.79a7.758,7.758,0,0,0-5.532-2.374c-4.626,0-8.69,3.476-8.69,9.546C1.872-11.573,5.788-8.391,10.415-8.391Z" transform="translate(1003.866 4331.411)" fill="#fff" stroke="#fff" stroke-width="0.5"/>
      <path id="Path_16804" data-name="Path 16804" d="M3.1-8.573H7.478v-4.773L9.46-16.038l4.284,7.466h4.8L12.006-19.49l5.507-7.294h-4.8l-5.165,7.2H7.478v-7.2H3.1Z" transform="translate(1051.069 4331.249)" fill="#fff" stroke="#fff" stroke-width="0.5"/>
      <path id="Path_16806" data-name="Path 16806" d="M4.523-15.435H7.338l.636-8.273.147-3.867H3.74l.147,3.867Zm1.4,6.952A2.6,2.6,0,0,0,8.513-11.2a2.588,2.588,0,0,0-2.595-2.693A2.583,2.583,0,0,0,3.348-11.2,2.59,2.59,0,0,0,5.918-8.483Z" transform="translate(1103.344 4331.503)" fill="#fff" stroke="#fff" stroke-width="0.5"/>
    </g>
  </g>
</svg>
