<svg xmlns="http://www.w3.org/2000/svg" width="85.882" height="54.965" viewBox="0 0 85.882 54.965">
  <g id="Group_2087" data-name="Group 2087" transform="translate(-173.288 -217)">
    <g id="Group_182" data-name="Group 182" transform="translate(-859.5 -20)">
      <path id="Path_5948" data-name="Path 5948" d="M1118.67,261.143l-29.812,12.074,4.047,11.8-17.467-6.367-32.871,13.313-9.778-24.143,76.1-30.821Z" fill="#27cfce"/>
    </g>
    <path id="Path_17150" data-name="Path 17150" d="M2.458-11.5A9.277,9.277,0,0,1,.326-8.921a7.329,7.329,0,0,1,.788,1.236,13.454,13.454,0,0,0,2.8-3.3Zm7.821,3.91h1a20.813,20.813,0,0,1-.448,3.177,22.027,22.027,0,0,1-.557-3.15ZM5.553-2.322v-.72H7.128v.72ZM7.128-4.766v.692H5.553v-.692ZM13.143-7.59V-8.88H10.686c.2-.774.353-1.575.489-2.39l-1.4-.231a14.558,14.558,0,0,1-1.1,4.223,7.86,7.86,0,0,0-.855-1.684l-1.113.394a7.115,7.115,0,0,1,.38.72l-1.181.1c.177-.421.339-.855.5-1.29H8.88v-1.208H6.938V-11.5H5.485v1.249H3.68v1.208H4.942c-.109.448-.244.95-.38,1.385L3.815-7.6c.1-.19.19-.367.272-.557l-1.412-.5A12.488,12.488,0,0,1,.244-5.105,11.847,11.847,0,0,1,1.1-3.625c.217-.231.448-.5.679-.788V1.181h1.4V-6.436c.177-.3.339-.6.5-.9l.2,1c1.045-.122,2.349-.258,3.652-.394A4.757,4.757,0,0,1,7.7-6.1l.557-.2a7.072,7.072,0,0,1,.706,1.263,4.625,4.625,0,0,0,.407-.6,21.467,21.467,0,0,0,.76,3.3A6.4,6.4,0,0,1,8.391-.1V-5.947H4.277v7.1H5.553V-1.29H7.128V-.217c0,.122-.041.163-.177.177-.109,0-.489,0-.855-.014a5.276,5.276,0,0,1,.339,1.263A3.078,3.078,0,0,0,7.929.978.827.827,0,0,0,8.337.394a5.37,5.37,0,0,1,.625.869A7.637,7.637,0,0,0,10.794-.76a6.332,6.332,0,0,0,1.548,1.955,5.129,5.129,0,0,1,.991-1.208,5.8,5.8,0,0,1-1.779-2.295A19.423,19.423,0,0,0,12.614-7.59ZM26.572-8.8v-1.426H21.629v-1.263H19.946v1.263H15.112v3.8c0,1.982-.081,4.806-1.208,6.735a5.879,5.879,0,0,1,1.317.883C16.456-.9,16.66-4.236,16.66-6.422V-8.8ZM16.891.95h5.757V-.434H16.891Zm2.444-6.49v-.991c.76-.068,1.548-.163,2.335-.272q.02.652.081,1.263ZM26.49-4.128V-5.54H23.313q-.061-.733-.081-1.507c.8-.149,1.561-.326,2.213-.516L24.25-8.73A30.008,30.008,0,0,1,19-7.766l-1.208-.326V-2.4c-.38.041-.733.068-1.045.1L16.9-.855c1.4-.163,3.286-.38,5.051-.6l-.041-1.385c-.869.1-1.752.19-2.58.272V-4.128h2.58c.421,2.865,1.344,4.956,2.96,4.956,1.073.014,1.561-.462,1.752-2.5A3.687,3.687,0,0,1,25.377-2.4c-.041,1.168-.149,1.711-.394,1.711-.652,0-1.208-1.412-1.507-3.435Zm4.535-1.779h2.688V-7.481H31.025v-3.87H29.341V-1.086c-.625.122-1.195.231-1.7.312L28.092.883C29.762.53,31.975.041,34.026-.434l-.149-1.589c-.937.2-1.914.421-2.851.611ZM36.755-.6c-.516,0-.584-.109-.584-.883V-5.417a34.252,34.252,0,0,0,3.924-1.724L38.981-8.554a20.352,20.352,0,0,1-2.811,1.575v-4.372H34.5v9.857C34.5.434,34.935.978,36.51.978h1.874C39.837.978,40.258.1,40.421-2.2a4.93,4.93,0,0,1-1.507-.706c-.1,1.847-.177,2.308-.679,2.308Zm8.758-5.567h-.869v-.8h.869Zm0,1.86h-.869v-.8h.869Zm-2.783-.8h.828v.8h-.828Zm0-1.86h.828v.8h-.828ZM53.958-5.8a16.035,16.035,0,0,0-1.67-2.688h1.48V-9.952H51.229V-11.5h-1.6v1.548h-2.58v1.466h5.01l-1.113.543A15.6,15.6,0,0,1,52.4-5.58l-1.127-.258a9.334,9.334,0,0,1-.869,2.4,10.175,10.175,0,0,1-.978-2.376l-.991.231a9.3,9.3,0,0,0,1.412-2.485l-1.494-.38a6.443,6.443,0,0,1-1.629,2.485V-8.092H44.833V-8.8h2v-1.4h-2v-1.29H43.381v1.29H41.317v1.4h2.064v.706H41.561v4.9h1.819v.815h-2.2V-.964h2.2V1.181h1.453V-.964h2.281V-2.376H44.833v-.815h1.887V-5.73a9.66,9.66,0,0,1,1.1.828c.1-.1.19-.19.285-.3A14.71,14.71,0,0,0,49.45-2.091a7.537,7.537,0,0,1-3.041,2.05A6.248,6.248,0,0,1,47.4,1.222,8.793,8.793,0,0,0,50.387-.8a7.908,7.908,0,0,0,2.607,2A6.335,6.335,0,0,1,54.026-.1,6.967,6.967,0,0,1,51.364-2.05a11.046,11.046,0,0,0,1.29-3.069Zm6.449,2.308h1.4l.475-4.644.068-2.023H59.864l.054,2.023ZM61.1.122a1.328,1.328,0,0,0,1.412-1.331A1.347,1.347,0,0,0,61.1-2.553a1.347,1.347,0,0,0-1.412,1.344A1.328,1.328,0,0,0,61.1.122Z" transform="translate(189.423 261.398) rotate(-23)" fill="#fff"/>
  </g>
</svg>
