<svg xmlns="http://www.w3.org/2000/svg" viewBox="0 0 52.35 50.3"><defs><style>.cls-1{fill:none;stroke:#e7b52a;stroke-miterlimit:10;stroke-width:4px;}</style></defs><title>asAsset 4item</title><g id="Layer_2" data-name="Layer 2"><g id="レイヤー_1" data-name="レイヤー 1"><path class="cls-1" d="M18.48,14.85,24.33,3.21a2.2,2.2,0,0,1,3.94,0L34,15a2.2,2.2,0,0,0,1.65,1.22l12.88,2a2.2,2.2,0,0,1,1.19,3.76l-9.4,9a2.2,2.2,0,0,0-.65,1.94l2.11,12.86A2.2,2.2,0,0,1,38.53,48L27,41.89a2.2,2.2,0,0,0-2,0l-11.58,6a2.2,2.2,0,0,1-3.17-2.34l2.3-12.83a2.2,2.2,0,0,0-.62-2L2.65,21.56A2.2,2.2,0,0,1,3.9,17.82L16.81,16A2.2,2.2,0,0,0,18.48,14.85Z"/></g></g></svg>