<svg xmlns="http://www.w3.org/2000/svg" viewBox="0 0 52.76 50.43"><defs><style>.cls-1{fill:none;stroke:#e7b52a;stroke-miterlimit:10;stroke-width:4px;}.cls-2{fill:#e7b52a;}</style></defs><title>asAsset 5item</title><g id="Layer_2" data-name="Layer 2"><g id="レイヤー_1" data-name="レイヤー 1"><path class="cls-1" d="M18.62,14.89,24.52,3.21a2.22,2.22,0,0,1,4,0L34.23,15a2.22,2.22,0,0,0,1.66,1.22l13,2A2.2,2.2,0,0,1,50.08,22L40.6,31A2.2,2.2,0,0,0,39.94,33l2.12,12.9a2.21,2.21,0,0,1-3.23,2.3L27.25,42a2.23,2.23,0,0,0-2.06,0L13.5,48a2.21,2.21,0,0,1-3.2-2.35l2.32-12.86a2.2,2.2,0,0,0-.62-2L2.66,21.61a2.2,2.2,0,0,1,1.26-3.75l13-1.78A2.22,2.22,0,0,0,18.62,14.89Z"/><path class="cls-2" d="M26.2,2a2.16,2.16,0,0,0-1.67,1.17L18.62,14.89a2.22,2.22,0,0,1-1.68,1.19l-13,1.78a2.2,2.2,0,0,0-1.26,3.75L12,30.81a2.2,2.2,0,0,1,.62,2L10.31,45.63A2.21,2.21,0,0,0,13.5,48l11.68-6a2.22,2.22,0,0,1,1-.24Z"/></g></g></svg>