<svg xmlns="http://www.w3.org/2000/svg" width="50.999" height="51" viewBox="0 0 50.999 51">
  <path id="Path_16913" data-name="Path 16913" d="M1428.716,547.22a25.5,25.5,0,1,0,25.5,25.5A25.529,25.529,0,0,0,1428.716,547.22ZM1409.564,573.6h-2.293a.876.876,0,1,1,0-1.752h2.293a.876.876,0,1,1,0,1.752Zm17.82-22.388a.876.876,0,1,1,1.752,0V553.5a.876.876,0,1,1-1.752,0Zm1.752,43.024a.876.876,0,1,1-1.752,0v-2.294a.876.876,0,1,1,1.752,0Zm9.872-19.17h-10.747a1.307,1.307,0,0,1-1.308-1.307V559.126a1.307,1.307,0,1,1,2.614,0v13.321h9.441a1.308,1.308,0,1,1,0,2.615Zm11.286-1.521H1448a.876.876,0,1,1,0-1.751h2.292a.876.876,0,1,1,0,1.751Z" transform="translate(-1403.217 -547.22)" fill="#ea527b"/>
</svg>
