<svg xmlns="http://www.w3.org/2000/svg" width="54.5" height="54.5" viewBox="0 0 54.5 54.5">
  <path id="Path_16911" data-name="Path 16911" d="M1210.422,822.113a27.25,27.25,0,1,1,27.252-27.248A27.279,27.279,0,0,1,1210.422,822.113Zm0-51.984a24.734,24.734,0,1,0,24.735,24.736A24.762,24.762,0,0,0,1210.422,770.129Zm0,3.021a21.713,21.713,0,1,0,21.713,21.715A21.713,21.713,0,0,0,1210.423,773.15Zm12.04,10.067-8.159,12.635a.164.164,0,0,0-.008.167.167.167,0,0,0,.144.085h5.395a.167.167,0,0,1,.167.167v2.487a.167.167,0,0,1-.167.167h-7.021a.164.164,0,0,0-.165.164v2.181a.164.164,0,0,0,.165.164h7.021a.166.166,0,0,1,.167.167v2.486a.166.166,0,0,1-.167.166h-7.021a.164.164,0,0,0-.165.164v4.643a.167.167,0,0,1-.167.167h-4.12a.168.168,0,0,1-.167-.167v-4.643a.164.164,0,0,0-.163-.164h-7.023a.166.166,0,0,1-.167-.166V801.6a.166.166,0,0,1,.167-.167h7.023a.164.164,0,0,0,.163-.164v-2.181a.164.164,0,0,0-.163-.164h-7.023a.167.167,0,0,1-.167-.167v-2.487a.167.167,0,0,1,.167-.167h5.4a.162.162,0,0,0,.142-.085.168.168,0,0,0-.006-.167l-8.161-12.633a.173.173,0,0,1-.005-.172.17.17,0,0,1,.146-.088h4.583a.173.173,0,0,1,.142.083l7.106,11.842a.16.16,0,0,0,.138.081.164.164,0,0,0,.14-.081l7.105-11.842a.177.177,0,0,1,.144-.083h4.441a.168.168,0,0,1,.138.258Z" transform="translate(-1183.174 -767.613)" fill="#ea527b"/>
</svg>
