<svg xmlns="http://www.w3.org/2000/svg" xmlns:xlink="http://www.w3.org/1999/xlink" width="149" height="109" viewBox="0 0 149 109">
  <defs>
    <clipPath id="clip-path">
      <rect id="Rectangle_928" data-name="Rectangle 928" width="146.182" height="93.103" fill="none"/>
    </clipPath>
  </defs>
  <g id="Group_2087" data-name="Group 2087" transform="translate(-601.797 -21266)">
    <g id="Group_1574" data-name="Group 1574" transform="translate(4531.797 21217)">
      <rect id="Rectangle_888" data-name="Rectangle 888" width="149" height="109" rx="22" transform="translate(-3930 49)" fill="#ea527b"/>
    </g>
    <g id="Group_1695" data-name="Group 1695" transform="translate(603 21274.752)">
      <g id="Group_1694" data-name="Group 1694" clip-path="url(#clip-path)">
        <g id="Group_1693" data-name="Group 1693" transform="translate(1.999 6.304)">
          <g id="Group_1691" data-name="Group 1691">
            <path id="Path_17029" data-name="Path 17029" d="M163.6,453.17v39.353c-3.206,1.691-6.408,3.425-9.623,5.1-1.413.726-3.3,1.422-3.957,3.023-1.5,3.654,4.42,3.274,6.4,3.159a36.833,36.833,0,0,0,12.343-2.655c1.344-.591,4-2.155,4-3.957V453.17Z" transform="translate(-117.859 -299.559)" fill="#fccca6"/>
            <path id="Path_17030" data-name="Path 17030" d="M150.026,563.058c-1.5,3.654,4.42,3.274,6.4,3.159a36.834,36.834,0,0,0,12.343-2.655c1.344-.591,4-2.155,4-3.957v-3.162c-4.884,2.85-12.76,5.07-12.76,5.07-4.627.807-6.059-.179-6.358-1.314C152.291,560.873,150.631,561.574,150.026,563.058Z" transform="translate(-117.859 -361.971)" fill="#008129"/>
            <path id="Path_17031" data-name="Path 17031" d="M223.955,453.17v39.353c3.208,1.691,6.4,3.425,9.62,5.1,1.416.726,3.3,1.422,3.957,3.023,1.493,3.654-4.427,3.274-6.4,3.159a36.848,36.848,0,0,1-12.34-2.655c-1.344-.591-4-2.155-4-3.957V453.17Z" transform="translate(-157.143 -299.559)" fill="#fccca6"/>
            <path id="Path_17032" data-name="Path 17032" d="M237.532,563.058c1.493,3.654-4.427,3.274-6.4,3.159a36.85,36.85,0,0,1-12.34-2.655c-1.344-.591-4-2.155-4-3.957v-3.162c4.884,2.85,12.757,5.07,12.757,5.07,4.63.807,6.059-.179,6.361-1.314C235.269,560.873,236.922,561.574,237.532,563.058Z" transform="translate(-157.143 -361.971)" fill="#008129"/>
            <path id="Path_17033" data-name="Path 17033" d="M170.962,317.592l4.992,84.83H185.4l1.376-70.9h.087l1.372,70.9h9.453l4.992-84.83Z" transform="translate(-130.656 -217.624)" fill="#00112d"/>
            <path id="Path_17034" data-name="Path 17034" d="M86.237,175.757s-1.026-1.373,1.014-6.448c0,0,2.727-5.2.742-5.144,0,0-2.473.433-4.086,4.152,0,0-.8-10.284-3.215-10.22,0,0-1.678.118-.093,6.934a2.863,2.863,0,0,0,.093.374s-3.224-7.558-4.779-7.307c0,0-1.607.124,0,3.963l1.462,3.9-3.935-3.28c-.485-.4-2.464-2.21-2.974-1.28-.726,1.323,1.54,3.428,2.195,4.4.742,1.11,1.552,2.318,2.263,3.382-.563-.847-4.643-3.237-5.647-2.442-1.122.881,3.255,4.448,3.873,5.06,1.805,1.8,3.638,3.58,5.462,5.366.093.089,1.135,1.255,1.246,1.205Z" transform="translate(-69.093 -121.232)" fill="#fccca6"/>
            <path id="Path_17035" data-name="Path 17035" d="M288.345,343.631s1.107,7.109,1.746,8.676c0,0,1.283,1.163,1.793-.884a21.951,21.951,0,0,0-.062-4.176c.454,2.464,1.484,4.831,1.091,7.4-.155.992-.751,2.535.383,3.246,1.107.7,2.226-.9,2.77-1.657,0,0,5.524-8.386-.742-13.891Z" transform="translate(-201.595 -232.582)" fill="#fccca6"/>
            <path id="Path_17036" data-name="Path 17036" d="M148.345,170.2s10.315-.2,15.595,15.6l13.431,52.991-11.746,1.595L154.156,194.8l3.731,40.388h-41.3l2.1-38.991s-7.651,19.443-16.08,12.318c-.266-.216-.525-.461-.791-.723C92.943,199,89.345,185.2,89.345,185.2l9.836-4.08L106.615,194s7.913-21.993,19.428-23.8Z" transform="translate(-81.332 -128.55)" fill="#c2cd00"/>
            <path id="Path_17037" data-name="Path 17037" d="M194.985,158.076v5.1c0,1.938,2.844,3.521,6.352,3.521s6.352-1.583,6.352-3.521v-5.1Z" transform="translate(-145.174 -121.223)" fill="#fccca6"/>
            <path id="Path_17038" data-name="Path 17038" d="M202.754,177.257a8.274,8.274,0,0,1-5.425-1.712l5.425,11.9,5.425-11.9A8.274,8.274,0,0,1,202.754,177.257Z" transform="translate(-146.591 -131.78)" fill="#fff"/>
            <path id="Path_17039" data-name="Path 17039" d="M210.475,216.794a1.515,1.515,0,1,1-1.515-1.515A1.516,1.516,0,0,1,210.475,216.794Z" transform="translate(-152.705 -155.793)" fill="#fff"/>
            <path id="Path_17040" data-name="Path 17040" d="M210.475,237.255a1.515,1.515,0,1,1-1.515-1.515A1.516,1.516,0,0,1,210.475,237.255Z" transform="translate(-152.705 -168.158)" fill="#fff"/>
            <circle id="Ellipse_154" data-name="Ellipse 154" cx="1.515" cy="1.515" r="1.515" transform="translate(54.741 75.678)" fill="#fff"/>
            <path id="Path_17041" data-name="Path 17041" d="M210.475,278.185a1.515,1.515,0,1,1-1.515-1.515A1.516,1.516,0,0,1,210.475,278.185Z" transform="translate(-152.705 -192.894)" fill="#fff"/>
            <path id="Path_17042" data-name="Path 17042" d="M210.475,298.638a1.515,1.515,0,1,1-1.515-1.515A1.514,1.514,0,0,1,210.475,298.638Z" transform="translate(-152.705 -205.254)" fill="#fff"/>
            <path id="Path_17043" data-name="Path 17043" d="M210.475,319.107a1.515,1.515,0,1,1-1.515-1.515A1.514,1.514,0,0,1,210.475,319.107Z" transform="translate(-152.705 -217.624)" fill="#fff"/>
            <path id="Path_17044" data-name="Path 17044" d="M238.441,88.365s18.29,28.018-11.932,29.029c0,0,12.473-16.089,8.015-24.039Z" transform="translate(-164.225 -79.094)" fill="#844d26"/>
            <path id="Path_17045" data-name="Path 17045" d="M167.546,116.418a5.069,5.069,0,1,1-5.069-5.076A5.077,5.077,0,0,1,167.546,116.418Z" transform="translate(-122.464 -92.98)" fill="#fccca6"/>
            <path id="Path_17046" data-name="Path 17046" d="M249.177,116.418a5.073,5.073,0,1,1-5.076-5.076A5.078,5.078,0,0,1,249.177,116.418Z" transform="translate(-171.794 -92.98)" fill="#fccca6"/>
            <path id="Path_17047" data-name="Path 17047" d="M201.444,91.852a18.174,18.174,0,1,1-18.166-17.87A18.016,18.016,0,0,1,201.444,91.852Z" transform="translate(-127.115 -70.402)" fill="#fccca6"/>
            <path id="Path_17048" data-name="Path 17048" d="M193.8,67.077c-2.294-3.7-6.383-1.561-9.793-1.2-4.38.473-8.8-.68-13.168.173-7.975,1.527-14.6,9.6-16.837,17.053a21.437,21.437,0,0,0-1.184,5.914,12.749,12.749,0,0,0,4.872,9.626c3.406,2.819,7.719,3.765,11.975,4.5a18.132,18.132,0,0,1-10.485-9.737,5.073,5.073,0,0,1-1.221-9.793l.04-.009a.6.6,0,0,1,.455-.315s15.631-2.433,17.6-9.264a3.794,3.794,0,0,0,.186,1.953,6.274,6.274,0,0,1-1.246,5.6,3.881,3.881,0,0,1-1.406,1.045,11.449,11.449,0,0,0,4.281-2.133,14.739,14.739,0,0,0,1.66-1.543A5.01,5.01,0,0,0,181,76.659a4.233,4.233,0,0,1,1.509,2.4,3.981,3.981,0,0,1-.108,2.918c-.176.4,2.21-2.006,2.371-2.167.643-.633,2.173-2.374,1.385-3.354a6,6,0,0,1,1.19,2.426,4.5,4.5,0,0,1,.108,1.366c-.025.288-.087,1.085-.34,1.28a33.065,33.065,0,0,0,2.973-2.476l1.4-1.78,2.34-2.98C194.809,72.09,195.047,69.1,193.8,67.077Z" transform="translate(-119.688 -64.933)" fill="#844d26"/>
            <path id="Path_17049" data-name="Path 17049" d="M193.829,138.311c.21,2.973,3.2,5.341,6.9,5.341s6.692-2.368,6.9-5.341Z" transform="translate(-144.476 -109.278)" fill="#efa7b8"/>
          </g>
          <g id="Group_1692" data-name="Group 1692" transform="translate(55.268 7.592)">
            <path id="Path_17050" data-name="Path 17050" d="M219.141,255.829s-.677.965-4.42.711c0,0-3.975-.662-3.512.612,0,0,.81,1.527,3.576,1.78,0,0-6.532,2.727-5.975,4.287,0,0,.432,1.066,4.544-1.419.071-.049.148-.1.226-.142,0,0-4.244,3.709-3.749,4.67,0,0,.427,1.023,2.587-.847l2.229-1.784-1.3,3.267c-.157.4-.912,2.08-.2,2.21,1.02.195,1.907-1.734,2.408-2.371.559-.724,1.177-1.509,1.718-2.2-.432.55-1.119,3.718-.386,4.207.813.544,2.207-3.073,2.473-3.61.788-1.564,1.555-3.141,2.334-4.708a7.207,7.207,0,0,0,.525-1.069Z" transform="translate(-208.777 -200.891)" fill="#fccca6"/>
            <path id="Path_17051" data-name="Path 17051" d="M387.417,255.829s.671.965,4.42.711c0,0,3.972-.662,3.512.612,0,0-.816,1.527-3.582,1.78,0,0,6.534,2.727,5.981,4.287,0,0-.439,1.066-4.544-1.419-.071-.049-.155-.1-.226-.142,0,0,4.241,3.709,3.75,4.67,0,0-.43,1.023-2.587-.847L391.9,263.7l1.3,3.267c.164.4.915,2.08.2,2.21-1.026.195-1.91-1.734-2.408-2.371-.566-.724-1.178-1.509-1.716-2.2.423.55,1.116,3.718.377,4.207-.81.544-2.2-3.073-2.467-3.61-.791-1.564-1.564-3.141-2.331-4.708a6.445,6.445,0,0,1-.525-1.069Z" transform="translate(-314.875 -200.891)" fill="#fccca6"/>
            <path id="Path_17052" data-name="Path 17052" d="M270.119,345.2v34.738c-2.835,1.49-5.65,3.023-8.491,4.5-1.246.643-2.915,1.255-3.5,2.668-1.323,3.231,3.907,2.89,5.651,2.785a32.305,32.305,0,0,0,10.893-2.34c1.187-.519,3.533-1.9,3.533-3.49V345.2Z" transform="translate(-238.475 -254.903)" fill="#fccca6"/>
            <rect id="Rectangle_926" data-name="Rectangle 926" width="8.089" height="14.989" transform="translate(31.643 114.173)" fill="#fff"/>
            <path id="Path_17053" data-name="Path 17053" d="M258.131,440.226c-1.323,3.231,3.907,2.89,5.651,2.785a32.307,32.307,0,0,0,10.893-2.34c1.187-.519,3.533-1.9,3.533-3.49v-3.706c-5.679,3.054-7.561.974-8.161-.38-2.8,1.477-5.607,3-8.421,4.464C260.382,438.2,258.712,438.814,258.131,440.226Z" transform="translate(-238.475 -308.019)" fill="#6d3c17"/>
            <path id="Path_17054" data-name="Path 17054" d="M326.581,345.2v34.738c2.838,1.49,5.65,3.023,8.5,4.5,1.242.643,2.909,1.255,3.49,2.668,1.317,3.231-3.9,2.89-5.65,2.785a32.352,32.352,0,0,1-10.9-2.34c-1.187-.519-3.527-1.9-3.527-3.49V345.2Z" transform="translate(-275.084 -254.903)" fill="#fccca6"/>
            <rect id="Rectangle_927" data-name="Rectangle 927" width="8.086" height="14.989" transform="translate(43.411 114.173)" fill="#fff"/>
            <path id="Path_17055" data-name="Path 17055" d="M338.569,440.226c1.326,3.231-3.9,2.89-5.65,2.785a32.354,32.354,0,0,1-10.9-2.34c-1.187-.519-3.527-1.9-3.527-3.49v-3.706c5.675,3.054,7.554.974,8.161-.38,2.81,1.477,5.6,3,8.417,4.464C336.321,438.2,337.987,438.814,338.569,440.226Z" transform="translate(-275.084 -308.019)" fill="#6d3c17"/>
            <path id="Path_17056" data-name="Path 17056" d="M295.46,223.592a25.6,25.6,0,0,1-4.235-3.094c-4.927-3.817-9.863-7.629-14.757-11.493a74.269,74.269,0,0,0-6.037-4.769,8.789,8.789,0,0,0-3.348-1.2l-6.467,10.51-6.467-10.51a8.83,8.83,0,0,0-3.357,1.2A74.615,74.615,0,0,0,244.766,209c-4.894,3.864-9.83,7.675-14.767,11.493a25.068,25.068,0,0,1-4.232,3.094c.81.349,7.19,6.733,7.19,6.733l16.8-13.245-10.89,44.775H282.36l-10.887-44.775,16.794,13.245S294.654,223.941,295.46,223.592Z" transform="translate(-219.045 -168.984)" fill="#ed816a"/>
            <path id="Path_17057" data-name="Path 17057" d="M299.557,188.962v5.765c0,2.185,2.535,3.963,5.654,3.963s5.645-1.777,5.645-3.963v-5.765Z" transform="translate(-263.639 -160.481)" fill="#fccca6"/>
            <path id="Path_17058" data-name="Path 17058" d="M303.931,204.469a12.293,12.293,0,0,1-6.491-1.515l6.491,10.541,6.488-10.541A12.291,12.291,0,0,1,303.931,204.469Z" transform="translate(-262.359 -168.936)" fill="#fff"/>
            <path id="Path_17059" data-name="Path 17059" d="M274.542,175.646a3.051,3.051,0,1,1-3.051-3.051A3.054,3.054,0,0,1,274.542,175.646Z" transform="translate(-244.834 -150.589)" fill="#844d26"/>
            <path id="Path_17060" data-name="Path 17060" d="M268.665,188.96a2.484,2.484,0,1,1-2.482-2.482A2.483,2.483,0,0,1,268.665,188.96Z" transform="translate(-241.968 -158.979)" fill="#844d26"/>
            <path id="Path_17061" data-name="Path 17061" d="M262.556,199.257a2.172,2.172,0,1,1-2.173-2.17A2.175,2.175,0,0,1,262.556,199.257Z" transform="translate(-238.653 -165.391)" fill="#844d26"/>
            <path id="Path_17062" data-name="Path 17062" d="M248.991,207.124a.4.4,0,0,1-.152-.779l4.365-1.762a.4.4,0,0,1,.3.748l-4.368,1.762A.424.424,0,0,1,248.991,207.124Z" transform="translate(-232.834 -169.904)" fill="#844d26"/>
            <path id="Path_17063" data-name="Path 17063" d="M253.773,208.817a.407.407,0,0,1-.324-.649l2.822-3.781a.405.405,0,0,1,.649.485l-2.822,3.78A.409.409,0,0,1,253.773,208.817Z" transform="translate(-235.725 -169.705)" fill="#844d26"/>
            <path id="Path_17064" data-name="Path 17064" d="M258.733,209.984l-.077-.006a.406.406,0,0,1-.322-.476l.9-4.624a.4.4,0,1,1,.794.155l-.9,4.624A.409.409,0,0,1,258.733,209.984Z" transform="translate(-238.722 -169.902)" fill="#844d26"/>
            <path id="Path_17065" data-name="Path 17065" d="M343.815,175.646a3.051,3.051,0,1,0,3.054-3.051A3.057,3.057,0,0,0,343.815,175.646Z" transform="translate(-290.385 -150.589)" fill="#844d26"/>
            <path id="Path_17066" data-name="Path 17066" d="M351.44,188.96a2.482,2.482,0,1,0,2.479-2.482A2.481,2.481,0,0,0,351.44,188.96Z" transform="translate(-294.993 -158.979)" fill="#844d26"/>
            <path id="Path_17067" data-name="Path 17067" d="M358.495,199.257a2.171,2.171,0,1,0,2.173-2.17A2.175,2.175,0,0,0,358.495,199.257Z" transform="translate(-299.257 -165.391)" fill="#844d26"/>
            <path id="Path_17068" data-name="Path 17068" d="M370.78,207.128a.456.456,0,0,1-.152-.031l-4.368-1.762a.4.4,0,0,1-.226-.525.417.417,0,0,1,.526-.223l4.37,1.762a.4.4,0,0,1,.223.526A.4.4,0,0,1,370.78,207.128Z" transform="translate(-303.796 -169.908)" fill="#844d26"/>
            <path id="Path_17069" data-name="Path 17069" d="M368.368,208.817a.409.409,0,0,1-.324-.164l-2.819-3.78a.405.405,0,0,1,.649-.485l2.819,3.781a.4.4,0,0,1-.08.565A.409.409,0,0,1,368.368,208.817Z" transform="translate(-303.276 -169.705)" fill="#844d26"/>
            <path id="Path_17070" data-name="Path 17070" d="M366.329,209.987a.4.4,0,0,1-.4-.328l-.9-4.624a.4.4,0,1,1,.794-.155l.9,4.624a.4.4,0,0,1-.318.476Z" transform="translate(-303.206 -169.905)" fill="#844d26"/>
            <path id="Path_17071" data-name="Path 17071" d="M275.782,156.362a4.44,4.44,0,1,1-4.439-4.439A4.44,4.44,0,0,1,275.782,156.362Z" transform="translate(-243.903 -138.097)" fill="#fccca6"/>
            <path id="Path_17072" data-name="Path 17072" d="M347.219,156.362a4.441,4.441,0,1,1-4.442-4.439A4.443,4.443,0,0,1,347.219,156.362Z" transform="translate(-287.075 -138.097)" fill="#fccca6"/>
            <path id="Path_17073" data-name="Path 17073" d="M305.46,134.867a15.9,15.9,0,1,1-15.9-15.631A15.77,15.77,0,0,1,305.46,134.867Z" transform="translate(-247.988 -118.343)" fill="#fccca6"/>
            <path id="Path_17074" data-name="Path 17074" d="M300.064,131.021c-.473-6.562-4.927-11.307-11.069-13.178a22.716,22.716,0,0,0-6.327-.865c-8.652,0-13.638,8.76-13.675,8.825-2.04,3.122-3.57,3.876-3.583,3.879l-.618.288.547.4a6.322,6.322,0,0,0,3.858,1.082c5.7,0,13.709-4.5,15.245-5.391l.013.065c2.306,5.174,13.811,5.326,15.115,5.326l.532-.01Z" transform="translate(-242.628 -116.978)" fill="#844d26"/>
            <path id="Path_17075" data-name="Path 17075" d="M313.016,168.318a.161.161,0,0,1-.124-.065,1.332,1.332,0,0,0-1-.658h-.025a1.44,1.44,0,0,0-.968.649.166.166,0,0,1-.216.046.155.155,0,0,1-.046-.216,1.726,1.726,0,0,1,1.218-.791,1.625,1.625,0,0,1,1.286.785.154.154,0,0,1-.031.216Z" transform="translate(-270.319 -147.379)" fill="#32190e"/>
            <path id="Path_17076" data-name="Path 17076" d="M297.58,175.361c.192,2.772,2.986,4.983,6.436,4.983s6.241-2.21,6.43-4.983Z" transform="translate(-262.444 -152.261)" fill="#efa7b8"/>
            <path id="Path_17077" data-name="Path 17077" d="M302.552,229.626s-5.688.557-6.909,3.453a9.152,9.152,0,0,1,1.669,2.68A16.036,16.036,0,0,0,302.552,229.626Z" transform="translate(-261.273 -185.055)" fill="#fff"/>
            <path id="Path_17078" data-name="Path 17078" d="M306.971,229.626s-1.116,5.239-4.016,8.136a6.9,6.9,0,0,0,1.78,2.232S307.3,240.105,306.971,229.626Z" transform="translate(-265.692 -185.055)" fill="#fff"/>
            <path id="Path_17079" data-name="Path 17079" d="M314.58,229.626s5.682.557,6.912,3.453a9.153,9.153,0,0,0-1.669,2.68A16.06,16.06,0,0,1,314.58,229.626Z" transform="translate(-272.718 -185.055)" fill="#fff"/>
            <path id="Path_17080" data-name="Path 17080" d="M314.534,229.626s1.116,5.239,4.012,8.136a6.856,6.856,0,0,1-1.78,2.232S314.2,240.105,314.534,229.626Z" transform="translate(-272.672 -185.055)" fill="#fff"/>
            <path id="Path_17081" data-name="Path 17081" d="M313.535,229.787a.723.723,0,0,1-.726.723H312.7a.723.723,0,1,1,0-1.447h.111A.727.727,0,0,1,313.535,229.787Z" transform="translate(-271.141 -184.716)" fill="#fff"/>
          </g>
        </g>
      </g>
    </g>
  </g>
</svg>
