<svg xmlns="http://www.w3.org/2000/svg" width="149" height="109" viewBox="0 0 149 109">
  <g id="Group_1617" data-name="Group 1617" transform="translate(-307.203 -3849)">
    <g id="Group_1573" data-name="Group 1573" transform="translate(4237.203 3800)">
      <rect id="Rectangle_888" data-name="Rectangle 888" width="149" height="109" rx="22" transform="translate(-3930 49)" fill="#ea527b"/>
    </g>
    <g id="Group_1562" data-name="Group 1562" transform="translate(150 3686)">
      <rect id="Rectangle_899" data-name="Rectangle 899" width="73.152" height="82.368" rx="2.842" transform="translate(197.418 178.249)" fill="#dab467"/>
      <rect id="Rectangle_900" data-name="Rectangle 900" width="62.774" height="72.941" transform="translate(202.139 182.773)" fill="#fff"/>
      <g id="Group_1550" data-name="Group 1550">
        <g id="Group_1548" data-name="Group 1548">
          <path id="Path_16958" data-name="Path 16958" d="M242.218,175.715a8.565,8.565,0,0,0-6.567-8.077,8.346,8.346,0,0,0-1.7-.243,2.852,2.852,0,0,0-.333-.013h-.064a8.607,8.607,0,0,0-8.55,8.333v.627a4.2,4.2,0,0,0,.064.717,2.822,2.822,0,0,0,.051.359,4.9,4.9,0,0,0,.128.627.937.937,0,0,0,.051.2,8.793,8.793,0,0,0,.512,1.409,8.419,8.419,0,0,0,1.92,2.624,4.142,4.142,0,0,0,.576.486,8.193,8.193,0,0,0,1.254.832h8.116a8.192,8.192,0,0,0,1.254-.832,4.142,4.142,0,0,0,.576-.486,8.338,8.338,0,0,0,1.165-1.344,8.12,8.12,0,0,0,.755-1.28,7.656,7.656,0,0,0,.5-1.409,5.9,5.9,0,0,0,.179-.831,2.791,2.791,0,0,0,.064-.359A9.508,9.508,0,0,0,242.23,176,2.218,2.218,0,0,0,242.218,175.715Zm-4.6,2.534a4.438,4.438,0,0,1-1.216,1.409,4.583,4.583,0,0,1-5.58,0,4.282,4.282,0,0,1-1.216-1.409,3.72,3.72,0,0,1-.384-.831,2.944,2.944,0,0,1-.1-.359,4.814,4.814,0,0,1-.115-1.062,1.956,1.956,0,0,1,.013-.282,4.733,4.733,0,0,1,.64-2.073c.013-.013.013-.026.025-.039a4.6,4.6,0,0,1,1.549-1.549,4.531,4.531,0,0,1,2.381-.665,4.618,4.618,0,0,1,4.6,4.326,1.956,1.956,0,0,1,.013.282,4.814,4.814,0,0,1-.115,1.062,2.944,2.944,0,0,1-.1.359A4.4,4.4,0,0,1,237.622,178.249Z" fill="#afaeae"/>
        </g>
        <g id="Group_1549" data-name="Group 1549">
          <path id="Path_16959" data-name="Path 16959" d="M252.138,177.418l-.166.832-.077.371-.486,2.317-.371,1.83-.358,1.715H216.554l-.026-.166-.064-.32-.154-.7-.1-.525-.384-1.83-.486-2.317-.077-.371-.166-.832Z" fill="#afaeae"/>
          <path id="Path_16960" data-name="Path 16960" d="M215.094,177.418l.167.831.077.372h.012l.474,2.317h35.584l.474-2.317h.012l.077-.372.167-.831Z" fill="#fff" opacity="0.23"/>
        </g>
      </g>
      <g id="Group_1551" data-name="Group 1551">
        <path id="Path_16961" data-name="Path 16961" d="M260.123,246.292a5.546,5.546,0,1,1-5.547-5.547A5.546,5.546,0,0,1,260.123,246.292Z" fill="#4fa5b9"/>
        <path id="Path_16962" data-name="Path 16962" d="M254.576,242.845l.855,2.633H258.2l-2.24,1.627.856,2.633-2.24-1.627-2.24,1.627.856-2.633-2.24-1.627h2.768Z" fill="#fff"/>
      </g>
      <rect id="Rectangle_901" data-name="Rectangle 901" width="11.52" height="2.347" transform="translate(228.903 193.026)" fill="#aaa9a9"/>
      <rect id="Rectangle_902" data-name="Rectangle 902" width="30.8" height="2.347" transform="translate(228.903 199.153)" fill="#aaa9a9"/>
      <rect id="Rectangle_903" data-name="Rectangle 903" width="30.8" height="2.347" transform="translate(228.903 205.28)" fill="#aaa9a9"/>
      <g id="Group_1552" data-name="Group 1552">
        <rect id="Rectangle_904" data-name="Rectangle 904" width="49.787" height="2.347" transform="translate(209.916 225.078)" fill="#aaa9a9"/>
        <rect id="Rectangle_905" data-name="Rectangle 905" width="49.787" height="2.347" transform="translate(209.916 229.892)" fill="#aaa9a9"/>
        <rect id="Rectangle_906" data-name="Rectangle 906" width="49.787" height="2.347" transform="translate(209.916 236.185)" fill="#aaa9a9"/>
        <rect id="Rectangle_907" data-name="Rectangle 907" width="31.013" height="2.347" transform="translate(209.916 241.504)" fill="#aaa9a9"/>
      </g>
      <rect id="Rectangle_908" data-name="Rectangle 908" width="62.8" height="0.587" transform="translate(202.139 218.951)" fill="#999898"/>
      <g id="Group_1556" data-name="Group 1556">
        <g id="Group_1553" data-name="Group 1553">
          <path id="Path_16963" data-name="Path 16963" d="M211.66,211.675l-.839-3.071-2.793,1.8,3.491-9.971,3.632,1.272Z" fill="#dab467"/>
          <path id="Path_16964" data-name="Path 16964" d="M219.2,211.675l.839-3.071,2.793,1.8-3.491-9.971-3.632,1.272Z" fill="#dab467"/>
        </g>
        <g id="Group_1555" data-name="Group 1555">
          <g id="Group_1554" data-name="Group 1554">
            <path id="Path_16965" data-name="Path 16965" d="M215.429,196.869Z" fill="#da664f"/>
            <path id="Path_16966" data-name="Path 16966" d="M215.429,196.869Z" fill="#da664f"/>
            <path id="Path_16967" data-name="Path 16967" d="M215.429,196.869l.658-.379,5.638-3.256a.648.648,0,0,0,.194-.98l-1.874-1.874a.648.648,0,0,0-.981.194l-3.255,5.638Z" fill="#da664f"/>
            <path id="Path_16968" data-name="Path 16968" d="M222.705,196.869a.643.643,0,0,0,.653-.751l-.68-2.564a.656.656,0,0,0-.953-.32l-5.638,3.256c-.362.208-.316.379.1.379Z" fill="#ec8574"/>
            <path id="Path_16969" data-name="Path 16969" d="M215.429,196.869l.658.38,5.638,3.255a.656.656,0,0,0,.953-.319l.68-2.564a.643.643,0,0,0-.653-.752h-7.276Z" fill="#da664f"/>
            <path id="Path_16970" data-name="Path 16970" d="M215.429,196.869Z" fill="#da664f"/>
            <path id="Path_16971" data-name="Path 16971" d="M215.429,196.869Z" fill="#da664f"/>
            <path id="Path_16972" data-name="Path 16972" d="M215.429,196.869Z" fill="#da664f"/>
            <path id="Path_16973" data-name="Path 16973" d="M215.429,196.869Z" fill="#da664f"/>
            <path id="Path_16974" data-name="Path 16974" d="M214.772,197.249l.657-.38h-7.275a.642.642,0,0,0-.653.752l.679,2.564a.657.657,0,0,0,.954.319Z" fill="#ec8574"/>
            <path id="Path_16975" data-name="Path 16975" d="M215.429,197.628c0-.417-.17-.463-.379-.1l-3.255,5.638a.657.657,0,0,0,.319.954l2.564.68a.643.643,0,0,0,.751-.653Z" fill="#ec8574"/>
            <path id="Path_16976" data-name="Path 16976" d="M209.134,200.5a.648.648,0,0,0-.194.981l1.874,1.874a.649.649,0,0,0,.981-.195l3.255-5.638c.209-.361.084-.486-.278-.277Z" fill="#da664f"/>
            <path id="Path_16977" data-name="Path 16977" d="M215.809,197.526c-.209-.361-.38-.315-.38.1v6.517a.643.643,0,0,0,.752.653l2.564-.68a.657.657,0,0,0,.319-.954Z" fill="#da664f"/>
            <path id="Path_16978" data-name="Path 16978" d="M219.064,190.574a.657.657,0,0,0-.319-.954l-2.564-.68a.644.644,0,0,0-.752.654v6.516c0,.418.171.463.38.1Z" fill="#ec8574"/>
            <path id="Path_16979" data-name="Path 16979" d="M221.919,201.485a.648.648,0,0,0-.194-.981l-5.638-3.255c-.362-.209-.487-.084-.278.277l3.255,5.638a.649.649,0,0,0,.981.195Z" fill="#ec8574"/>
            <path id="Path_16980" data-name="Path 16980" d="M215.429,189.594a.643.643,0,0,0-.751-.654l-2.564.68a.657.657,0,0,0-.319.954l3.255,5.638c.209.361.379.316.379-.1Z" fill="#da664f"/>
            <path id="Path_16981" data-name="Path 16981" d="M215.429,196.869l-.379-.657-3.255-5.638a.648.648,0,0,0-.981-.194l-1.874,1.874a.648.648,0,0,0,.194.98l5.638,3.256Z" fill="#ec8574"/>
            <path id="Path_16982" data-name="Path 16982" d="M209.134,193.234a.657.657,0,0,0-.954.32l-.679,2.564a.642.642,0,0,0,.653.751h6.516c.418,0,.464-.171.1-.379Z" fill="#da664f"/>
          </g>
          <circle id="Ellipse_144" data-name="Ellipse 144" cx="4.551" cy="4.551" r="4.551" transform="translate(210.878 192.318)" fill="#7b4f49"/>
        </g>
      </g>
    </g>
  </g>
</svg>
