<svg xmlns="http://www.w3.org/2000/svg" width="149" height="109" viewBox="0 0 149 109">
  <g id="Group_1609" data-name="Group 1609" transform="translate(-590 -3418)">
    <g id="Group_1529" data-name="Group 1529" transform="translate(4520 3369)">
      <rect id="Rectangle_888" data-name="Rectangle 888" width="149" height="109" rx="22" transform="translate(-3930 49)" fill="#ea527b"/>
    </g>
    <g id="Group_1561" data-name="Group 1561" transform="translate(605 3082.88)">
      <path id="Path_16984" data-name="Path 16984" d="M102.758,392.285l3.579-3.579h0l-3.579,3.579Z" transform="translate(-31.336 -14.656)" fill="none"/>
      <path id="Path_16985" data-name="Path 16985" d="M96.366,396.759l1.144.535,2.828-2.828Z" transform="translate(-28.916 -16.837)" fill="#f3ed97"/>
      <path id="Path_16986" data-name="Path 16986" d="M47.974,399.876a21.961,21.961,0,0,0,21.9,21.9c.162,0,.321-.011.482-.014V378c-.162,0-.319-.025-.482-.025A21.927,21.927,0,0,0,47.974,399.876Z" transform="translate(-10.592 -10.592)" fill="none"/>
      <g id="Group_1560" data-name="Group 1560" transform="translate(20 350)">
        <g id="Group_1559" data-name="Group 1559">
          <path id="Path_16987" data-name="Path 16987" d="M107.245,389.694c-.291-.34-.6-.668-.908-.989l-3.579,3.58Z" transform="translate(-51.336 -364.655)" fill="none"/>
          <path id="Path_16988" data-name="Path 16988" d="M87.3,361.76l-8.129,8.13a27.432,27.432,0,1,0-38.8,38.789L31.748,417.3c-.073-.073-.159-.147-.245-.232a39.811,39.811,0,0,1-8.411-12.481A39.274,39.274,0,0,1,59.29,350c.158,0,.318.012.477.012a39.144,39.144,0,0,1,27.3,11.491C87.15,361.589,87.211,361.674,87.3,361.76Z" transform="translate(-20 -350)" fill="#fff034"/>
          <path id="Path_16989" data-name="Path 16989" d="M66.928,450.594a27.347,27.347,0,0,1-19.4-8.035l-8.618,8.617a39.31,39.31,0,0,0,60.043-5.948l-9.971-5.757A27.39,27.39,0,0,1,66.928,450.594Z" transform="translate(-27.161 -383.878)" fill="#fff034"/>
          <path id="Path_16990" data-name="Path 16990" d="M135.589,368.336l-.11,1.333-2.677,30.9-9.547-4.474a27.4,27.4,0,0,0-8.032-19.266l8.129-8.13a38.2,38.2,0,0,1,3.826,4.5l7.494-4.34Z" transform="translate(-56.056 -356.943)" fill="#fff034"/>
          <path id="Path_16991" data-name="Path 16991" d="M108.078,382.008l-4.161,4.161c.311.321.616.649.908.989l-4.487,2.59-3.972,2.293,1.143.535,18.6,8.7A27.346,27.346,0,0,0,108.078,382.008Z" transform="translate(-48.916 -362.12)" fill="#fff034"/>
          <path id="Path_16992" data-name="Path 16992" d="M44.9,396.507a21.889,21.889,0,0,1,37.619-15.235l4.161-4.161A27.431,27.431,0,1,0,47.885,415.9l3.688-3.688A21.824,21.824,0,0,1,44.9,396.507Z" transform="translate(-27.516 -357.222)" fill="#e9ea9d"/>
          <path id="Path_16993" data-name="Path 16993" d="M72.179,448.777a27.39,27.39,0,0,0,22.057-11.123L89.07,434.67a21.853,21.853,0,0,1-32.6,2.384l-3.688,3.688A27.347,27.347,0,0,0,72.179,448.777Z" transform="translate(-32.413 -382.06)" fill="#fdf4a9"/>
        </g>
        <path id="Path_16994" data-name="Path 16994" d="M59.767,350.012v17.4c-.159,0-.318-.024-.477-.024a21.9,21.9,0,0,0,0,43.8c.158,0,.318-.012.477-.012v17.383c-.159,0-.318.012-.477.012a39.047,39.047,0,0,1-15.305-3.093,38.4,38.4,0,0,1-7.518-4.217,39.127,39.127,0,0,1-4.719-3.961c-.073-.073-.159-.147-.245-.232a39.811,39.811,0,0,1-8.411-12.481A39.274,39.274,0,0,1,59.29,350C59.449,350,59.608,350.012,59.767,350.012Z" transform="translate(-20 -350)" fill="#fff" opacity="0.1"/>
      </g>
    </g>
  </g>
</svg>
