<svg xmlns="http://www.w3.org/2000/svg" width="313.06" height="26.425" viewBox="0 0 313.06 26.425">
  <g id="Group_2085" data-name="Group 2085" transform="translate(-433.741 -17.457)">
    <g id="Group_8" data-name="Group 8" transform="translate(-854.5 -1)">
      <path id="Path_17150" data-name="Path 17150" d="M19.313-10.084H13.38v-3.2h5.933ZM4.492-8.619c.024-.855.024-1.636.024-2.368v-.659H6.665v3.028Zm2.173-8.594v2.93H4.517v-2.93ZM20.143-.83c-.317,0-.366-.073-.366-.83V-7.544h2.49v-8.277H20.045c.635-1.148,1.294-2.539,1.9-3.882l-3.028-.952a28.611,28.611,0,0,1-1.953,4.834H14.381l1.416-.61a16.592,16.592,0,0,0-2.149-4.175l-2.49,1.025a17.081,17.081,0,0,1,1.807,3.76H10.548v8.277h2.271c-.244,3.1-.732,5.591-3.638,7.154A6.867,6.867,0,0,0,9.2-1.123v-18.7H2.051v8.838c0,3.54-.1,8.448-1.416,11.793a9.687,9.687,0,0,1,2.246,1.27A30.141,30.141,0,0,0,4.37-5.933h2.3v4.761c0,.293-.1.391-.366.391s-1,0-1.758-.024a8.978,8.978,0,0,1,.708,2.661,5.558,5.558,0,0,0,3.076-.537A1.633,1.633,0,0,0,9.083.22,7.01,7.01,0,0,1,10.45,2.149C14.478.1,15.357-3.3,15.675-7.544h1.318v5.909c0,2.564.464,3.418,2.637,3.418h1.636c1.733,0,2.417-.952,2.661-4.395a7.865,7.865,0,0,1-2.466-1.123C21.412-1.2,21.315-.83,20.949-.83ZM38.5-1.1c-1.611,0-1.856-.2-1.856-1.563V-4.785L47.342-6.177l-.391-2.735-10.3,1.318v-2.735l9.18-1.27-.415-2.71-8.765,1.172v-2.881a59.652,59.652,0,0,0,8.3-2.271l-2.417-2.368c-3.98,1.587-10.6,2.93-16.651,3.711a8.942,8.942,0,0,1,.879,2.539c2.222-.269,4.566-.61,6.861-1.025v2.71l-7.129.928.415,2.783,6.714-.9V-7.2l-7.935.977.391,2.808,7.544-.977v1.734c0,3.443,1,4.419,4.615,4.419h5.371c3.15,0,4.029-1.221,4.468-4.859a9.987,9.987,0,0,1-2.832-1.2c-.171,2.661-.439,3.2-1.88,3.2ZM65.409-15.333l-.024-1.758a20.883,20.883,0,0,1,.146-2.466H62.064c.122.855.2,1.758.244,2.466q.037.806.073,1.758H54.3a23.372,23.372,0,0,1-2.71-.171v3.247c.855-.049,1.9-.1,2.783-.1h6.665A29.4,29.4,0,0,1,50.3-3.882l2.246,2.539A33.574,33.574,0,0,0,62.5-9.6c.049,2.515.049,4.956.049,6.592,0,.708-.244,1.025-.855,1.025a20.738,20.738,0,0,1-3.247-.293L58.719.9c1.392.1,2.759.146,4.248.146,1.856,0,2.759-.9,2.735-2.466-.049-3.3-.146-7.373-.22-10.938h3.15c.659,0,1.587.049,2.368.073v-3.247a18.875,18.875,0,0,1-2.539.2Zm26.2-2.71a8.815,8.815,0,0,1-2.539.317H80.474a27.277,27.277,0,0,1-2.881-.171v3.467c.513-.024,1.856-.171,2.881-.171H88.75a18.918,18.918,0,0,1-3.638,5.982A27.661,27.661,0,0,1,75.1-1.611l2.515,2.637A32.161,32.161,0,0,0,86.8-5.835a55.676,55.676,0,0,1,6.153,6.91l2.783-2.417a68.637,68.637,0,0,0-6.812-6.983,35.9,35.9,0,0,0,3.833-6.714,11.535,11.535,0,0,1,.855-1.514Zm24.416,0a8.815,8.815,0,0,1-2.539.317h-8.594a27.277,27.277,0,0,1-2.881-.171v3.467c.513-.024,1.856-.171,2.881-.171h8.277a18.918,18.918,0,0,1-3.638,5.982,27.661,27.661,0,0,1-10.01,7.007l2.515,2.637a32.161,32.161,0,0,0,9.18-6.861,55.676,55.676,0,0,1,6.153,6.91l2.783-2.417a68.637,68.637,0,0,0-6.812-6.983,35.9,35.9,0,0,0,3.833-6.714,11.535,11.535,0,0,1,.855-1.514Zm22.951-1.2a17.862,17.862,0,0,1-.586,2.246,26.615,26.615,0,0,1-2.686,5.786c-1.978-1.465-4.492-3.174-6.446-4.395l-2.1,2.515A63.316,63.316,0,0,1,133.7-8.472a26.641,26.641,0,0,1-9.278,7.2l2.808,2.515A30.522,30.522,0,0,0,136.312-6.3a48.72,48.72,0,0,1,5.4,5.371l2.515-2.808a63.207,63.207,0,0,0-5.811-5.371,34.82,34.82,0,0,0,3.3-6.641,19.307,19.307,0,0,1,1-2.173Zm14.478,8.619h4.834v-2.832h-4.834v-6.958h-3.028V-1.953c-1.123.22-2.149.415-3.052.562l.806,2.979c3-.635,6.983-1.514,10.67-2.368l-.269-2.857c-1.685.366-3.443.757-5.127,1.1Zm10.3,9.546c-.928,0-1.05-.2-1.05-1.587v-7.08a61.594,61.594,0,0,0,7.056-3.1l-2-2.539A36.6,36.6,0,0,1,162.7-12.55v-7.862h-3V-2.686c0,3.467.781,4.444,3.613,4.444h3.369c2.612,0,3.369-1.587,3.662-5.713a8.865,8.865,0,0,1-2.71-1.27c-.171,3.321-.317,4.151-1.221,4.151ZM179.5-11.085H177.94v-1.441H179.5Zm0,3.345H177.94V-9.18H179.5ZM174.5-9.18h1.489V-7.74H174.5Zm0-3.345h1.489v1.441H174.5Zm20.192,2.1a28.835,28.835,0,0,0-3-4.834h2.661V-17.9h-4.566V-20.68H186.9V-17.9h-4.639v2.637h9.009l-2,.977a28.061,28.061,0,0,1,2.612,4.248l-2.026-.464a16.786,16.786,0,0,1-1.563,4.322,18.3,18.3,0,0,1-1.758-4.273l-1.782.415a16.715,16.715,0,0,0,2.539-4.468l-2.686-.684a11.586,11.586,0,0,1-2.93,4.468v-3.833h-3.394v-1.27h3.589v-2.515h-3.589v-2.319H175.67v2.319h-3.711v2.515h3.711v1.27H172.4v8.814h3.272v1.465h-3.955v2.539h3.955V2.124h2.612V-1.734h4.1V-4.273h-4.1V-5.738h3.394V-10.3a17.372,17.372,0,0,1,1.978,1.489c.171-.171.342-.342.513-.537a26.451,26.451,0,0,0,2.417,5.591,13.553,13.553,0,0,1-5.469,3.687A11.235,11.235,0,0,1,182.9,2.2a15.811,15.811,0,0,0,5.371-3.638,14.22,14.22,0,0,0,4.688,3.589,11.391,11.391,0,0,1,1.856-2.319,12.529,12.529,0,0,1-4.785-3.516A19.863,19.863,0,0,0,192.345-9.2ZM199.279.342A2.249,2.249,0,0,0,201.526-2a2.249,2.249,0,0,0-2.246-2.344A2.244,2.244,0,0,0,197.058-2,2.244,2.244,0,0,0,199.279.342ZM211,.342a6.783,6.783,0,0,0,4.468-1.66l-1.416-2.368a4.246,4.246,0,0,1-2.661,1.1c-1.978,0-3.394-1.66-3.394-4.224,0-2.588,1.416-4.273,3.491-4.273a3.121,3.121,0,0,1,2.1.9L215.3-12.5a5.977,5.977,0,0,0-3.98-1.514,6.827,6.827,0,0,0-6.983,7.2C204.333-2.3,207.214.342,211,.342Zm12.037,0c3.418,0,6.568-2.637,6.568-7.154,0-4.566-3.15-7.2-6.568-7.2s-6.568,2.637-6.568,7.2C216.468-2.3,219.618.342,223.036.342Zm0-2.93c-1.856,0-2.905-1.66-2.905-4.224,0-2.588,1.05-4.273,2.905-4.273s2.905,1.685,2.905,4.273C225.941-4.248,224.891-2.588,223.036-2.588ZM232.607,0h3.565V-9.4a3.989,3.989,0,0,1,2.637-1.538c1.294,0,1.9.757,1.9,2.857V0H244.3V-9.4a3.989,3.989,0,0,1,2.637-1.538c1.294,0,1.9.757,1.9,2.857V0h3.589V-8.521c0-3.443-1.343-5.493-4.248-5.493-1.782,0-3.1,1.074-4.346,2.393a3.722,3.722,0,0,0-3.76-2.393,5.757,5.757,0,0,0-4.2,2.173h-.1l-.244-1.831h-2.93Z" transform="translate(1318 41.486)" fill="#fff"/>
    </g>
    <g id="Group_1379" data-name="Group 1379" transform="translate(433.741 17.457)">
      <line id="Line_339" data-name="Line 339" x2="22.06" transform="translate(0 13.212)" fill="none" stroke="#fff" stroke-miterlimit="10" stroke-width="1.532"/>
      <line id="Line_340" data-name="Line 340" y1="26.425" transform="translate(11.03 0)" fill="none" stroke="#fff" stroke-miterlimit="10" stroke-width="1.532"/>
      <line id="Line_341" data-name="Line 341" y1="13.476" x2="11.25" transform="translate(5.405 6.475)" fill="none" stroke="#fff" stroke-miterlimit="10" stroke-width="1.532"/>
      <line id="Line_342" data-name="Line 342" x1="11.25" y1="13.476" transform="translate(5.405 6.475)" fill="none" stroke="#fff" stroke-miterlimit="10" stroke-width="1.532"/>
    </g>
    <g id="Group_1380" data-name="Group 1380" transform="translate(724.741 17.457)">
      <line id="Line_339-2" data-name="Line 339" x2="22.06" transform="translate(0 13.212)" fill="none" stroke="#fff" stroke-miterlimit="10" stroke-width="1.532"/>
      <line id="Line_340-2" data-name="Line 340" y1="26.425" transform="translate(11.03 0)" fill="none" stroke="#fff" stroke-miterlimit="10" stroke-width="1.532"/>
      <line id="Line_341-2" data-name="Line 341" y1="13.476" x2="11.25" transform="translate(5.405 6.475)" fill="none" stroke="#fff" stroke-miterlimit="10" stroke-width="1.532"/>
      <line id="Line_342-2" data-name="Line 342" x1="11.25" y1="13.476" transform="translate(5.405 6.475)" fill="none" stroke="#fff" stroke-miterlimit="10" stroke-width="1.532"/>
    </g>
  </g>
</svg>
