<svg xmlns="http://www.w3.org/2000/svg" xmlns:xlink="http://www.w3.org/1999/xlink" width="113.942" height="129.024" viewBox="0 0 113.942 129.024">
  <defs>
    <linearGradient id="linear-gradient" x1="-24.767" y1="22.913" x2="-23.885" y2="22.913" gradientUnits="objectBoundingBox">
      <stop offset="0" stop-color="#daa31e"/>
      <stop offset="0.26" stop-color="#ffdf41"/>
      <stop offset="0.438" stop-color="#e3aa22"/>
      <stop offset="0.5" stop-color="#dfab22"/>
      <stop offset="0.563" stop-color="#e3aa22"/>
      <stop offset="0.74" stop-color="#ffdf41"/>
      <stop offset="1" stop-color="#daa31e"/>
    </linearGradient>
    <linearGradient id="linear-gradient-2" x1="-7.181" y1="1.471" x2="-6.298" y2="1.471" xlink:href="#linear-gradient"/>
    <radialGradient id="radial-gradient" cx="0.758" cy="0.5" r="0.5" gradientTransform="matrix(1, 0, 0, -1, 0, 36.882)" gradientUnits="objectBoundingBox">
      <stop offset="0" stop-color="#fff458"/>
      <stop offset="1" stop-color="#e3aa22"/>
    </radialGradient>
    <radialGradient id="radial-gradient-2" cx="0.758" cy="0.5" r="0.5" gradientTransform="matrix(1, 0, 0, -1, -0.004, 39.887)" xlink:href="#radial-gradient"/>
    <radialGradient id="radial-gradient-3" cx="0.758" cy="0.5" r="0.5" xlink:href="#radial-gradient"/>
    <radialGradient id="radial-gradient-4" cx="0.758" cy="0.5" r="0.5" gradientTransform="matrix(1, 0, 0, -1, 0, 79.328)" xlink:href="#radial-gradient"/>
    <radialGradient id="radial-gradient-5" cx="0.758" cy="0.5" r="0.5" gradientTransform="matrix(1, 0, 0, -1, 0, 79.328)" xlink:href="#radial-gradient"/>
    <linearGradient id="linear-gradient-3" x1="-13.838" y1="5.797" x2="-13.387" y2="5.813" gradientUnits="objectBoundingBox">
      <stop offset="0" stop-color="#d8d2be"/>
      <stop offset="1" stop-color="#fff"/>
    </linearGradient>
    <linearGradient id="linear-gradient-4" x1="-10.703" y1="3.577" x2="-9.88" y2="3.577" xlink:href="#linear-gradient"/>
    <linearGradient id="linear-gradient-5" x1="-12.505" y1="5.319" x2="-11.566" y2="5.319" xlink:href="#linear-gradient"/>
    <linearGradient id="linear-gradient-6" x1="-22.724" y1="83.319" x2="-19.165" y2="83.319" xlink:href="#linear-gradient"/>
    <linearGradient id="linear-gradient-7" x1="-25.359" y1="85.436" x2="-21.853" y2="85.436" xlink:href="#linear-gradient"/>
  </defs>
  <g id="Group_2087" data-name="Group 2087" transform="translate(-180.634 -826.378)">
    <g id="Group_1504" data-name="Group 1504" transform="translate(180.634 826.378)">
      <g id="g32683" transform="translate(0 0)">
        <g id="g32642" transform="translate(23.75)">
          <path id="path8196-1" d="M242.941,185.867l-.833.288c1.724,8.61.963,15.238-1.839,19.031l15.838-5.454C251.564,198.469,246.883,193.714,242.941,185.867Zm30.673,0c-3.942,7.847-8.621,12.6-13.164,13.865l15.838,5.454c-2.8-3.793-3.563-10.421-1.839-19.031Z" transform="translate(-225.058 -171.874)" fill="url(#linear-gradient)"/>
          <path id="path8198-6" d="M227.162,154.95c-1.343,9.964-4.919,16.413-9.684,18.347a9.931,9.931,0,0,1-8.113-.534c-3.021-1.389-6.334-4.068-9.8-8.2l-.72.515a72.907,72.907,0,0,1,3.859,7.64c1.931,4.434,3.85,10.095,3.85,14.9v.444h42.108v-.444c0-4.808,1.919-10.469,3.85-14.9a72.91,72.91,0,0,1,3.859-7.64l-.72-.515c-3.471,4.132-6.784,6.811-9.805,8.2a9.931,9.931,0,0,1-8.113.534c-4.765-1.934-8.341-8.384-9.684-18.347Z" transform="translate(-194.382 -148.982)" fill="url(#linear-gradient-2)"/>
          <path id="path8200-8" d="M188.429,174.484a3.382,3.382,0,1,1-3.382-3.382A3.382,3.382,0,0,1,188.429,174.484Z" transform="translate(-181.665 -160.941)" fill="url(#radial-gradient)"/>
          <path id="path30933" d="M303.387,135.338a3.382,3.382,0,1,1-3.382-3.382A3.382,3.382,0,0,1,303.387,135.338Z" transform="translate(-266.784 -131.956)" fill="url(#radial-gradient-2)"/>
          <path id="path30937" d="M418.344,174.484a3.382,3.382,0,1,1-3.382-3.382A3.382,3.382,0,0,1,418.344,174.484Z" transform="translate(-351.903 -160.941)" fill="url(#radial-gradient-3)"/>
          <path id="path30941" d="M368.6,175.265a1.985,1.985,0,0,1-1.985,1.985h0a1.985,1.985,0,0,1-1.985-1.985h0a1.985,1.985,0,0,1,1.985-1.985h0a1.985,1.985,0,0,1,1.985,1.985Z" transform="translate(-317.138 -162.554)" fill="url(#radial-gradient-4)"/>
          <path id="path30945" d="M243.352,175.265a1.985,1.985,0,0,1-1.985,1.985h0a1.985,1.985,0,0,1-1.985-1.985h0a1.985,1.985,0,0,1,1.985-1.985h0a1.985,1.985,0,0,1,1.985,1.985Z" transform="translate(-224.401 -162.554)" fill="url(#radial-gradient-5)"/>
        </g>
        <g id="g32591" transform="translate(0 15.082)">
          <circle id="circle32567" cx="40.285" cy="40.285" r="40.285" transform="translate(0 56.971) rotate(-45)" fill="url(#linear-gradient-3)"/>
          <path id="path32569" d="M192.49,251.315a41.072,41.072,0,1,0,41.072,41.072A41.093,41.093,0,0,0,192.49,251.315Zm0,2.833a38.239,38.239,0,1,1-38.239,38.239A38.218,38.218,0,0,1,192.49,254.148Z" transform="translate(-135.519 -235.416)" fill="url(#linear-gradient-4)"/>
          <path id="path32571" d="M181.65,281.547a35.965,35.965,0,1,0,50.862,0,35.983,35.983,0,0,0-50.862,0ZM183.4,283.3a33.484,33.484,0,1,1,0,47.354A33.465,33.465,0,0,1,183.4,283.3Z" transform="translate(-150.109 -250.007)" fill="url(#linear-gradient-5)"/>
          <g id="g32589" transform="translate(30.278 36.521)">
            <g id="g32587" transform="translate(0 22.478)">
              <path id="path32583" d="M209.695,419.79l-.441.5a11.82,11.82,0,0,1-1.543,1.488,3.627,3.627,0,0,1-.551.441q-.661.551-.055-.5a9.532,9.532,0,0,0,1.047-1.764,17.3,17.3,0,0,0,.882-2.426l1.489.662q.386.331.055.606l-.331.165a2.566,2.566,0,0,1-.386.5h1.433l.772-1.158,1.268,1.1q.331.331-.11.441H210.3q.937.441,1.1.937a.728.728,0,0,1-.11.772.749.749,0,0,1-.772.331q-.551-.11-.5-.992a1.558,1.558,0,0,0-.276-1.1Zm2.811,7.773a13.964,13.964,0,0,1-1.819,1.268,14.653,14.653,0,0,1-2.26,1.158q-.606.221-1.1.386-.551.11-.22-.276l.331-.165a10.667,10.667,0,0,0,2.095-1.433,11.1,11.1,0,0,0,2.315-2.646h-2.37a4.389,4.389,0,0,1-.5,1.268.938.938,0,0,1-1.323-.551l.386-1.543q.276-1.1.5-2.205l1.654.882h2.26v-1.323h-4.631l-.165-.386h9.04l.5-.827,1.378,1.268q.331.276-.11.551l-.22.11v1.378q0,.22-.386.331a5.85,5.85,0,0,0-.606.055q-.551.055-.551-.276v-.5H214.05v1.378h4.024l.551-.937,1.213,1.378q.386.5-.11.661l-.165.055a4.6,4.6,0,0,1-1.378,2.591q-.772.607-1.268.441a.26.26,0,0,1-.221-.275V429q0-.11-.276-.276a3.614,3.614,0,0,1-.386-.22l-.772-.441q-.386-.331-.055-.331l.551.11q.331.055.827.11a1.141,1.141,0,0,0,.772-.11,3.889,3.889,0,0,0,.827-1.984H214.05v4.079q0,.386-.441.441l-.441.055q-.386.055-.441.055-.22,0-.22-.386Zm-2.977-2.095h2.977V424.09H209.86Zm4.465-3.087V423.7h2.7v-1.323Zm.827-2.536a11.327,11.327,0,0,1-2.426,1.874q-.386.221-.331-.055.331-.441.661-.827a10.624,10.624,0,0,0,1.764-3.473l1.488.772q.551.33-.165.661l-.276.11-.441.551h2.481l.882-1.323,1.433,1.213q.386.386-.165.5h-3.969q1.1.5,1.1,1.268a.737.737,0,0,1-.661.827q-.662.111-.772-.5-.221-1.213-.276-1.378a.531.531,0,0,0-.276-.221Z" transform="translate(-206.814 -417.365)" fill="url(#linear-gradient-6)"/>
              <path id="path32585" d="M362.535,424.813q-.165.22-.717.937a4.941,4.941,0,0,1-.937.992q-.386.11.165-.827a19.525,19.525,0,0,0,1.6-4.024,32.5,32.5,0,0,0,.827-3.252l1.764.662q.331.276.055.551l-.551.276q-.5,1.268-.827,2.095l.386.276q.276.166-.055.441l-.165.11v7.828q0,.551-1.213.551a.292.292,0,0,1-.331-.331Zm1.874,5.512h4.63q.827-3.032,1.1-4.686.165-1.158.386-3.2l1.819.772q.551.441.11.661l-.386.11a22.443,22.443,0,0,1-1.047,3.142q-.662,1.654-1.378,3.2h1.984l.992-1.323L374,430.215q.386.386-.165.5h-9.261Zm7.993-9.812,1.268,1.157q.386.386-.11.5h-8.93l-.165-.386h3.693v-3.087l1.819.166q.551.165.11.606l-.386.22v2.095h1.709Zm-6.891,2.48q-.11-.606.606.166a7.268,7.268,0,0,1,2.04,4.851,1.44,1.44,0,0,1-.5,1.213q-.717.5-1.047-.22a1.889,1.889,0,0,1-.11-.772v-.882a11.785,11.785,0,0,0-.386-2.811,8.942,8.942,0,0,0-.606-1.544Z" transform="translate(-320.774 -418.308)" fill="url(#linear-gradient-7)"/>
            </g>
          </g>
        </g>
      </g>
    </g>
  </g>
</svg>
