<svg id="Group_1505" data-name="Group 1505" xmlns="http://www.w3.org/2000/svg" xmlns:xlink="http://www.w3.org/1999/xlink" width="111.882" height="126.691" viewBox="0 0 111.882 126.691">
  <defs>
    <linearGradient id="linear-gradient" x1="-28.301" y1="22.913" x2="-27.418" y2="22.913" gradientUnits="objectBoundingBox">
      <stop offset="0" stop-color="#b2a16a"/>
      <stop offset="0.26" stop-color="#f4efe1"/>
      <stop offset="0.438" stop-color="#c8bb92"/>
      <stop offset="0.5" stop-color="#c8bb92"/>
      <stop offset="0.563" stop-color="#c8bb92"/>
      <stop offset="0.74" stop-color="#f4efe1"/>
      <stop offset="1" stop-color="#b2a16a"/>
    </linearGradient>
    <linearGradient id="linear-gradient-2" x1="-9.393" y1="1.471" x2="-8.511" y2="1.471" xlink:href="#linear-gradient"/>
    <radialGradient id="radial-gradient" cx="0.758" cy="0.5" r="0.5" gradientTransform="matrix(1, 0, 0, -1, 0, 36.882)" gradientUnits="objectBoundingBox">
      <stop offset="0" stop-color="#f4efe1"/>
      <stop offset="1" stop-color="#bbaf89"/>
    </radialGradient>
    <radialGradient id="radial-gradient-2" cx="0.758" cy="0.5" r="0.5" gradientTransform="matrix(1, 0, 0, -1, -0.005, 39.887)" xlink:href="#radial-gradient"/>
    <radialGradient id="radial-gradient-3" cx="0.758" cy="0.5" r="0.5" xlink:href="#radial-gradient"/>
    <radialGradient id="radial-gradient-4" cx="0.758" cy="0.5" r="0.5" gradientTransform="matrix(1, 0, 0, -1, -0.016, 79.333)" xlink:href="#radial-gradient"/>
    <radialGradient id="radial-gradient-5" cx="0.758" cy="0.5" r="0.5" gradientTransform="matrix(1, 0, 0, -1, -0.016, 79.333)" xlink:href="#radial-gradient"/>
    <linearGradient id="linear-gradient-3" x1="-15.417" y1="5.797" x2="-14.967" y2="5.813" gradientUnits="objectBoundingBox">
      <stop offset="0" stop-color="#d8d2be"/>
      <stop offset="1" stop-color="#fff"/>
    </linearGradient>
    <linearGradient id="linear-gradient-4" x1="-12.252" y1="3.577" x2="-11.43" y2="3.577" xlink:href="#linear-gradient"/>
    <linearGradient id="linear-gradient-5" x1="-14.275" y1="5.319" x2="-13.335" y2="5.319" xlink:href="#linear-gradient"/>
    <linearGradient id="linear-gradient-6" x1="-32.339" y1="83.319" x2="-28.779" y2="83.319" xlink:href="#linear-gradient"/>
    <linearGradient id="linear-gradient-7" x1="-34.831" y1="85.436" x2="-31.325" y2="85.436" xlink:href="#linear-gradient"/>
  </defs>
  <g id="g32707" transform="translate(0 0)">
    <g id="g32651" transform="translate(23.321)">
      <path id="path30802" d="M733.24,185.867l-.818.283c1.693,8.454.945,14.962-1.806,18.687l15.552-5.355C741.707,198.241,737.111,193.572,733.24,185.867Zm30.118,0c-3.871,7.7-8.465,12.374-12.926,13.615l15.552,5.355c-2.751-3.724-3.5-10.232-1.806-18.687Z" transform="translate(-715.68 -172.127)" fill="url(#linear-gradient)"/>
      <path id="path30804" d="M717,154.95c-1.319,9.783-4.83,16.116-9.509,18.015a9.751,9.751,0,0,1-7.967-.525c-2.966-1.364-6.22-3.994-9.628-8.052l-.707.506a71.61,71.61,0,0,1,3.789,7.5c1.9,4.354,3.781,9.912,3.781,14.633v.436H738.1v-.436c0-4.721,1.884-10.279,3.781-14.633a71.589,71.589,0,0,1,3.789-7.5l-.707-.506c-3.408,4.057-6.662,6.688-9.628,8.052a9.751,9.751,0,0,1-7.967.525c-4.679-1.9-8.19-8.232-9.509-18.015Z" transform="translate(-684.81 -149.09)" fill="url(#linear-gradient-2)"/>
      <path id="path30806" d="M678.654,174.423a3.321,3.321,0,1,1-3.321-3.321A3.321,3.321,0,0,1,678.654,174.423Z" transform="translate(-672.012 -161.125)" fill="url(#radial-gradient)"/>
      <path id="path30899" d="M793.612,135.277a3.321,3.321,0,1,1-3.321-3.321A3.321,3.321,0,0,1,793.612,135.277Z" transform="translate(-757.671 -131.956)" fill="url(#radial-gradient-2)"/>
      <path id="path30903" d="M908.569,174.423a3.321,3.321,0,1,1-3.321-3.321A3.321,3.321,0,0,1,908.569,174.423Z" transform="translate(-843.329 -161.125)" fill="url(#radial-gradient-3)"/>
      <path id="path30907" d="M858.874,175.229a1.949,1.949,0,1,1-1.95-1.949A1.949,1.949,0,0,1,858.874,175.229Z" transform="translate(-808.344 -162.748)" fill="url(#radial-gradient-4)"/>
      <path id="path30911" d="M733.628,175.229a1.949,1.949,0,1,1-1.949-1.949A1.949,1.949,0,0,1,733.628,175.229Z" transform="translate(-715.019 -162.748)" fill="url(#radial-gradient-5)"/>
    </g>
    <g id="g32565" transform="translate(0 14.809)">
      <g id="g32549" transform="translate(0 0)">
        <circle id="circle32539" cx="39.556" cy="39.556" r="39.556" transform="translate(0 55.941) rotate(-45)" fill="url(#linear-gradient-3)"/>
        <path id="path32541" d="M682.094,251.315a40.329,40.329,0,1,0,40.329,40.329A40.35,40.35,0,0,0,682.094,251.315Zm0,2.781a37.548,37.548,0,1,1-37.548,37.548A37.527,37.527,0,0,1,682.094,254.1Z" transform="translate(-626.153 -235.703)" fill="url(#linear-gradient-4)"/>
        <path id="path32543" d="M671.806,281.356a35.314,35.314,0,1,0,49.942,0,35.333,35.333,0,0,0-49.942,0Zm1.722,1.722a32.879,32.879,0,1,1,0,46.5A32.861,32.861,0,0,1,673.528,283.079Z" transform="translate(-640.836 -250.387)" fill="url(#linear-gradient-5)"/>
      </g>
      <g id="g32563" transform="translate(29.731 36.678)">
        <g id="g32561" transform="translate(0 21.254)">
          <path id="path32557" d="M699.99,419.746l-.433.487a11.577,11.577,0,0,1-1.516,1.461,3.525,3.525,0,0,1-.541.433q-.649.541-.054-.487a9.393,9.393,0,0,0,1.028-1.732,16.991,16.991,0,0,0,.866-2.382l1.462.65q.379.325.054.6l-.325.162a2.516,2.516,0,0,1-.379.487h1.407l.758-1.137,1.245,1.083q.324.325-.108.433h-2.869q.92.433,1.083.92a.715.715,0,0,1-.108.758.735.735,0,0,1-.758.325q-.541-.108-.487-.974a1.53,1.53,0,0,0-.27-1.083Zm2.76,7.632a13.69,13.69,0,0,1-1.786,1.245,14.39,14.39,0,0,1-2.219,1.137q-.6.217-1.083.379-.541.108-.216-.271l.325-.162a10.466,10.466,0,0,0,2.057-1.407,10.9,10.9,0,0,0,2.273-2.6h-2.328a4.313,4.313,0,0,1-.487,1.245.921.921,0,0,1-1.3-.541l.379-1.515q.271-1.083.487-2.165l1.624.866H702.7v-1.3H698.15l-.163-.379h8.877l.487-.812,1.353,1.245q.325.271-.108.541l-.217.108v1.353q0,.216-.379.325a5.754,5.754,0,0,0-.6.054q-.541.054-.541-.271v-.487h-2.6v1.353h3.951l.542-.92,1.191,1.353q.379.487-.108.649l-.162.054A4.521,4.521,0,0,1,708.326,429q-.758.6-1.245.433a.256.256,0,0,1-.216-.27v-.379q0-.108-.271-.271a3.537,3.537,0,0,1-.379-.216l-.758-.433q-.379-.325-.054-.325l.541.108q.325.054.812.108a1.12,1.12,0,0,0,.758-.108,3.817,3.817,0,0,0,.812-1.948h-4.06v4.005q0,.379-.433.433l-.433.054q-.379.054-.433.054-.217,0-.217-.379Zm-2.923-2.057h2.923v-1.353h-2.6Zm4.384-3.031v1.3h2.652v-1.3Zm.812-2.49a11.119,11.119,0,0,1-2.381,1.84q-.379.217-.325-.054.325-.433.65-.812a10.435,10.435,0,0,0,1.732-3.41l1.461.758q.541.324-.162.649l-.271.108-.433.541h2.436l.866-1.3L710,419.313q.379.379-.162.487h-3.9q1.083.487,1.083,1.245a.724.724,0,0,1-.65.812q-.649.109-.758-.487-.216-1.191-.271-1.353a.522.522,0,0,0-.271-.217Z" transform="translate(-697.161 -417.365)" fill="url(#linear-gradient-6)"/>
          <path id="path32559" d="M852.849,424.7q-.162.216-.7.92a4.849,4.849,0,0,1-.92.974q-.379.108.162-.812a19.183,19.183,0,0,0,1.57-3.951,32.053,32.053,0,0,0,.812-3.194l1.732.65q.325.271.054.541l-.541.271q-.487,1.245-.812,2.057l.379.271q.271.162-.054.433l-.162.108v7.686q0,.541-1.191.541a.287.287,0,0,1-.325-.325Zm1.841,5.413h4.547q.812-2.977,1.083-4.6.162-1.136.379-3.139l1.786.758q.541.433.108.649l-.379.108a22.086,22.086,0,0,1-1.029,3.085q-.649,1.624-1.353,3.14h1.949l.974-1.3,1.353,1.191q.379.379-.162.487h-9.094Zm7.848-9.635,1.245,1.136q.379.379-.108.487h-8.769l-.162-.379h3.627v-3.031l1.786.163q.541.162.108.6l-.379.216v2.057h1.678Zm-6.766,2.435q-.108-.6.6.163a7.138,7.138,0,0,1,2,4.763,1.415,1.415,0,0,1-.487,1.191q-.7.487-1.028-.216a1.86,1.86,0,0,1-.108-.758v-.866a11.584,11.584,0,0,0-.379-2.76,8.807,8.807,0,0,0-.6-1.516Z" transform="translate(-811.843 -418.314)" fill="url(#linear-gradient-7)"/>
        </g>
      </g>
    </g>
  </g>
</svg>
