<svg id="Group_1506" data-name="Group 1506" xmlns="http://www.w3.org/2000/svg" xmlns:xlink="http://www.w3.org/1999/xlink" width="116.724" height="132.174" viewBox="0 0 116.724 132.174">
  <defs>
    <linearGradient id="linear-gradient" x1="-31.834" y1="22.913" x2="-30.952" y2="22.913" gradientUnits="objectBoundingBox">
      <stop offset="0" stop-color="#d76902"/>
      <stop offset="0.26" stop-color="#f7bd78"/>
      <stop offset="0.438" stop-color="#e48b2f"/>
      <stop offset="0.5" stop-color="#e48b2f"/>
      <stop offset="0.563" stop-color="#e48b2f"/>
      <stop offset="0.74" stop-color="#f7bd78"/>
      <stop offset="1" stop-color="#d76902"/>
    </linearGradient>
    <linearGradient id="linear-gradient-2" x1="-11.606" y1="1.471" x2="-10.723" y2="1.471" xlink:href="#linear-gradient"/>
    <radialGradient id="radial-gradient" cx="0.758" cy="0.5" r="0.5" gradientTransform="matrix(1, 0, 0, -1, 0, 36.882)" gradientUnits="objectBoundingBox">
      <stop offset="0" stop-color="#f7bd78"/>
      <stop offset="1" stop-color="#d76902"/>
    </radialGradient>
    <radialGradient id="radial-gradient-2" cx="0.758" cy="0.5" r="0.5" gradientTransform="matrix(1, 0, 0, -1, -0.006, 39.887)" xlink:href="#radial-gradient"/>
    <radialGradient id="radial-gradient-3" cx="0.758" cy="0.5" r="0.5" xlink:href="#radial-gradient"/>
    <radialGradient id="radial-gradient-4" cx="0.758" cy="0.5" r="0.5" gradientTransform="matrix(1, 0, 0, -1, -0.018, 79.328)" xlink:href="#radial-gradient"/>
    <radialGradient id="radial-gradient-5" cx="0.758" cy="0.5" r="0.5" gradientTransform="matrix(1, 0, 0, -1, -0.018, 79.328)" xlink:href="#radial-gradient"/>
    <linearGradient id="linear-gradient-3" x1="-16.997" y1="5.797" x2="-16.546" y2="5.813" gradientUnits="objectBoundingBox">
      <stop offset="0" stop-color="#d8d2be"/>
      <stop offset="1" stop-color="#fff"/>
    </linearGradient>
    <linearGradient id="linear-gradient-4" x1="-13.802" y1="3.577" x2="-12.979" y2="3.577" xlink:href="#linear-gradient"/>
    <linearGradient id="linear-gradient-5" x1="-16.044" y1="5.319" x2="-15.105" y2="5.319" xlink:href="#linear-gradient"/>
    <linearGradient id="linear-gradient-6" x1="-41.953" y1="83.319" x2="-38.394" y2="83.319" xlink:href="#linear-gradient"/>
    <linearGradient id="linear-gradient-7" x1="-44.303" y1="85.436" x2="-40.796" y2="85.436" xlink:href="#linear-gradient"/>
  </defs>
  <g id="g32731" transform="translate(0 0)">
    <g id="g32660" transform="translate(24.33)">
      <path id="path30949" d="M1223.7,185.867l-.853.3c1.766,8.82.986,15.61-1.884,19.5l16.225-5.587C1232.534,198.776,1227.739,193.905,1223.7,185.867Zm31.422,0c-4.038,8.038-8.832,12.909-13.486,14.2l16.225,5.587c-2.87-3.885-3.65-10.675-1.884-19.5Z" transform="translate(-1205.38 -171.532)" fill="url(#linear-gradient)"/>
      <path id="path30951" d="M1208.548,154.95c-1.376,10.207-5.039,16.814-9.92,18.8a10.172,10.172,0,0,1-8.311-.547c-3.1-1.423-6.489-4.167-10.045-8.4l-.738.528a74.661,74.661,0,0,1,3.953,7.826c1.979,4.542,3.944,10.341,3.944,15.267v.455h43.136v-.455c0-4.925,1.966-10.724,3.944-15.267a74.661,74.661,0,0,1,3.953-7.826l-.738-.528c-3.555,4.233-6.95,6.978-10.045,8.4a10.173,10.173,0,0,1-8.311.547c-4.881-1.981-8.544-8.588-9.92-18.8Z" transform="translate(-1174.967 -148.836)" fill="url(#linear-gradient-2)"/>
      <path id="path30953" d="M1169.289,174.567a3.465,3.465,0,1,1-3.465-3.465A3.465,3.465,0,0,1,1169.289,174.567Z" transform="translate(-1162.359 -160.693)" fill="url(#radial-gradient)"/>
      <path id="path25569" d="M1284.246,135.421a3.465,3.465,0,1,1-3.465-3.465A3.465,3.465,0,0,1,1284.246,135.421Z" transform="translate(-1246.75 -131.956)" fill="url(#radial-gradient-2)"/>
      <path id="path25573" d="M1399.2,174.567a3.465,3.465,0,1,1-3.465-3.465A3.465,3.465,0,0,1,1399.2,174.567Z" transform="translate(-1331.14 -160.693)" fill="url(#radial-gradient-3)"/>
      <path id="path25577" d="M1349.389,175.314a2.034,2.034,0,0,1-4.067,0h0a2.034,2.034,0,0,1,2.034-2.034h0A2.034,2.034,0,0,1,1349.389,175.314Z" transform="translate(-1296.672 -162.292)" fill="url(#radial-gradient-4)"/>
      <path id="path25581" d="M1224.143,175.314a2.034,2.034,0,0,1-4.067,0h0a2.034,2.034,0,0,1,2.034-2.034h0A2.034,2.034,0,0,1,1224.143,175.314Z" transform="translate(-1204.729 -162.292)" fill="url(#radial-gradient-5)"/>
    </g>
    <g id="g32537" transform="translate(0 15.45)">
      <g id="g32521" transform="translate(0 0)">
        <circle id="circle32511" cx="41.268" cy="41.268" r="41.268" transform="translate(0 58.362) rotate(-45)" fill="url(#linear-gradient-3)"/>
        <path id="path32513" d="M1174.186,251.315a42.074,42.074,0,1,0,42.075,42.074A42.1,42.1,0,0,0,1174.186,251.315Zm0,2.9a39.173,39.173,0,1,1-39.172,39.173A39.151,39.151,0,0,1,1174.186,254.217Z" transform="translate(-1115.825 -235.027)" fill="url(#linear-gradient-4)"/>
        <path id="path32515" d="M1162.6,281.8a36.843,36.843,0,1,0,52.1,0,36.862,36.862,0,0,0-52.1,0Zm1.8,1.8a34.3,34.3,0,1,1,0,48.51A34.283,34.283,0,0,1,1164.4,283.6Z" transform="translate(-1130.29 -249.493)" fill="url(#linear-gradient-5)"/>
      </g>
      <g id="g32535" transform="translate(31.017 39.04)">
        <g id="g32533" transform="translate(0 21.4)">
          <path id="path32529" d="M1190.459,419.85l-.452.508a12.117,12.117,0,0,1-1.581,1.525,3.7,3.7,0,0,1-.565.452q-.677.565-.056-.508a9.8,9.8,0,0,0,1.073-1.807,17.752,17.752,0,0,0,.9-2.485l1.525.678q.4.339.056.621l-.339.169a2.622,2.622,0,0,1-.4.508h1.468l.791-1.186,1.3,1.13q.339.339-.113.452h-2.993q.96.452,1.129.96a.746.746,0,0,1-.113.791.767.767,0,0,1-.791.339q-.565-.113-.509-1.016a1.6,1.6,0,0,0-.282-1.13Zm2.88,7.962a14.278,14.278,0,0,1-1.863,1.3,15.024,15.024,0,0,1-2.315,1.186q-.621.226-1.13.4-.565.113-.226-.282l.339-.169a10.911,10.911,0,0,0,2.146-1.468,11.364,11.364,0,0,0,2.372-2.711h-2.428a4.5,4.5,0,0,1-.508,1.3.961.961,0,0,1-1.355-.565l.4-1.581q.283-1.129.508-2.259l1.694.9h2.315V422.5h-4.743l-.169-.4h9.261l.508-.847,1.412,1.3q.339.282-.113.565l-.226.113v1.412q0,.226-.4.339a6,6,0,0,0-.621.057q-.565.056-.565-.282v-.508h-2.71v1.412h4.122l.565-.96,1.242,1.412q.4.508-.113.677l-.169.057a4.715,4.715,0,0,1-1.412,2.654q-.791.621-1.3.452a.267.267,0,0,1-.226-.282v-.4q0-.113-.282-.282a3.726,3.726,0,0,1-.4-.226l-.791-.452q-.4-.339-.056-.339l.564.113q.339.057.847.113a1.169,1.169,0,0,0,.791-.113,3.986,3.986,0,0,0,.847-2.033h-4.235v4.179q0,.4-.452.452l-.452.057c-.263.038-.414.056-.452.056q-.226,0-.226-.4Zm-3.049-2.146h3.049v-1.412h-2.71Zm4.574-3.162v1.355h2.767V422.5Zm.847-2.6a11.6,11.6,0,0,1-2.485,1.92q-.4.226-.339-.056.339-.452.678-.847a10.887,10.887,0,0,0,1.807-3.557l1.525.791q.565.339-.169.677l-.282.113-.452.565h2.541l.9-1.355,1.468,1.242q.4.4-.169.508h-4.066q1.13.509,1.13,1.3a.756.756,0,0,1-.678.847q-.678.113-.791-.508-.226-1.242-.282-1.412a.545.545,0,0,0-.282-.226Z" transform="translate(-1187.508 -417.365)" fill="url(#linear-gradient-6)"/>
          <path id="path32531" d="M1343.274,424.964q-.169.226-.734.96a5.076,5.076,0,0,1-.96,1.017q-.4.113.169-.847a20,20,0,0,0,1.638-4.122,33.329,33.329,0,0,0,.847-3.332l1.807.678q.339.282.056.565l-.565.282q-.508,1.3-.847,2.146l.4.282q.282.17-.056.452l-.169.113v8.019q0,.565-1.243.565a.3.3,0,0,1-.339-.339Zm1.92,5.647h4.743q.847-3.106,1.13-4.8.169-1.186.4-3.275l1.864.791q.564.452.113.678l-.4.113a23.012,23.012,0,0,1-1.073,3.219q-.677,1.694-1.412,3.275h2.033l1.016-1.355,1.412,1.242q.4.4-.169.508h-9.487Zm8.188-10.051,1.3,1.186q.4.4-.113.508h-9.148l-.169-.4h3.784V418.7l1.864.17q.564.169.113.621l-.4.226v2.146h1.751Zm-7.059,2.541q-.113-.621.621.17a7.446,7.446,0,0,1,2.089,4.969,1.475,1.475,0,0,1-.508,1.242q-.734.508-1.073-.226a1.938,1.938,0,0,1-.113-.79v-.9a12.058,12.058,0,0,0-.4-2.88,9.15,9.15,0,0,0-.621-1.581Z" transform="translate(-1300.493 -418.3)" fill="url(#linear-gradient-7)"/>
        </g>
      </g>
    </g>
  </g>
</svg>
