<svg xmlns="http://www.w3.org/2000/svg" width="193.115" height="65.78" viewBox="0 0 193.115 65.78">
  <g id="Group_2089" data-name="Group 2089" transform="translate(-112.364 -4006.086)">
    <g id="Rectangle_758" data-name="Rectangle 758" transform="translate(136.503 4007.293)" fill="#fff" stroke="#9c304a" stroke-width="1">
      <rect width="168.976" height="63.969" stroke="none"/>
      <rect x="0.5" y="0.5" width="167.976" height="62.969" fill="none"/>
    </g>
    <path id="Path_17151" data-name="Path 17151" d="M-37.656-7.4c-.414.126-1.008.252-1.692.4-.864.162-2.466.432-4.212.72l-.63-3.294c1.62-.252,3.132-.486,3.924-.612.5-.072,1.116-.162,1.44-.2l-.342-1.89c-.36.108-.918.234-1.476.342-.7.144-2.232.4-3.87.666-.18-.936-.306-1.62-.342-1.836-.09-.4-.144-.954-.2-1.3l-2.016.324a10.253,10.253,0,0,1,.36,1.3c.054.252.18.9.36,1.8-1.638.252-3.132.468-3.8.54-.558.054-1.062.09-1.566.126l.378,1.98c.468-.108.936-.216,1.548-.324.63-.108,2.124-.36,3.78-.63l.63,3.312c-1.944.306-3.78.594-4.662.72-.5.072-1.26.162-1.71.18l.414,1.926c.4-.108.936-.216,1.674-.342.846-.162,2.664-.468,4.626-.792.306,1.674.576,3.024.648,3.474.108.54.162,1.116.252,1.746l2.07-.36c-.18-.54-.342-1.17-.468-1.692-.108-.486-.36-1.836-.684-3.456,1.674-.27,3.258-.522,4.194-.666.684-.108,1.332-.234,1.746-.27Zm13.95,4.23a26.075,26.075,0,0,0,3.852-5.418l-1.152-.81a3.254,3.254,0,0,1-.774.252c-.648.144-3.474.684-5.9,1.152l-.54-1.962c-.108-.45-.216-.882-.27-1.242l-1.926.468a5.289,5.289,0,0,1,.468,1.152c.108.378.306,1.062.522,1.908-.972.18-1.728.324-1.98.36-.576.09-1.044.162-1.566.2l.432,1.728c.5-.108,1.926-.414,3.546-.738C-28.332-3.6-27.522-.576-27.27.306a8.665,8.665,0,0,1,.288,1.422l1.944-.486C-25.164.9-25.38.234-25.47-.09c-.27-.846-1.1-3.852-1.8-6.39,2.268-.468,4.464-.9,4.9-.99a17.029,17.029,0,0,1-2.9,3.51Zm10.35-10.242-1.314,1.4a40.922,40.922,0,0,1,4.5,3.816l1.422-1.458A36.448,36.448,0,0,0-13.356-13.41ZM-15.21-1.368-14,.486A19.846,19.846,0,0,0-7.11-2.2,18.551,18.551,0,0,0-.792-8.712l-1.1-1.962A17.138,17.138,0,0,1-8.136-3.888,18.7,18.7,0,0,1-15.21-1.368ZM13.266-10.89a1.244,1.244,0,0,1,1.242-1.242A1.244,1.244,0,0,1,15.75-10.89a1.244,1.244,0,0,1-1.242,1.242A1.244,1.244,0,0,1,13.266-10.89Zm-1.008,0a2.236,2.236,0,0,0,2.25,2.232,2.24,2.24,0,0,0,2.268-2.232,2.259,2.259,0,0,0-2.268-2.268A2.255,2.255,0,0,0,12.258-10.89ZM1.278-4.9,2.952-3.2c.288-.414.7-.99,1.08-1.512.774-.99,2.2-2.88,3.006-3.87.558-.7.846-.7,1.53-.126a48.181,48.181,0,0,1,3.438,3.618c1.116,1.3,2.754,3.2,3.96,4.752l1.494-1.62c-1.3-1.53-3.168-3.528-4.374-4.824a42.076,42.076,0,0,0-3.708-3.69c-1.368-1.152-2.214-1.026-3.222.162-1.188,1.4-2.682,3.294-3.51,4.14C2.124-5.67,1.764-5.31,1.278-4.9Zm18.936-.918c.594-.036,1.656-.072,2.664-.072H32.67c.792,0,1.6.054,2,.072V-8.028c-.432.036-1.134.108-2.016.108H22.878c-.972,0-2.088-.054-2.664-.108Zm19.53-7.6-1.314,1.4a40.922,40.922,0,0,1,4.5,3.816l1.422-1.458A36.448,36.448,0,0,0,39.744-13.41ZM37.89-1.368,39.1.486A19.846,19.846,0,0,0,45.99-2.2a18.551,18.551,0,0,0,6.318-6.516l-1.1-1.962a17.138,17.138,0,0,1-6.246,6.786A18.7,18.7,0,0,1,37.89-1.368ZM-2.688,13.212h-9.94v-4.7h-2.688v4.7h-9.912V34.268h2.6V15.732h7.28c-.14,3.584-1.092,7.952-6.916,11.032a9.292,9.292,0,0,1,1.848,1.96,14.888,14.888,0,0,0,6.5-7.028,67.027,67.027,0,0,1,6.1,6.58l2.128-1.708a84,84,0,0,0-7.42-7.392,22.362,22.362,0,0,0,.448-3.444h7.392v15.26c0,.5-.168.644-.7.672s-2.436.028-4.256-.056a10.452,10.452,0,0,1,.9,2.632c2.464,0,4.2-.028,5.236-.476,1.036-.42,1.4-1.2,1.4-2.744Zm7.56.056H23.044v3.08h2.632V10.916H15.26V8.508H12.6v2.408H2.324v5.432H4.872Zm11.2,2.492a40.667,40.667,0,0,1,7.056,5.46l1.932-1.764a42.078,42.078,0,0,0-7.14-5.208ZM9.184,14.276a18.836,18.836,0,0,1-6.468,5.04,13.988,13.988,0,0,1,1.82,2.072,25.023,25.023,0,0,0,7.14-6.272ZM8.82,24.8a25.523,25.523,0,0,0,5.236-4.872A28.791,28.791,0,0,0,19.628,24.8Zm.028,6.244V27.1H19.18v3.948ZM12.628,17.5a28.193,28.193,0,0,1-11.284,8.68A10.757,10.757,0,0,1,2.828,28.36c1.176-.56,2.38-1.2,3.5-1.876v7.728h2.52v-.868H19.18v.784h2.632V26.2a37.4,37.4,0,0,0,3.584,1.9,13.263,13.263,0,0,1,1.624-2.38A28.47,28.47,0,0,1,15.26,17.5Z" transform="translate(238 4030.155)" fill="#9c304a"/>
    <g id="Group_1469" data-name="Group 1469" transform="translate(112.364 4006.086)">
      <g id="Group_1468" data-name="Group 1468" transform="translate(0 0)">
        <g id="Group_1466" data-name="Group 1466" transform="translate(0)">
          <ellipse id="Ellipse_138" data-name="Ellipse 138" cx="31.985" cy="31.985" rx="31.985" ry="31.985" transform="translate(1.207 1.207)" fill="#fff"/>
          <path id="Path_16819" data-name="Path 16819" d="M1216.062,833.393a32.89,32.89,0,1,1,32.892-32.888A32.925,32.925,0,0,1,1216.062,833.393Zm0-62.743a29.853,29.853,0,1,0,29.855,29.856A29.887,29.887,0,0,0,1216.062,770.65Zm0,3.646A26.207,26.207,0,1,0,1242.27,800.5,26.207,26.207,0,0,0,1216.063,774.3Zm14.532,12.151-9.848,15.25a.2.2,0,0,0-.009.2.2.2,0,0,0,.174.1h6.511a.2.2,0,0,1,.2.2v3a.2.2,0,0,1-.2.2h-8.474a.2.2,0,0,0-.2.2v2.632a.2.2,0,0,0,.2.2h8.474a.2.2,0,0,1,.2.2v3a.2.2,0,0,1-.2.2h-8.474a.2.2,0,0,0-.2.2v5.6a.2.2,0,0,1-.2.2h-4.972a.2.2,0,0,1-.2-.2v-5.6a.2.2,0,0,0-.2-.2H1204.7a.2.2,0,0,1-.2-.2v-3a.2.2,0,0,1,.2-.2h8.476a.2.2,0,0,0,.2-.2V805.6a.2.2,0,0,0-.2-.2H1204.7a.2.2,0,0,1-.2-.2v-3a.2.2,0,0,1,.2-.2h6.514a.2.2,0,0,0,.172-.1.2.2,0,0,0-.007-.2l-9.85-15.248a.209.209,0,0,1-.007-.207.2.2,0,0,1,.177-.106h5.532a.208.208,0,0,1,.172.1l8.577,14.292a.193.193,0,0,0,.167.1.2.2,0,0,0,.169-.1l8.576-14.292a.213.213,0,0,1,.174-.1h5.36a.2.2,0,0,1,.167.311Z" transform="translate(-1183.174 -767.613)" fill="#9c304a"/>
        </g>
        <ellipse id="Ellipse_141" data-name="Ellipse 141" cx="25.95" cy="25.95" rx="25.95" ry="25.95" transform="translate(7.242 7.242)" fill="#9c304a"/>
      </g>
      <path id="Path_16921" data-name="Path 16921" d="M258.69,388.063l-3.722,11.418-12.009.011,9.709,7.069-3.7,11.424,9.722-7.05,9.721,7.05-3.7-11.424,9.709-7.069-12.009-.011Z" transform="translate(-226.063 -370.109)" fill="#fff"/>
    </g>
  </g>
</svg>
