<svg xmlns="http://www.w3.org/2000/svg" width="193.115" height="65.78" viewBox="0 0 193.115 65.78">
  <g id="Group_2088" data-name="Group 2088" transform="translate(-112.364 -3928.84)">
    <g id="Rectangle_757" data-name="Rectangle 757" transform="translate(136.503 3930.047)" fill="#fff" stroke="#9c304a" stroke-width="1">
      <rect width="168.976" height="63.969" stroke="none"/>
      <rect x="0.5" y="0.5" width="167.976" height="62.969" fill="none"/>
    </g>
    <path id="Path_17150" data-name="Path 17150" d="M20.02-18.312A22.586,22.586,0,0,0,15.6-21.7L14.28-19.936a20.265,20.265,0,0,1,4.368,3.612Zm-1.176,6.664a24.257,24.257,0,0,0-4.676-3.164l-1.232,1.876a21.426,21.426,0,0,1,4.592,3.36Zm-8.4-10.22a49.523,49.523,0,0,1-1.68,6.384l1.652.5c.728-1.6,1.568-4.2,2.3-6.384Zm-5.6,6.356A28.948,28.948,0,0,0,3.3-21.756l-1.848.476a28.953,28.953,0,0,1,1.4,6.3ZM8.12-11.76h4.368V-14.2H8.12v-9.156H5.684V-14.2H1.344v2.436H4.9A27.669,27.669,0,0,1,.868-3.724a13.927,13.927,0,0,1,1.26,2.6A29.083,29.083,0,0,0,5.684-8.54V2.184H8.12v-10.7c.924,1.484,1.988,3.248,2.464,4.256L12.236-6.3c-.588-.84-3.276-4.256-4.116-5.152Zm18.9,5.628-.364-2.38-3.108.532V-23.464H21.112V-7.532L12.4-5.964l.42,2.408,8.288-1.512v7.28h2.436V-5.516Zm9.072-8.988a29.992,29.992,0,0,0,5.8-5.88,31.321,31.321,0,0,0,6.076,5.88Zm7.14,7.868H52.36v-2.24H43.232v-3.332h5.684v-1.6a35.353,35.353,0,0,0,4.48,2.772,14.821,14.821,0,0,1,1.68-2.324,30.827,30.827,0,0,1-11.984-9.576h-2.66c-2.1,3.444-6.664,7.56-11.424,9.912a10.09,10.09,0,0,1,1.624,2.1A39.367,39.367,0,0,0,35-14.28v1.456h5.488v3.332H31.556v2.24h8.932V-.9H30.212V1.372h23.6V-.9H43.232ZM33.6-5.992a18.238,18.238,0,0,1,2.464,4.984l2.268-1.008a18.227,18.227,0,0,0-2.6-4.816ZM47.012-1.008A49.689,49.689,0,0,0,50.4-5.936L47.908-6.86A30.979,30.979,0,0,1,45.08-1.876Z" transform="translate(210 3971.356)" fill="#9c304a"/>
    <g id="Group_1428" data-name="Group 1428" transform="translate(112.364 3928.84)">
      <ellipse id="Ellipse_138" data-name="Ellipse 138" cx="31.985" cy="31.985" rx="31.985" ry="31.985" transform="translate(1.207 1.207)" fill="#fff"/>
      <path id="Path_16819" data-name="Path 16819" d="M1216.062,833.393a32.89,32.89,0,1,1,32.892-32.888A32.925,32.925,0,0,1,1216.062,833.393Zm0-62.743a29.853,29.853,0,1,0,29.855,29.856A29.887,29.887,0,0,0,1216.062,770.65Zm0,3.646A26.207,26.207,0,1,0,1242.27,800.5,26.207,26.207,0,0,0,1216.063,774.3Zm14.532,12.151-9.848,15.25a.2.2,0,0,0-.009.2.2.2,0,0,0,.174.1h6.511a.2.2,0,0,1,.2.2v3a.2.2,0,0,1-.2.2h-8.474a.2.2,0,0,0-.2.2v2.632a.2.2,0,0,0,.2.2h8.474a.2.2,0,0,1,.2.2v3a.2.2,0,0,1-.2.2h-8.474a.2.2,0,0,0-.2.2v5.6a.2.2,0,0,1-.2.2h-4.972a.2.2,0,0,1-.2-.2v-5.6a.2.2,0,0,0-.2-.2H1204.7a.2.2,0,0,1-.2-.2v-3a.2.2,0,0,1,.2-.2h8.476a.2.2,0,0,0,.2-.2V805.6a.2.2,0,0,0-.2-.2H1204.7a.2.2,0,0,1-.2-.2v-3a.2.2,0,0,1,.2-.2h6.514a.2.2,0,0,0,.172-.1.2.2,0,0,0-.007-.2l-9.85-15.248a.209.209,0,0,1-.007-.207.2.2,0,0,1,.177-.106h5.532a.208.208,0,0,1,.172.1l8.577,14.292a.193.193,0,0,0,.167.1.2.2,0,0,0,.169-.1l8.576-14.292a.213.213,0,0,1,.174-.1h5.36a.2.2,0,0,1,.167.311Z" transform="translate(-1183.174 -767.613)" fill="#9c304a"/>
    </g>
  </g>
</svg>
