<svg xmlns="http://www.w3.org/2000/svg" viewBox="0 0 48.35 46.3"><defs><style>.cls-1{fill:#e7b52a;}</style></defs><title>asAsset 3item</title><g id="Layer_2" data-name="Layer 2"><g id="レイヤー_1" data-name="レイヤー 1"><path class="cls-1" d="M16.48,12.85,22.33,1.21a2.2,2.2,0,0,1,3.94,0L32,13a2.2,2.2,0,0,0,1.65,1.22l12.88,2a2.2,2.2,0,0,1,1.19,3.76l-9.4,9a2.2,2.2,0,0,0-.65,1.94l2.11,12.86A2.2,2.2,0,0,1,36.53,46L25,39.89a2.2,2.2,0,0,0-2,0l-11.58,6a2.2,2.2,0,0,1-3.17-2.34l2.3-12.83a2.2,2.2,0,0,0-.62-2L.65,19.56A2.2,2.2,0,0,1,1.9,15.82L14.81,14A2.2,2.2,0,0,0,16.48,12.85Z"/></g></g></svg>