<svg xmlns="http://www.w3.org/2000/svg" width="193.115" height="65.78" viewBox="0 0 193.115 65.78">
  <g id="Group_2090" data-name="Group 2090" transform="translate(-112.364 -4083.332)">
    <g id="Rectangle_759" data-name="Rectangle 759" transform="translate(136.503 4084.539)" fill="#fff" stroke="#9c304a" stroke-width="1">
      <rect width="168.976" height="63.969" stroke="none"/>
      <rect x="0.5" y="0.5" width="167.976" height="62.969" fill="none"/>
    </g>
    <path id="Path_17152" data-name="Path 17152" d="M-13.048-19.824h-5.376V-23.38h-2.548v3.556h-5.6v2.352h13.524Zm.224,8.092a20.038,20.038,0,0,0-3.36-5.18L-18.228-15.9a22.4,22.4,0,0,1,3.248,5.348Zm-10.7-4.928a14.31,14.31,0,0,1-3.7,5.432A23.936,23.936,0,0,1-25.2-9.66a19.464,19.464,0,0,0,4.116-6.384Zm5.292,4.648a25.034,25.034,0,0,1-1.316,3.7c-1.092-.924-2.184-1.792-3.22-2.548l-1.512,1.792c1.148.9,2.38,1.9,3.528,2.968A17,17,0,0,1-27.16.084a13.558,13.558,0,0,1,1.792,2.072,20.847,20.847,0,0,0,6.5-6.5,26.036,26.036,0,0,1,2.828,3.22l1.68-2.128A28.4,28.4,0,0,0-17.556-6.58a30.7,30.7,0,0,0,1.876-4.9Zm10.5-5.208c.056-1.932.084-3.892.084-5.936h-2.492c0,2.044,0,4.032-.056,5.936h-3.136v2.492h3.052c-.28,6.44-1.372,11.816-5.348,15.176A7.966,7.966,0,0,1-13.72,2.3C-9.38-1.512-8.176-7.56-7.812-14.728h3.5C-4.536-5.1-4.816-1.54-5.432-.784A1,1,0,0,1-6.44-.308c-.532,0-1.736-.028-3.108-.14A6.748,6.748,0,0,1-8.82,1.988a20.484,20.484,0,0,0,3.556-.056A2.423,2.423,0,0,0-3.248.756c.9-1.2,1.12-5.18,1.372-16.744.028-.336.028-1.232.028-1.232ZM7.168-13.1V-15.54h5.488V-13.1Zm0-6.86h5.488v2.38H7.168Zm13.748,2.38H15.4v-2.38h5.516Zm0,4.48H15.4V-15.54h5.516ZM26.264-6.44V-8.82H15.4v-2.072h8.316V-22.148H4.48v11.256h8.176V-8.82H1.764v2.38H10.64a25.469,25.469,0,0,1-9.6,5.656A12.473,12.473,0,0,1,2.772,1.372,27.032,27.032,0,0,0,12.656-5.18V2.212H15.4V-5.32a30.05,30.05,0,0,0,9.856,6.552A13.474,13.474,0,0,1,27.048-.98a27.523,27.523,0,0,1-9.632-5.46Z" transform="translate(238 4127.388)" fill="#9c304a"/>
    <g id="Group_1464" data-name="Group 1464" transform="translate(112.364 4083.332)">
      <g id="Group_1462" data-name="Group 1462" transform="translate(0 0)">
        <ellipse id="Ellipse_138" data-name="Ellipse 138" cx="31.985" cy="31.985" rx="31.985" ry="31.985" transform="translate(1.207 1.207)" fill="#fff"/>
        <path id="Path_16819" data-name="Path 16819" d="M1216.062,833.393a32.89,32.89,0,1,1,32.892-32.888A32.925,32.925,0,0,1,1216.062,833.393Zm0-62.743a29.853,29.853,0,1,0,29.855,29.856A29.887,29.887,0,0,0,1216.062,770.65Zm0,3.646A26.207,26.207,0,1,0,1242.27,800.5,26.207,26.207,0,0,0,1216.063,774.3Zm14.532,12.151-9.848,15.25a.2.2,0,0,0-.009.2.2.2,0,0,0,.174.1h6.511a.2.2,0,0,1,.2.2v3a.2.2,0,0,1-.2.2h-8.474a.2.2,0,0,0-.2.2v2.632a.2.2,0,0,0,.2.2h8.474a.2.2,0,0,1,.2.2v3a.2.2,0,0,1-.2.2h-8.474a.2.2,0,0,0-.2.2v5.6a.2.2,0,0,1-.2.2h-4.972a.2.2,0,0,1-.2-.2v-5.6a.2.2,0,0,0-.2-.2H1204.7a.2.2,0,0,1-.2-.2v-3a.2.2,0,0,1,.2-.2h8.476a.2.2,0,0,0,.2-.2V805.6a.2.2,0,0,0-.2-.2H1204.7a.2.2,0,0,1-.2-.2v-3a.2.2,0,0,1,.2-.2h6.514a.2.2,0,0,0,.172-.1.2.2,0,0,0-.007-.2l-9.85-15.248a.209.209,0,0,1-.007-.207.2.2,0,0,1,.177-.106h5.532a.208.208,0,0,1,.172.1l8.577,14.292a.193.193,0,0,0,.167.1.2.2,0,0,0,.169-.1l8.576-14.292a.213.213,0,0,1,.174-.1h5.36a.2.2,0,0,1,.167.311Z" transform="translate(-1183.174 -767.613)" fill="#9c304a"/>
      </g>
      <g id="Group_1463" data-name="Group 1463" transform="translate(5.262 6.469)">
        <g id="Group_1426" data-name="Group 1426" transform="translate(0 0)">
          <g id="Group_1425" data-name="Group 1425" transform="translate(0 0)">
            <path id="Path_16838" data-name="Path 16838" d="M129.991,174.235a26.863,26.863,0,1,0,26.861-26.861A26.864,26.864,0,0,0,129.991,174.235Z" transform="translate(-129.16 -146.543)" fill="#fff"/>
            <path id="Path_16839" data-name="Path 16839" d="M183.718,325.422H161.454a22.929,22.929,0,0,1,1.751,7.3c0,3.192-2.9,6.667-6.352,6.667s-6.348-3.475-6.348-6.667a22.98,22.98,0,0,1,1.746-7.3H129.991v0a26.863,26.863,0,1,0,53.727,0Z" transform="translate(-129.16 -297.728)" fill="#9c304a"/>
            <path id="Path_16841" data-name="Path 16841" d="M274.8,246.7c.731-4.862,1.03-16.63-11.466-23.1,0,0,10.443,10.051,7.126,21.912a5.464,5.464,0,0,0-3.13,5.224c0,3.036,1.995,5.5,4.458,5.5s4.464-2.46,4.464-5.5A6.084,6.084,0,0,0,274.8,246.7Z" transform="translate(-244.305 -217.033)" fill="#9c304a"/>
            <path id="Path_16843" data-name="Path 16843" d="M152.177,197.256a27.694,27.694,0,1,1,27.7-27.7A27.727,27.727,0,0,1,152.177,197.256Zm0-53.729a26.034,26.034,0,1,0,26.035,26.033A26.063,26.063,0,0,0,152.177,143.527Z" transform="translate(-124.485 -141.868)" fill="#fff"/>
          </g>
        </g>
      </g>
    </g>
  </g>
</svg>
