<svg xmlns="http://www.w3.org/2000/svg" width="193.115" height="65.78" viewBox="0 0 193.115 65.78">
  <g id="Group_2091" data-name="Group 2091" transform="translate(-112.364 -4161.785)">
    <g id="Rectangle_760" data-name="Rectangle 760" transform="translate(136.503 4162.992)" fill="#fff" stroke="#9c304a" stroke-width="1">
      <rect width="168.976" height="63.969" stroke="none"/>
      <rect x="0.5" y="0.5" width="167.976" height="62.969" fill="none"/>
    </g>
    <path id="Path_17153" data-name="Path 17153" d="M-13.062-9.912l-.357.126h-3.864l.4-.651c-.546-.273-1.26-.588-2.058-.945A32.886,32.886,0,0,0-13.755-15.5l-1.428-1.092-.42.1H-28.35v1.806h10.836a22.029,22.029,0,0,1-3.4,2.478c-1.239-.525-2.5-1.008-3.549-1.428l-1.008,1.47c1.638.651,3.717,1.575,5.418,2.373H-30.324v1.869h8.442V-.651c0,.315-.1.4-.5.42-.4,0-1.869.021-3.234-.042a9.5,9.5,0,0,1,.735,1.89A13.6,13.6,0,0,0-20.958,1.3c.84-.273,1.113-.819,1.113-1.911V-7.917h5.229a20.714,20.714,0,0,1-2.058,2.961l1.638.987a29.038,29.038,0,0,0,3.57-5.25Zm4.368,4.305A15.871,15.871,0,0,1-9.933-.693,8.207,8.207,0,0,1-8.442.042,19.444,19.444,0,0,0-7.035-5.313Zm4.6.378A22.677,22.677,0,0,1-2.814-1.2l1.554-.546A22.9,22.9,0,0,0-2.625-5.712Zm-.462-5.082a18.064,18.064,0,0,1,.882,1.68l-2.793.105A65.916,65.916,0,0,0-2.289-14.49L-3.948-15.2A39.136,39.136,0,0,1-6.069-11.55,12.234,12.234,0,0,0-7.1-12.768C-6.342-13.9-5.46-15.561-4.7-16.989l-1.764-.63a24.216,24.216,0,0,1-1.722,3.8l-.567-.5-.945,1.3a22.6,22.6,0,0,1,2.646,2.94c-.42.588-.819,1.134-1.218,1.638l-1.47.042.168,1.722C-8.61-6.741-7.5-6.8-6.3-6.867V1.68h1.743V-6.972L-3-7.077A10.579,10.579,0,0,1-2.625-5.9l1.491-.714A17.746,17.746,0,0,0-3.15-10.92ZM9.219-13.965H1.785A27.805,27.805,0,0,0,2.94-17.178L.945-17.64a17.571,17.571,0,0,1-3.633,7.182A14.6,14.6,0,0,1-.966-9.282,16.324,16.324,0,0,0,.882-12.1h6.4C7.014-4.389,6.678-1.281,6.006-.609a1.007,1.007,0,0,1-.9.357c-.5,0-1.764-.021-3.129-.126a4.4,4.4,0,0,1,.651,1.953,20.073,20.073,0,0,0,3.234-.021A2.243,2.243,0,0,0,7.707.588C8.589-.483,8.862-3.759,9.219-13.02ZM4.494-4.557A19.812,19.812,0,0,0,1.659-9.282L.084-8.505a20.633,20.633,0,0,1,2.688,4.83ZM16.212-3.318c-.84,0-1.911-1.092-1.911-3.486a6.971,6.971,0,0,1,5.922-6.426,28.813,28.813,0,0,1-1.134,5.355C18.123-4.662,17.115-3.318,16.212-3.318ZM21.8.693c5.082-.714,7.875-3.738,7.875-8.085,0-4.368-3.171-7.854-8.169-7.854-5.208,0-9.3,4.011-9.3,8.631,0,3.465,1.89,5.8,3.948,5.8,2.079,0,3.8-2.373,5.061-6.615a47.6,47.6,0,0,0,1.239-5.838,5.5,5.5,0,0,1,5,5.8c0,3.36-2.373,5.292-5.04,5.9a11.776,11.776,0,0,1-1.848.294ZM-42.546,9.447h.861v1.617h6.657A23.339,23.339,0,0,1-37.3,18.225a26.548,26.548,0,0,1-2.268-7.1l-1.89.378a29.579,29.579,0,0,0,2.982,8.631,11.964,11.964,0,0,1-4.074,3.654Zm-5.481,11.277V17.952h3.591V20.22Zm3.591-11.277v2.436h-3.591V9.447Zm-3.591,4.179h3.591v2.562h-3.591ZM-34.146,9.09l-.336.063h-6.657V7.641h-10.29V9.447H-49.9V20.976c-.735.084-1.386.189-1.974.252l.357,1.953c1.953-.315,4.536-.735,7.077-1.155v3.591h1.89V23.9a7.547,7.547,0,0,1,1.218,1.512,14.384,14.384,0,0,0,4.011-3.486,13.2,13.2,0,0,0,3.948,3.528,7.435,7.435,0,0,1,1.344-1.6A11.563,11.563,0,0,1-36.1,20.178,26.251,26.251,0,0,0-32.886,9.426Zm7.728-1.806c-.021.546-.084,1.26-.168,1.953a54.4,54.4,0,0,0-.63,6.7,25.06,25.06,0,0,0,.252,3.36l2.037-.147a9.41,9.41,0,0,1-.063-2.394c.168-2.73,2.478-6.468,5-6.468,2,0,3.066,2.121,3.066,5.355,0,5.145-3.4,6.825-7.959,7.539l1.26,1.89c5.292-.966,8.925-3.633,8.925-9.429,0-4.473-2.1-7.266-4.935-7.266-2.5,0-4.515,2.226-5.418,4.137a36.163,36.163,0,0,1,.9-5.145ZM2.1,9.237A29.311,29.311,0,0,0-.63,6.885L-2.142,7.956A29.551,29.551,0,0,1,.567,10.392Zm-9.555.315a14.593,14.593,0,0,1,1.092,1.617c.336.588.693,1.281,1.071,2.058-.777.357-1.512.672-2.184.945a15.09,15.09,0,0,1-1.869.609l.987,2.121c.924-.42,2.31-1.134,3.864-1.911l.672,1.533a60.83,60.83,0,0,1,2.814,8.568l2.289-.567c-.714-2.331-2.142-6.447-3.213-8.883-.231-.5-.462-1.029-.693-1.533,2.31-1.071,4.746-1.995,6.468-1.995,1.848,0,2.772.987,2.772,2.163,0,1.47-1.008,2.562-2.982,2.562a7.351,7.351,0,0,1-2.9-.693L.672,18.2a9.459,9.459,0,0,0,3.15.588c3.213,0,4.956-1.827,4.956-4.431,0-2.331-1.848-4.137-4.872-4.137-2.142,0-4.83,1.071-7.329,2.184-.378-.8-.756-1.554-1.113-2.2-.21-.378-.609-1.134-.777-1.491Zm26.145,7.5A1.866,1.866,0,0,1,20.559,15.1a1.7,1.7,0,0,1,1.617.966c.273,1.974-.525,2.835-1.6,2.835A1.808,1.808,0,0,1,18.69,17.049Zm11.277-7.2H23.751c0-.42,0-.777.021-1.029,0-.294.063-1.239.105-1.512H21.483c.063.294.126.987.168,1.512.021.231.021.609.042,1.05-2.961.042-6.825.168-9.177.189l.063,2.016c2.583-.168,5.985-.294,9.135-.336l.021,1.764a4.048,4.048,0,0,0-1.155-.147,3.766,3.766,0,0,0-3.885,3.738,3.544,3.544,0,0,0,4.956,3.339c-1.008,1.554-2.919,2.457-5.355,3L18.081,25.2c4.935-1.428,6.4-4.683,6.4-7.455a5.1,5.1,0,0,0-.735-2.772c0-.924,0-2.142-.021-3.255,3.024,0,4.977.042,6.216.1Zm5.712,7.5a12.9,12.9,0,0,0-.588,3.276c0,2.73,2.205,4.305,6.195,4.305a26.852,26.852,0,0,0,5.523-.5l.042-2.163a23.6,23.6,0,0,1-5.544.567c-3.045,0-4.074-1.05-4.074-2.751a8.288,8.288,0,0,1,.588-2.562ZM48.993,9.4a28.238,28.238,0,0,1-4.179,1.029c-.462-1.071-.861-2.058-1.281-3.3l-2.352.441a12.9,12.9,0,0,1,.945,1.869l.588,1.281a36.149,36.149,0,0,1-8.043-.147l.084,2.1a45.615,45.615,0,0,0,8.82-.021c.63,1.407,1.512,3.234,2.058,4.41-.672-.063-1.974-.189-2.73-.273l-.21,1.7c1.449.168,3.507.462,4.494.672l1.2-1.239c-.924-1.722-2-3.927-2.751-5.607,1.281-.231,2.583-.525,3.759-.84Z" transform="translate(240.575 4191.613)" fill="#9c304a"/>
    <g id="Group_1467" data-name="Group 1467" transform="translate(112.364 4161.785)">
      <g id="Group_1466" data-name="Group 1466" transform="translate(0 0)">
        <ellipse id="Ellipse_138" data-name="Ellipse 138" cx="31.985" cy="31.985" rx="31.985" ry="31.985" transform="translate(1.207 1.207)" fill="#fff"/>
        <path id="Path_16819" data-name="Path 16819" d="M1216.062,833.393a32.89,32.89,0,1,1,32.892-32.888A32.925,32.925,0,0,1,1216.062,833.393Zm0-62.743a29.853,29.853,0,1,0,29.855,29.856A29.887,29.887,0,0,0,1216.062,770.65Zm0,3.646A26.207,26.207,0,1,0,1242.27,800.5,26.207,26.207,0,0,0,1216.063,774.3Zm14.532,12.151-9.848,15.25a.2.2,0,0,0-.009.2.2.2,0,0,0,.174.1h6.511a.2.2,0,0,1,.2.2v3a.2.2,0,0,1-.2.2h-8.474a.2.2,0,0,0-.2.2v2.632a.2.2,0,0,0,.2.2h8.474a.2.2,0,0,1,.2.2v3a.2.2,0,0,1-.2.2h-8.474a.2.2,0,0,0-.2.2v5.6a.2.2,0,0,1-.2.2h-4.972a.2.2,0,0,1-.2-.2v-5.6a.2.2,0,0,0-.2-.2H1204.7a.2.2,0,0,1-.2-.2v-3a.2.2,0,0,1,.2-.2h8.476a.2.2,0,0,0,.2-.2V805.6a.2.2,0,0,0-.2-.2H1204.7a.2.2,0,0,1-.2-.2v-3a.2.2,0,0,1,.2-.2h6.514a.2.2,0,0,0,.172-.1.2.2,0,0,0-.007-.2l-9.85-15.248a.209.209,0,0,1-.007-.207.2.2,0,0,1,.177-.106h5.532a.208.208,0,0,1,.172.1l8.577,14.292a.193.193,0,0,0,.167.1.2.2,0,0,0,.169-.1l8.576-14.292a.213.213,0,0,1,.174-.1h5.36a.2.2,0,0,1,.167.311Z" transform="translate(-1183.174 -767.613)" fill="#9c304a"/>
      </g>
      <ellipse id="Ellipse_141" data-name="Ellipse 141" cx="25.95" cy="25.95" rx="25.95" ry="25.95" transform="translate(7.242 7.242)" fill="#9c304a"/>
      <g id="Group_1465" data-name="Group 1465" transform="translate(17.853 19.539)">
        <path id="Path_16917" data-name="Path 16917" d="M948.074,419.927h0v22.928a1.309,1.309,0,0,0,1.267,1.006l28.776.046a1.37,1.37,0,0,0,1.351-1.306V419.059a1.308,1.308,0,0,0-1.308-1.311l-2.616-.005,0,2.29a1.962,1.962,0,0,1-3.925-.005l0-2.29-5.664-.008,0,2.287a1.961,1.961,0,0,1-3.922-.005v-2.29l-6.106-.011,0,2.287a1.962,1.962,0,1,1-3.923-.005l0-2.287-2.614-.005A1.312,1.312,0,0,0,948.074,419Zm2.648,4.715h26.067V441.46H950.722Z" transform="translate(-948.074 -416.398)" fill="#fff"/>
        <path id="Path_16918" data-name="Path 16918" d="M1246.441,406.464a.652.652,0,0,1-.651-.657l0-2.615a.654.654,0,0,1,1.307,0l0,2.615A.654.654,0,0,1,1246.441,406.464Z" transform="translate(-1220.936 -402.506)" fill="#fff"/>
        <path id="Path_16919" data-name="Path 16919" d="M1131.577,406.241a.652.652,0,0,1-.654-.654l.006-2.617a.653.653,0,1,1,1.305,0l0,2.617A.653.653,0,0,1,1131.577,406.241Z" transform="translate(-1115.659 -402.299)" fill="#fff"/>
        <path id="Path_16920" data-name="Path 16920" d="M1011.383,406.044a.653.653,0,0,1-.653-.654l.007-2.615a.654.654,0,1,1,1.307,0l-.006,2.617A.649.649,0,0,1,1011.383,406.044Z" transform="translate(-1005.499 -402.121)" fill="#fff"/>
        <rect id="Rectangle_826" data-name="Rectangle 826" width="2.516" height="2.52" transform="translate(24.58 10.299)" fill="#fff"/>
        <rect id="Rectangle_827" data-name="Rectangle 827" width="2.519" height="2.52" transform="translate(21.193 10.299)" fill="#fff"/>
        <rect id="Rectangle_828" data-name="Rectangle 828" width="2.518" height="2.52" transform="translate(17.807 10.299)" fill="#fff"/>
        <rect id="Rectangle_829" data-name="Rectangle 829" width="2.516" height="2.52" transform="translate(14.423 10.299)" fill="#fff"/>
        <rect id="Rectangle_830" data-name="Rectangle 830" width="2.517" height="2.52" transform="translate(11.038 10.299)" fill="#fff"/>
        <rect id="Rectangle_831" data-name="Rectangle 831" width="2.516" height="2.52" transform="translate(7.653 10.299)" fill="#fff"/>
        <rect id="Rectangle_832" data-name="Rectangle 832" width="2.519" height="2.52" transform="translate(4.266 10.299)" fill="#fff"/>
        <rect id="Rectangle_833" data-name="Rectangle 833" width="2.516" height="2.517" transform="translate(24.58 13.765)" fill="#fff"/>
        <rect id="Rectangle_834" data-name="Rectangle 834" width="2.519" height="2.517" transform="translate(21.193 13.765)" fill="#fff"/>
        <rect id="Rectangle_835" data-name="Rectangle 835" width="2.518" height="2.517" transform="translate(17.807 13.765)" fill="#fff"/>
        <rect id="Rectangle_836" data-name="Rectangle 836" width="2.516" height="2.517" transform="translate(14.423 13.765)" fill="#fff"/>
        <rect id="Rectangle_837" data-name="Rectangle 837" width="2.517" height="2.517" transform="translate(11.038 13.765)" fill="#fff"/>
        <rect id="Rectangle_838" data-name="Rectangle 838" width="2.516" height="2.517" transform="translate(7.653 13.765)" fill="#fff"/>
        <rect id="Rectangle_839" data-name="Rectangle 839" width="2.519" height="2.517" transform="translate(4.266 13.765)" fill="#fff"/>
        <rect id="Rectangle_840" data-name="Rectangle 840" width="2.516" height="2.514" transform="translate(24.58 17.231)" fill="#fff"/>
        <rect id="Rectangle_841" data-name="Rectangle 841" width="2.519" height="2.514" transform="translate(21.193 17.231)" fill="#fff"/>
        <rect id="Rectangle_842" data-name="Rectangle 842" width="2.518" height="2.514" transform="translate(17.807 17.231)" fill="#fff"/>
        <rect id="Rectangle_843" data-name="Rectangle 843" width="2.516" height="2.514" transform="translate(14.423 17.231)" fill="#fff"/>
        <rect id="Rectangle_844" data-name="Rectangle 844" width="2.517" height="2.514" transform="translate(11.038 17.231)" fill="#fff"/>
        <rect id="Rectangle_845" data-name="Rectangle 845" width="2.516" height="2.514" transform="translate(7.653 17.231)" fill="#fff"/>
        <rect id="Rectangle_846" data-name="Rectangle 846" width="2.519" height="2.514" transform="translate(4.266 17.231)" fill="#fff"/>
        <rect id="Rectangle_847" data-name="Rectangle 847" width="2.516" height="2.52" transform="translate(24.58 20.692)" fill="#fff"/>
        <rect id="Rectangle_848" data-name="Rectangle 848" width="2.519" height="2.52" transform="translate(21.193 20.692)" fill="#fff"/>
        <rect id="Rectangle_849" data-name="Rectangle 849" width="2.518" height="2.52" transform="translate(17.807 20.692)" fill="#fff"/>
        <rect id="Rectangle_850" data-name="Rectangle 850" width="2.516" height="2.52" transform="translate(14.423 20.692)" fill="#fff"/>
        <rect id="Rectangle_851" data-name="Rectangle 851" width="2.517" height="2.52" transform="translate(11.038 20.692)" fill="#fff"/>
        <rect id="Rectangle_852" data-name="Rectangle 852" width="2.516" height="2.52" transform="translate(7.653 20.692)" fill="#fff"/>
        <rect id="Rectangle_853" data-name="Rectangle 853" width="2.519" height="2.52" transform="translate(4.266 20.692)" fill="#fff"/>
      </g>
    </g>
  </g>
</svg>
