<svg xmlns="http://www.w3.org/2000/svg" width="67.045" height="67.044" viewBox="0 0 67.045 67.044">
  <g id="Group_53" data-name="Group 53" transform="translate(-1094.029 -3497.916)">
    <rect id="Rectangle_41" data-name="Rectangle 41" width="63.045" height="63.045" rx="19.178" transform="translate(1096.029 3499.916)" fill="#fff" stroke="#9c304a" stroke-miterlimit="10" stroke-width="4"/>
    <g id="Group_52" data-name="Group 52">
      <path id="Path_388" data-name="Path 388" d="M1139.329,3525.716a2.133,2.133,0,0,1,2.665,1.48c.554,1.661-.888,5.33-5.073,4.845Z" fill="none" stroke="#9c304a" stroke-miterlimit="10" stroke-width="1"/>
      <path id="Path_389" data-name="Path 389" d="M1115.64,3525.716a2.134,2.134,0,0,0-2.665,1.48c-.553,1.661.889,5.33,5.074,4.845Z" fill="none" stroke="#9c304a" stroke-miterlimit="10" stroke-width="1"/>
      <path id="Path_390" data-name="Path 390" d="M1139.621,3545.45l-7.929-3.135a2.45,2.45,0,0,1-1.55-2.267l-.012-2.827-2.645.339-2.645-.339-.013,2.827a2.449,2.449,0,0,1-1.549,2.267l-7.929,3.135a6.574,6.574,0,0,0-4.007,4.717l-.735,3.383h33.756l-.735-3.383A6.576,6.576,0,0,0,1139.621,3545.45Z" fill="none" stroke="#9c304a" stroke-miterlimit="10" stroke-width="1"/>
      <path id="Path_391" data-name="Path 391" d="M1139.329,3524.383c0,6.46-5.236,13.177-11.7,13.177s-11.7-6.717-11.7-13.177a11.7,11.7,0,1,1,23.392,0Z" fill="none" stroke="#9c304a" stroke-miterlimit="10" stroke-width="1"/>
      <path id="Path_392" data-name="Path 392" d="M1139.625,3517.425c-2.8-6.159-13.028-10.068-20.04-5.984l-4.145,2.665.793,1.246-1.481.888v5.626s1.17,4.491,1.185,4.738h0s1.184-5.922,4.441-9.179l8.291,6.514s1.131-2.1,1.185-2.073l5.034,3.258.592-1.481,4.442,2.073S1141.106,3520.682,1139.625,3517.425Z" fill="none" stroke="#9c304a" stroke-miterlimit="10" stroke-width="1"/>
      <path id="Path_393" data-name="Path 393" d="M1143.628,3550.167a6.576,6.576,0,0,0-4.007-4.717l-6.535-2.583c-1.357.377-3.362,2.984-5.6,2.984s-4.244-2.607-5.6-2.984l-6.535,2.583a6.574,6.574,0,0,0-4.007,4.717l-.735,3.383h33.756Z" fill="none" stroke="#9c304a" stroke-miterlimit="10" stroke-width="1"/>
    </g>
  </g>
</svg>
