<svg xmlns="http://www.w3.org/2000/svg" xmlns:xlink="http://www.w3.org/1999/xlink" viewBox="0 0 300 300.03"><defs><style>.cls-1{fill:url(#名称未設定グラデーション_3);}.cls-2{fill:#fff;}</style><linearGradient id="名称未設定グラデーション_3" y1="150.02" x2="300" y2="150.02" gradientUnits="userSpaceOnUse"><stop offset="0" stop-color="#bfc1ed"/><stop offset="1" stop-color="#fac5ec"/></linearGradient></defs><g id="レイヤー_2" data-name="レイヤー 2"><g id="set"><path class="cls-1" d="M280.74,130.7,248.68,300H49.57L17.51,130.7l74.84,34.93L149.12,53.87l56.77,111.76Zm-85.89-5.59,17.49,25.64,32.37-12.82L236,82.67ZM63,82.67l-8.75,55.26L86.6,150.75l17.5-25.64Zm229.13,8.89a9.91,9.91,0,1,0,7.69,7.78A9.9,9.9,0,0,0,292.12,91.56ZM241.41,36.28A13.22,13.22,0,1,0,252.09,47,13.21,13.21,0,0,0,241.41,36.28ZM.17,99.35a9.8,9.8,0,1,0,11.45-7.81A9.79,9.79,0,0,0,.17,99.35ZM47.89,47a13.07,13.07,0,1,0,15-10.76A13.06,13.06,0,0,0,47.89,47ZM150.43.19a19.79,19.79,0,1,0,16.88,17A19.8,19.8,0,0,0,150.43.19Z"/><path class="cls-2" d="M145.28,197.16a12.55,12.55,0,0,0,1.93.15h1.35a11.75,11.75,0,0,0,8.56-3.17,10.91,10.91,0,0,0,3.28-8.22,10.63,10.63,0,0,0-3.06-7.93,10.86,10.86,0,0,0-7.92-3,10.66,10.66,0,0,0-8.27,3.46,12.79,12.79,0,0,0-3.14,8.94H112.19a47.05,47.05,0,0,1,4.2-15.14A36.49,36.49,0,0,1,124.6,161a34.35,34.35,0,0,1,11.7-6.92,47.72,47.72,0,0,1,29.31-.14,32.53,32.53,0,0,1,11.13,6.34,27.6,27.6,0,0,1,7.13,10,33.14,33.14,0,0,1,2.5,13q0,7.78-2.93,12.76a26.2,26.2,0,0,1-8.34,8.58A23.92,23.92,0,0,1,188,214q4.63,6.7,4.63,16.51a33.9,33.9,0,0,1-3.13,14.71,33.4,33.4,0,0,1-8.78,11.39,40.16,40.16,0,0,1-13.41,7.36,53.31,53.31,0,0,1-17,2.59,49.9,49.9,0,0,1-22.4-4.9,36.68,36.68,0,0,1-16-15.57,31.45,31.45,0,0,1-3.64-9.52,50.43,50.43,0,0,1-.92-9.66H135c.19,5.1,1.66,9,4.42,11.61s6.47,4,11.13,4q7.41,0,10.84-4a14.8,14.8,0,0,0,3.43-9.94q0-7-4.14-10.68a14.56,14.56,0,0,0-9.84-3.6,16.42,16.42,0,0,0-2.71.22c-.86.14-1.81.31-2.86.5Z"/></g></g></svg>