<svg xmlns="http://www.w3.org/2000/svg" xmlns:xlink="http://www.w3.org/1999/xlink" viewBox="0 0 300 300.03"><defs><style>.cls-1{fill:url(#名称未設定グラデーション_3);}.cls-2{fill:#fff;}</style><linearGradient id="名称未設定グラデーション_3" y1="150.02" x2="300" y2="150.02" gradientUnits="userSpaceOnUse"><stop offset="0" stop-color="#bfc1ed"/><stop offset="1" stop-color="#fac5ec"/></linearGradient></defs><g id="レイヤー_2" data-name="レイヤー 2"><g id="set"><path class="cls-1" d="M280.74,130.7,248.68,300H49.57L17.51,130.7l74.84,34.93L149.12,53.87l56.77,111.76Zm-85.89-5.59,17.49,25.64,32.37-12.82L236,82.67ZM63,82.67l-8.75,55.26L86.6,150.75l17.5-25.64Zm229.13,8.89a9.91,9.91,0,1,0,7.69,7.78A9.9,9.9,0,0,0,292.12,91.56ZM241.41,36.28A13.22,13.22,0,1,0,252.09,47,13.21,13.21,0,0,0,241.41,36.28ZM.17,99.35a9.8,9.8,0,1,0,11.45-7.81A9.79,9.79,0,0,0,.17,99.35ZM47.89,47a13.07,13.07,0,1,0,15-10.76A13.06,13.06,0,0,0,47.89,47ZM150.43.19a19.79,19.79,0,1,0,16.88,17A19.8,19.8,0,0,0,150.43.19Z"/><path class="cls-2" d="M141.82,189.27H126.13V165.33h43.65V274h-28Z"/></g></g></svg>