<svg xmlns="http://www.w3.org/2000/svg" xmlns:xlink="http://www.w3.org/1999/xlink" viewBox="0 0 300 300.03"><defs><style>.cls-1{fill:url(#名称未設定グラデーション_3);}.cls-2{fill:#fff;}</style><linearGradient id="名称未設定グラデーション_3" y1="150.02" x2="300" y2="150.02" gradientUnits="userSpaceOnUse"><stop offset="0" stop-color="#bfc1ed"/><stop offset="1" stop-color="#fac5ec"/></linearGradient></defs><g id="レイヤー_2" data-name="レイヤー 2"><g id="set"><path class="cls-1" d="M280.74,130.7,248.68,300H49.57L17.51,130.7l74.84,34.93L149.12,53.87l56.77,111.76Zm-85.89-5.59,17.49,25.64,32.37-12.82L236,82.67ZM63,82.67l-8.75,55.26L86.6,150.75l17.5-25.64Zm229.13,8.89a9.91,9.91,0,1,0,7.69,7.78A9.9,9.9,0,0,0,292.12,91.56ZM241.41,36.28A13.22,13.22,0,1,0,252.09,47,13.21,13.21,0,0,0,241.41,36.28ZM.17,99.35a9.8,9.8,0,1,0,11.45-7.81A9.79,9.79,0,0,0,.17,99.35ZM47.89,47a13.07,13.07,0,1,0,15-10.76A13.06,13.06,0,0,0,47.89,47ZM150.43.19a19.79,19.79,0,1,0,16.88,17A19.8,19.8,0,0,0,150.43.19Z"/><path class="cls-2" d="M193.29,269.88h-86.6l26.68-28q10.56-11.1,16.55-18.81a102.46,102.46,0,0,0,8.91-13,34.36,34.36,0,0,0,3.64-8.66,26.54,26.54,0,0,0,.72-5.62,14.9,14.9,0,0,0-.79-4.76,12.48,12.48,0,0,0-2.35-4.11,12,12,0,0,0-3.78-2.88,11.83,11.83,0,0,0-5.21-1.08,11.17,11.17,0,0,0-8.92,3.75,13.92,13.92,0,0,0-3.21,9.37,37.26,37.26,0,0,0,.43,4.61H108.83a46.75,46.75,0,0,1,3.07-17.3,39.43,39.43,0,0,1,8.63-13.41,38.35,38.35,0,0,1,13.2-8.65,45.27,45.27,0,0,1,16.76-3,46.87,46.87,0,0,1,16.62,2.88,39.85,39.85,0,0,1,13.19,8.08A37.11,37.11,0,0,1,189,181.56a38.14,38.14,0,0,1,3.14,15.5,36.45,36.45,0,0,1-3.79,16.51q-3.78,7.59-12.05,15.5l-17.83,16.87h34.83Z"/></g></g></svg>