<svg id="レイヤー_1" data-name="レイヤー 1" xmlns="http://www.w3.org/2000/svg" viewBox="0 0 500 500"><defs><style>.cls-1{fill:#e24853;}</style></defs><path class="cls-1" d="M250,55A195,195,0,0,1,387.89,387.89,195,195,0,0,1,112.11,112.11,193.72,193.72,0,0,1,250,55m0-50h0C114.69,5,5,114.69,5,250H5C5,385.31,114.69,495,250,495h0c135.31,0,245-109.69,245-245h0C495,114.69,385.31,5,250,5Z"/><path class="cls-1" d="M250,138.5A111.5,111.5,0,1,1,138.5,250,111.63,111.63,0,0,1,250,138.5m0-40c-83.54,0-151.5,68-151.5,151.5s68,151.5,151.5,151.5,151.5-68,151.5-151.5S333.54,98.5,250,98.5Z"/></svg>