<svg xmlns="http://www.w3.org/2000/svg" width="48" height="48" viewBox="0 0 48 48">
  <g id="Group_2087" data-name="Group 2087" transform="translate(-191 -23063)">
    <path id="Path_17003" data-name="Path 17003" d="M24,0A24,24,0,1,1,0,24,24,24,0,0,1,24,0Z" transform="translate(191 23063)" fill="#fff"/>
    <g id="Group_1592" data-name="Group 1592" transform="translate(-102.84 22882.33)">
      <path id="Path_17004" data-name="Path 17004" d="M318,197.625a6.7,6.7,0,0,1,13.122,1.642c-.051,4.133-2.458,7.219-4.925,10-2.369,2.654-7.229,7.376-8.444,8.5h0c-1.186-1.156-5.929-6-8.232-8.707-2.4-2.836-4.729-5.981-4.678-10.113A6.7,6.7,0,0,1,318,197.625Z" transform="translate(0)" fill="#da003e"/>
    </g>
  </g>
</svg>
