<svg xmlns="http://www.w3.org/2000/svg" viewBox="0 0 172.59 159"><defs><style>.cls-1{fill:#fff;}</style></defs><g id="レイヤー_2" data-name="レイヤー 2"><g id="レイヤー_1-2" data-name="レイヤー 1"><path class="cls-1" d="M6.16,27.74H166.43a6.16,6.16,0,0,0,6.16-6.17V6.16A6.16,6.16,0,0,0,166.43,0H6.16A6.16,6.16,0,0,0,0,6.16V21.57A6.16,6.16,0,0,0,6.16,27.74Zm0,65.63H166.43a6.16,6.16,0,0,0,6.16-6.16V71.79a6.16,6.16,0,0,0-6.16-6.16H6.16A6.16,6.16,0,0,0,0,71.79V87.21A6.16,6.16,0,0,0,6.16,93.37Zm0,65.63H166.43a6.16,6.16,0,0,0,6.16-6.16V137.43a6.16,6.16,0,0,0-6.16-6.17H6.16A6.16,6.16,0,0,0,0,137.43v15.41A6.16,6.16,0,0,0,6.16,159Z"/></g></g></svg>