<svg id="レイヤー_1" data-name="レイヤー 1" xmlns="http://www.w3.org/2000/svg" viewBox="0 0 63 62.9"><defs><style>.cls-1{fill:#fff;}</style></defs><path class="cls-1" d="M0,43.37a26.43,26.43,0,0,1,1.14-8,18.72,18.72,0,0,1,3.2-6.14,14.52,14.52,0,0,1,4.9-3.94,14,14,0,0,1,6.28-1.39,14.07,14.07,0,0,1,6.25,1.39,14.24,14.24,0,0,1,4.9,3.94,18.87,18.87,0,0,1,3.17,6.14,26.43,26.43,0,0,1,1.14,8,26.45,26.45,0,0,1-1.14,8,19.08,19.08,0,0,1-3.17,6.16A13.87,13.87,0,0,1,15.52,62.9a14,14,0,0,1-6.28-1.39,14.38,14.38,0,0,1-4.9-4,18.93,18.93,0,0,1-3.2-6.16A26.45,26.45,0,0,1,0,43.37Zm9.41,0a21.1,21.1,0,0,0,.43,4.46,13.07,13.07,0,0,0,1.24,3.47A6.71,6.71,0,0,0,13,53.58a4.29,4.29,0,0,0,5,0,6.42,6.42,0,0,0,1.92-2.28,13.43,13.43,0,0,0,1.21-3.47,21.07,21.07,0,0,0,.44-4.46A21.09,21.09,0,0,0,21.14,39a13.12,13.12,0,0,0-1.21-3.48A6.48,6.48,0,0,0,18,33.22a4.29,4.29,0,0,0-5,0,6.79,6.79,0,0,0-1.91,2.25A12.77,12.77,0,0,0,9.84,39,21.11,21.11,0,0,0,9.41,43.37Z"/><path class="cls-1" d="M47.56,39.36a3.74,3.74,0,0,0,.62,0h.44a3.67,3.67,0,0,0,3.87-3.86,3.75,3.75,0,0,0-1-2.7,3.47,3.47,0,0,0-2.59-1A3.4,3.4,0,0,0,46.21,33a4.42,4.42,0,0,0-1,3H36.76a16.79,16.79,0,0,1,1.37-5.13,12.33,12.33,0,0,1,2.68-3.8,11,11,0,0,1,3.81-2.34,14.95,14.95,0,0,1,9.56-.05,10.35,10.35,0,0,1,3.63,2.15,9.35,9.35,0,0,1,2.33,3.38A11.58,11.58,0,0,1,61,34.67,8.81,8.81,0,0,1,60,39a8.93,8.93,0,0,1-2.72,2.91,7.79,7.79,0,0,1,4.21,3.15A9.91,9.91,0,0,1,63,50.67a12,12,0,0,1-1,5,11.41,11.41,0,0,1-2.86,3.86A13.09,13.09,0,0,1,54.74,62a16.75,16.75,0,0,1-5.56.88,15.91,15.91,0,0,1-7.3-1.66A12.22,12.22,0,0,1,36.67,56a10.85,10.85,0,0,1-1.19-3.23,18,18,0,0,1-.3-3.28h9a5.66,5.66,0,0,0,1.45,3.94,4.91,4.91,0,0,0,3.63,1.35,4.29,4.29,0,0,0,3.53-1.37A5.16,5.16,0,0,0,53.93,50a4.42,4.42,0,0,0-4.56-4.84,4.91,4.91,0,0,0-.88.07l-.93.17Z"/><path class="cls-1" d="M4.33,10.84v6.65H1.86V1.11h2.8a12.58,12.58,0,0,1,3.1.29A4.17,4.17,0,0,1,9.63,2.48,4.67,4.67,0,0,1,11,6a4.48,4.48,0,0,1-1.5,3.56,6,6,0,0,1-4.07,1.32Zm0-2.29h.92q3.4,0,3.41-2.62c0-1.69-1.18-2.54-3.52-2.54H4.33Z"/><path class="cls-1" d="M11.86,9.23A8.7,8.7,0,0,1,14,3.29,6.69,6.69,0,0,1,19.26.81a6.6,6.6,0,0,1,5.17,2.5,8.89,8.89,0,0,1,2.16,6,8.76,8.76,0,0,1-2.17,6,6.7,6.7,0,0,1-10.17.28A8.69,8.69,0,0,1,11.86,9.23Zm2.15,0a6.39,6.39,0,0,0,1.57,4.46,4.7,4.7,0,0,0,7.34,0A6.53,6.53,0,0,0,24.44,9.3a6.57,6.57,0,0,0-1.5-4.39,4.76,4.76,0,0,0-7.42,0A6.42,6.42,0,0,0,14,9.26Z"/><path class="cls-1" d="M32.31,1.11V17.49H29.84V1.11Z"/><path class="cls-1" d="M36.25,17.49V0L48.19,12.49V1.11h2.47V18.49L38.72,6V17.49Z"/><path class="cls-1" d="M59.1,3.44V17.49H56.63v-14H52.87V1.11h10V3.44Z"/></svg>