<svg id="レイヤー_1" data-name="レイヤー 1" xmlns="http://www.w3.org/2000/svg" viewBox="0 0 65.08 62.9"><defs><style>.cls-1{fill:#fff;}</style></defs><path class="cls-1" d="M0,43.37a26.43,26.43,0,0,1,1.14-8,18.54,18.54,0,0,1,3.2-6.14,14.49,14.49,0,0,1,4.89-3.94,14,14,0,0,1,6.28-1.39,14,14,0,0,1,6.25,1.39,14.24,14.24,0,0,1,4.9,3.94,18.88,18.88,0,0,1,3.18,6.14,26.75,26.75,0,0,1,1.14,8,26.77,26.77,0,0,1-1.14,8,19.09,19.09,0,0,1-3.18,6.16A13.87,13.87,0,0,1,15.51,62.9a14,14,0,0,1-6.28-1.39,14.34,14.34,0,0,1-4.89-4,18.74,18.74,0,0,1-3.2-6.16A26.45,26.45,0,0,1,0,43.37Zm9.4,0a21.07,21.07,0,0,0,.44,4.46,12.73,12.73,0,0,0,1.24,3.47A6.71,6.71,0,0,0,13,53.58a4.17,4.17,0,0,0,2.52.81,4.22,4.22,0,0,0,2.5-.81,6.3,6.3,0,0,0,1.91-2.28,13.43,13.43,0,0,0,1.21-3.47,22.62,22.62,0,0,0,0-8.88,13.12,13.12,0,0,0-1.21-3.48A6.36,6.36,0,0,0,18,33.22a4.22,4.22,0,0,0-2.5-.81,4.17,4.17,0,0,0-2.52.81,6.79,6.79,0,0,0-1.91,2.25A12.44,12.44,0,0,0,9.84,39,21.09,21.09,0,0,0,9.4,43.37Z"/><path class="cls-1" d="M63,61.87H35.1l8.6-9.49Q47.09,48.61,49,46a34.54,34.54,0,0,0,2.87-4.43,11.71,11.71,0,0,0,1.17-2.93,9.33,9.33,0,0,0,.23-1.91,5.16,5.16,0,0,0-.25-1.61,4.13,4.13,0,0,0-.76-1.4,3.88,3.88,0,0,0-1.22-1,3.64,3.64,0,0,0-1.67-.37,3.51,3.51,0,0,0-2.88,1.28,4.88,4.88,0,0,0-1,3.18,13.08,13.08,0,0,0,.14,1.56H35.79a16.62,16.62,0,0,1,1-5.87A13.52,13.52,0,0,1,39.56,28,12.38,12.38,0,0,1,43.81,25a14,14,0,0,1,5.4-1,14.23,14.23,0,0,1,5.36,1,12.45,12.45,0,0,1,7,6.92,13.62,13.62,0,0,1,1,5.26,12.79,12.79,0,0,1-1.22,5.6A19.31,19.31,0,0,1,57.53,48l-5.74,5.73H63Z"/><path class="cls-1" d="M6.56,10.84v6.65H4.08V1.11h2.8A12.62,12.62,0,0,1,10,1.4a4.17,4.17,0,0,1,1.87,1.08A4.67,4.67,0,0,1,13.27,6a4.45,4.45,0,0,1-1.51,3.56A5.92,5.92,0,0,1,7.7,10.84Zm0-2.29h.92q3.4,0,3.4-2.62T7.37,3.39H6.56Z"/><path class="cls-1" d="M14.09,9.23a8.7,8.7,0,0,1,2.18-5.94A6.69,6.69,0,0,1,21.49.81a6.57,6.57,0,0,1,5.16,2.5,8.85,8.85,0,0,1,2.17,6,8.72,8.72,0,0,1-2.18,6,6.69,6.69,0,0,1-10.16.28A8.69,8.69,0,0,1,14.09,9.23Zm2.15,0a6.43,6.43,0,0,0,1.56,4.46,4.71,4.71,0,0,0,7.35,0A6.59,6.59,0,0,0,26.67,9.3a6.57,6.57,0,0,0-1.5-4.39,4.76,4.76,0,0,0-7.42,0A6.42,6.42,0,0,0,16.24,9.26Z"/><path class="cls-1" d="M34.54,1.11V17.49H32.07V1.11Z"/><path class="cls-1" d="M38.47,17.49V0l12,12.49V1.11h2.47V18.49L41,6V17.49Z"/><path class="cls-1" d="M61.33,3.44V17.49H58.86v-14H55.09V1.11h10V3.44Z"/></svg>