<svg id="レイヤー_1" data-name="レイヤー 1" xmlns="http://www.w3.org/2000/svg" viewBox="0 0 63.84 62.9"><defs><style>.cls-1{fill:#fff;}</style></defs><path class="cls-1" d="M0,43.38a26.13,26.13,0,0,1,1.16-8A18.6,18.6,0,0,1,4.4,29.23a14.77,14.77,0,0,1,5-3.94,14.41,14.41,0,0,1,6.37-1.39,14.24,14.24,0,0,1,11.32,5.33,18.75,18.75,0,0,1,3.22,6.14,26.13,26.13,0,0,1,1.16,8,26.11,26.11,0,0,1-1.16,8,19,19,0,0,1-3.22,6.16A14.15,14.15,0,0,1,15.74,62.9a14.41,14.41,0,0,1-6.37-1.39,14.61,14.61,0,0,1-5-4,18.8,18.8,0,0,1-3.24-6.16A26.11,26.11,0,0,1,0,43.38Zm9.54,0A20.38,20.38,0,0,0,10,47.83a12.73,12.73,0,0,0,1.25,3.47,6.69,6.69,0,0,0,1.95,2.28,4.26,4.26,0,0,0,2.55.81,4.34,4.34,0,0,0,2.54-.81,6.36,6.36,0,0,0,1.94-2.28,13.43,13.43,0,0,0,1.23-3.47,20.4,20.4,0,0,0,.44-4.45A20.47,20.47,0,0,0,21.45,39a13.11,13.11,0,0,0-1.23-3.48,6.42,6.42,0,0,0-1.94-2.25,4.34,4.34,0,0,0-2.54-.81,4.26,4.26,0,0,0-2.55.81,6.77,6.77,0,0,0-1.95,2.25A12.44,12.44,0,0,0,10,39,20.45,20.45,0,0,0,9.54,43.38Z"/><path class="cls-1" d="M53.16,32.88H47.63V24.59H63V62.26H53.16Z"/><path class="cls-1" d="M5.31,10.84v6.65H2.84V1.11h2.8a12.58,12.58,0,0,1,3.1.29,4.17,4.17,0,0,1,1.87,1.08A4.67,4.67,0,0,1,12,6a4.45,4.45,0,0,1-1.51,3.56,5.92,5.92,0,0,1-4.06,1.32Zm0-2.29h.92q3.4,0,3.4-2.62T6.12,3.39H5.31Z"/><path class="cls-1" d="M12.84,9.23A8.7,8.7,0,0,1,15,3.29,6.69,6.69,0,0,1,20.24.81a6.6,6.6,0,0,1,5.17,2.5,8.89,8.89,0,0,1,2.16,6,8.76,8.76,0,0,1-2.17,6,6.7,6.7,0,0,1-10.17.28A8.69,8.69,0,0,1,12.84,9.23Zm2.15,0a6.39,6.39,0,0,0,1.57,4.46,4.7,4.7,0,0,0,7.34,0A6.53,6.53,0,0,0,25.42,9.3a6.57,6.57,0,0,0-1.5-4.39,4.76,4.76,0,0,0-7.42,0A6.42,6.42,0,0,0,15,9.26Z"/><path class="cls-1" d="M33.29,1.11V17.49H30.82V1.11Z"/><path class="cls-1" d="M37.23,17.49V0L49.17,12.49V1.11h2.47V18.49L39.7,6V17.49Z"/><path class="cls-1" d="M60.08,3.44V17.49H57.61v-14H53.85V1.11h10V3.44Z"/></svg>