<?xml version="1.0" encoding="utf-8"?>
<!-- Generator: Adobe Illustrator 25.3.1, SVG Export Plug-In . SVG Version: 6.00 Build 0)  -->
<svg version="1.1" id="レイヤー_1" xmlns="http://www.w3.org/2000/svg" xmlns:xlink="http://www.w3.org/1999/xlink" x="0px"
	 y="0px" viewBox="0 0 200 200" style="enable-background:new 0 0 200 200;" xml:space="preserve">
<style type="text/css">
	.st0{fill:#FFFFFF;}
</style>
<path class="st0" d="M197.3,172.9L158.3,134c-1.8-1.8-4.1-2.7-6.6-2.7h-6.4c10.8-13.8,17.2-31.1,17.2-50C162.5,36.4,126.1,0,81.2,0
	S0,36.4,0,81.3s36.4,81.2,81.3,81.2c18.9,0,36.2-6.4,50-17.2v6.4c0,2.5,1,4.9,2.7,6.6l38.9,38.9c3.7,3.7,9.6,3.7,13.2,0l11.1-11.1
	C200.9,182.5,200.9,176.6,197.3,172.9z M81.2,131.2c-27.6,0-50-22.3-50-50c0-27.6,22.3-50,50-50c27.6,0,50,22.3,50,50
	C131.3,108.9,108.9,131.2,81.2,131.2z"/>
</svg>
