<svg xmlns="http://www.w3.org/2000/svg" xmlns:xlink="http://www.w3.org/1999/xlink" viewBox="0 0 1220.46 120.6"><defs><style>.cls-1{fill:#ff0;}.cls-10,.cls-11,.cls-12,.cls-2,.cls-3,.cls-4,.cls-5,.cls-6,.cls-7,.cls-8,.cls-9{fill:none;stroke-miterlimit:10;}.cls-10,.cls-11,.cls-2,.cls-3,.cls-4,.cls-5,.cls-6,.cls-7,.cls-8,.cls-9{stroke-width:5px;}.cls-2{stroke:url(#darken-color02);}.cls-3{stroke:url(#darken-color02-2);}.cls-4{stroke:url(#darken-color02-3);}.cls-5{stroke:url(#darken-color02-4);}.cls-6{stroke:url(#darken-color02-5);}.cls-7{stroke:url(#darken-color02-6);}.cls-8{stroke:url(#darken-color02-7);}.cls-9{stroke:url(#darken-color02-8);}.cls-10{stroke:url(#darken-color02-9);}.cls-11{stroke:url(#darken-color02-10);}.cls-12{stroke-width:4.08px;stroke:url(#名称未設定グラデーション_31);}</style><linearGradient id="darken-color02" x1="23.6" y1="48.89" x2="107.65" y2="48.89" gradientTransform="matrix(1, 0, -0.18, 1, 9.62, 0)" gradientUnits="userSpaceOnUse"><stop offset="0" stop-color="#7391d9"/><stop offset="1" stop-color="#ee96cd"/></linearGradient><linearGradient id="darken-color02-2" x1="124.62" y1="51.83" x2="227.08" y2="51.83" xlink:href="#darken-color02"/><linearGradient id="darken-color02-3" x1="248.48" y1="53.76" x2="349.51" y2="53.76" xlink:href="#darken-color02"/><linearGradient id="darken-color02-4" x1="394.36" y1="53.76" x2="459.58" y2="53.76" xlink:href="#darken-color02"/><linearGradient id="darken-color02-5" x1="500.08" y1="53.18" x2="584.47" y2="53.18" xlink:href="#darken-color02"/><linearGradient id="darken-color02-6" x1="613.89" y1="56.85" x2="712.09" y2="56.85" xlink:href="#darken-color02"/><linearGradient id="darken-color02-7" x1="747.3" y1="57.53" x2="818.47" y2="57.53" xlink:href="#darken-color02"/><linearGradient id="darken-color02-8" x1="866.96" y1="59.94" x2="947.99" y2="59.94" xlink:href="#darken-color02"/><linearGradient id="darken-color02-9" x1="974.7" y1="52.66" x2="1075.18" y2="52.66" xlink:href="#darken-color02"/><linearGradient id="darken-color02-10" x1="1096.25" y1="55.32" x2="1196.86" y2="55.32" xlink:href="#darken-color02"/><linearGradient id="名称未設定グラデーション_31" x1="1107.21" y1="24.71" x2="1137.29" y2="24.71" gradientTransform="matrix(1, 0, -0.18, 1, 9.62, 0)" gradientUnits="userSpaceOnUse"><stop offset="0" stop-color="#8f92d6"/><stop offset="1" stop-color="#c894d1"/></linearGradient></defs><g id="レイヤー_2" data-name="レイヤー 2"><g id="レイヤー_1-2" data-name="レイヤー 1"><polygon class="cls-1" points="1220.46 80.6 19.96 80.6 0 120.6 1200.5 120.6 1220.46 80.6"/><path class="cls-2" d="M22.47,81.59C19.5,76,28,68.39,32.86,74.44c7.67,9.57,25.62,8.8,43.07,4.07,9.57-2.53,10.12,9.35.72,12.1C53.67,97.43,28.18,92.26,22.47,81.59ZM42.71,36.71c-9,1.65-8.36-10,1.68-11.44,10.72-1.54,26.25-1.65,35,.33S83.9,38.91,75.32,37A83.13,83.13,0,0,0,42.71,36.71ZM89.93,25.93a29.61,29.61,0,0,0-6.8-7.59c-4.76-3,1.37-9,5.76-6.49,2.5,1.43,7,5,8.63,7.81C100.37,24.72,92.17,30.66,89.93,25.93Zm7-14.52C92,8.55,98.06,2.28,102.6,4.59c2.63,1.32,7.18,4.84,8.89,7.59,3,4.95-5,11-7.39,6.38C103.11,16.69,98.78,12.51,96.89,11.41Z"/><path class="cls-3" d="M125,93.8c-2.53,0-4.53-1.76-4.08-4.29a7.09,7.09,0,0,1,1.53-3.08,63.43,63.43,0,0,0,9.86-19.14,5.22,5.22,0,0,1,5.08-3.85c2.53,0,4.75,1.76,4.21,4.84-.7,4-6.38,16.83-11.28,22.77A7.07,7.07,0,0,1,125,93.8ZM139.17,96l7.14-38.61c-.11,0-12.5,1.65-13.82,1.65-2.64,0-3.66-2.31-3.28-4.51a4.74,4.74,0,0,1,4.24-4.07c1.45-.11,3.23-.22,5.23-.33a105.9,105.9,0,0,0,8.07-8.36,70.55,70.55,0,0,0-10.64-10.12A3.64,3.64,0,0,1,134.66,28a5.49,5.49,0,0,1,5.17-4.4,4.71,4.71,0,0,1,2.31.66l.6.33c3.95-4.95,9.22-13,11.7-18.92a5.24,5.24,0,0,1,5-3.19c2.64,0,5.19,1.76,4.68,4.62-.64,3.63-10.52,17.27-15.1,22.66,1.51,1.43,2.88,3,4.17,4.4a158.43,158.43,0,0,0,11.17-15.95,5.14,5.14,0,0,1,4.56-2.75c2.75,0,5.15,2,4.65,4.84S162.46,36.93,151,48.92c3.71-.44,7.18-.77,9.77-1.1-1.82-3.41-1.87-3.74-1.7-4.73.37-2.09,2.73-3.63,4.93-3.63,4.73,0,8.76,11.44,8,15.51-.57,3.19-3.37,5.39-5.79,5.39-1.65,0-3-1.1-3.23-3.52-.11-.66-.08-1.43-.18-2.09-1.6.33-3.86.66-6.47,1.1L149.51,96a6.25,6.25,0,0,1-6.19,5.17c-2.53,0-4.77-1.65-4.17-5.06ZM159.8,82.58a39.73,39.73,0,0,0-2.68-13.53,4,4,0,0,1-.34-2.42A4.8,4.8,0,0,1,161.6,63a4.32,4.32,0,0,1,3.54,1.76c2.82,4,5,13.75,4.5,16.28a6.85,6.85,0,0,1-6.27,5.61C161.39,86.65,159.73,85.44,159.8,82.58Zm24.59-63.36c-3,0-4-2.09-3.64-4.29a5.54,5.54,0,0,1,5.32-4.62c5.85-.11,13.46-.22,20.72-.22,5.06,0,10.1.11,14.28.11,6.47.11,10.67,3.74,9.18,12.21C230,23.73,228,33.3,224.41,39.9c-4.08,7.59-10,11.11-17.47,11.11-4.62,0-9.16-.44-8.29-5.39.45-2.53,2.44-5.06,5.19-5.06a4.3,4.3,0,0,1,1.19.11,14.14,14.14,0,0,0,3.53.55c3.19,0,5.57-1.65,7.38-5.06a55.76,55.76,0,0,0,4.55-13.31c.47-2.64-.75-3.85-2.84-3.85-3.06-.11-6.91-.11-10.87-.11C203,33.74,194,44.41,181.69,52A8.86,8.86,0,0,1,177,53.54a3.84,3.84,0,0,1-4-4.62,7.07,7.07,0,0,1,3.79-4.62c10.85-6,17.73-13.86,20.63-25.3-4.73,0-9.26.11-12.91.22Zm18.28,79.09c-2.89.22-6.43.33-10.06.33-13.42,0-21.78,0-20.32-10.78.22-1.87.57-3.85.93-5.94.92-5.17,2.11-10.67,2.89-14.52a12.71,12.71,0,0,1,12.13-10.12c3.1-.11,6.64-.22,10-.22,4.07,0,8.12.11,11.4.22,5.46.22,9.86,4,9.07,9.68-.61,4.07-1.43,10-2.33,15.07-.36,2.09-.69,4-1.09,5.61C214.07,93.58,209.59,97.76,202.67,98.31Zm5.77-28.93c.43-3.74-1.21-3.74-11-3.74-2.65,0-5.4,0-7.39.11-4.2.11-4.62,1.87-7,15.29-1.47,8.36-1.25,8.36,10.52,8.36,10.11,0,11.57-.11,12.85-7.37C207.14,78,208,72.46,208.44,69.38Z"/><path class="cls-4" d="M341.68,48.59c-6.82,0-26.38-21.34-33.05-30.91-.78-1.21-1.63-2-2.62-2-.77,0-1.88.66-3.1,2-10.8,11.33-27.83,25-40.72,32.56a9.53,9.53,0,0,1-4.89,1.54,4.69,4.69,0,0,1-4.84-5.61,7.08,7.08,0,0,1,4.3-5.06c13.68-6.49,29.78-19.8,39.82-30.58A14.44,14.44,0,0,1,307,5.58a11.49,11.49,0,0,1,9.47,4.95A100.05,100.05,0,0,0,347,37.7a4.22,4.22,0,0,1,2.16,4.62A8.14,8.14,0,0,1,341.68,48.59Zm-59.74-6.82a6.15,6.15,0,0,1,6.27-5c2.86,0,5.41,1.76,4.93,5.06l-.44,2.53c-.8,4.51-2.28,12.32-2.86,15C282.55,97,250,101.94,248.45,101.94c-3.85,0-5.21-2.86-4.73-5.61a6,6,0,0,1,4.62-5C269.57,87,277,70.59,279,58.93c.62-3.52,2.27-13.53,2.89-17ZM310.57,41a6.31,6.31,0,0,1,6.5-5.06c2.86,0,5.41,1.76,4.83,5.06l-9.7,55a6.5,6.5,0,0,1-6.52,5.17c-2.86,0-5.41-1.76-4.81-5.17Z"/><path class="cls-5" d="M393.48,74.22c1.6-11.55,4.46-20.9,7.06-32.56,1.59-7.15,4.26-17.93,5.25-24.75,1.21-8.14,13.53-7.48,12-.22-1.45,6.93-4.06,17.38-5.91,24.75-2.82,11.66-6.24,21.67-7.68,32.34-2.17,16.06,17.6,15,39.4-.11,8.14-5.61,13.06,4.51,5.9,9.57C425,100.73,389.24,103.92,393.48,74.22Z"/><path class="cls-6" d="M507.54,91.16c-4.6,7.37-15.7,4.18-9.43-5.17a420.6,420.6,0,0,0,27.66-47.74c-5.94.66-11.51.44-15.78-1.54-5.19-2.42-2.32-12.43,5.4-9.46,4.33,1.65,9.72,1.65,15.07.66,1.38-4.07,1.46-7,2-11.88.67-6.27,11.07-6.6,11.1-.55a35.15,35.15,0,0,1-1.44,8.8c1.67-.77,3.13-1.54,4.59-2.31,6.37-3.74,11.58,5.39,2.62,9.46a84.69,84.69,0,0,1-11.89,4.4A528.79,528.79,0,0,1,507.54,91.16Zm27.6-5c-3.8-5.28,4.55-14,9.24-8.14s11.41,5.17,24.48,4.07c8.14-.66,6.94,9.9-.57,11.33C551.78,96.66,539,91.6,535.14,86.21Zm19.2-38.39c-6.09,2.09-7.91-6.93-.2-9.46a40.68,40.68,0,0,1,26.3.55c6.9,2.64,2.23,12.32-4.3,10C570.35,46.83,560.56,45.62,554.34,47.82Z"/><path class="cls-7" d="M683.32,47.49c-3.71,21-15.72,38.61-38,50.27-9.69,5.06-12.31-5.06-4.83-8.8,18.7-9.35,28.75-23.32,31.88-41l.44-2.53c-5.94,0-11.79.11-17.64.22-1.1,6.27-2.13,12.1-3,16.39a6.82,6.82,0,0,1-6.61,5.72c-2.86,0-5.38-2-4.51-5.61,1-4.51,2.13-10.23,3.2-16.28-7,.22-13.83.44-20.05.77-8.66.44-6.48-10,1.14-10.23,6.64-.22,13.59-.33,20.54-.44.8-5.17,1.55-10,2-13.75,1-7.48,11.92-8.36,11-.44-.42,3.63-1.18,8.58-2,14l17.77-.33c1-5.72,2-11.11,2.39-14.19,1.17-9.13,12.62-8.58,11-.11-.89,4.4-1.74,9.24-2.61,14.19,7.06-.11,14.12-.22,20.72-.22,10.36-.11,6.11,10.89-1.55,10.67-6.79-.22-13.7-.33-20.85-.33Z"/><path class="cls-8" d="M793.39,87c-13.72.44-21.29.33-31.9,0-11.14-.44-15.74-6.16-14.44-15.4,1.59-10.89,3-18.81,5-28.27,1.77-8.14,7.86-14.63,19.51-15.18,12.42-.55,22.61-.33,33.22,0,9.07.33,14.16,7,13.16,14-1.44,10-3.17,19.8-5.16,29.26C810.8,80.6,803.79,86.65,793.39,87Zm12.32-41.14c.61-4.73-1.21-7.48-6.79-7.7-9.4-.33-18.09-.33-26.73,0-6.2.22-8.61,3.3-9.62,7.81a214.25,214.25,0,0,0-4.1,23.21c-.63,4.84,1.2,6.93,7.21,7.15,10,.33,16.52.55,26.62,0,4.66-.22,8.19-2.75,9.22-7.37C803.13,61.68,804.74,53.21,805.71,45.84Z"/><path class="cls-9" d="M890.78,46.83c-3.41-3.74-9.89-6.93-14.84-8.14-6.33-1.54-1.62-12.65,6.33-10.34,5.54,1.65,13.27,4.62,17.89,8.36,3,2.42,2,6.6-.18,9.13S893.65,49.91,890.78,46.83ZM876,92.26c-9.87,3-11.18-9.57-1.64-11.88C897.4,74.77,923.64,52,938.55,30.44c4.72-6.82,15.24-2.2,8.87,6.49C929.41,61.68,902.67,84.23,876,92.26Z"/><path class="cls-10" d="M982.65,58.6c-4.07,0-5.64-3-5.12-5.94a7.23,7.23,0,0,1,7.21-5.94h83.49c4,0,5.31,3,4.8,5.83a7.07,7.07,0,0,1-6.89,6.05Z"/><path class="cls-11" d="M1141.51,87.79c-2.86,0-5.59-.11-8.34-.11a3.76,3.76,0,0,1,1.54,3.74c-1,5.83-20.7,15.07-39.53,15.18-3.74,0-5.18-2.42-4.75-4.84s2.44-4.51,6-4.51h.55c10.89,0,22.81-4,28.33-8.47a10.15,10.15,0,0,1,1.87-1.21c-2.2,0-4.16-.11-6.25-.11-7.46-.11-10.78-3.74-10.26-8.58.43-3.08.94-6.6,1.53-9.9s1.31-6.82,1.9-9.57c.92-4,4.74-8.14,12.9-8.25,5.52-.11,11.35-.11,17.18-.11,7.26,0,14.63,0,22.18.22,6.25.11,10,3.85,9.66,7.59a95.76,95.76,0,0,1-1.32,10c-.61,3.41-1.34,6.93-2.21,10-1.13,4.51-6.24,8.58-13.08,8.69-2.42,0-4.86.11-7.39.11-.36,1.43-.62,2.86-.89,4.4-.44,3.74,2.9,4.18,10.05,4.18,10.78,0,14.55-2.09,15.56-7.81a5.88,5.88,0,0,1,6-4.84c2.53,0,5.57,1.43,4.88,5.39-2.45,13.86-14.31,15.62-27.95,15.62-10.34,0-21.12,0-19.31-10.23ZM1145,37.15a2.77,2.77,0,0,1,2.92,3.41,4.33,4.33,0,0,1-4.25,3.52c-2.66.11-8.62.22-14.67.22-7.48,0-15-.11-17.23-.22-5.23-.33-8.54-2.75-7.79-8.25.5-4.07,1-7.7,1.65-11.22s1.35-7,2.25-10.89c1-4.62,5.54-7.7,10.49-7.7H1150a2.8,2.8,0,0,1,3,3.41,4.38,4.38,0,0,1-4.36,3.52H1136l-.7,4c2.64,0,4.71.11,6,.11,6.87.33,6.55,3.41,5.62,8.69s-2.7,7.15-14.46,7.15l-.8,4.51c5.72,0,11.13-.11,13.24-.22ZM1127.52,13H1120c-1.78.11-2.94.44-3.4,2.42l-.38,1.54h10.56ZM1124,33c-3.85,0-7.71,0-10.55-.11l-.25,2.09c-.32,2.42.67,2.42,10,2.42Zm40.68,35.74h-43l-.17,1h43Zm1-7.1c.29-2.31-.5-3.41-4-3.52-6.14-.11-13.5-.22-20.64-.22-4.41,0-8.81,0-12.67.11-3.32.11-4.82,1.76-5.26,3.63l-.06.33h42.57Zm-2.55,15.07h-42.68l-.1.55c-.55,3.74.31,3.85,23.19,3.85,16.5,0,18.37,0,19.38-3.85Zm3.72-54.05c-5.32,5.83-7.32,7.81-10.07,7.81-2.53,0-4.75-1.76-4.34-4.07a5.07,5.07,0,0,1,1.67-2.64A70,70,0,0,0,1168.3,6.46,4.83,4.83,0,0,1,1172.69,4c2.64,0,5.28,1.87,4.81,4.51a5,5,0,0,1-.6,1.54,49.61,49.61,0,0,1-3.07,4.29l23.23-.11c3,0,4,2.09,3.67,4.18a5.1,5.1,0,0,1-5.16,4.29Zm-7.46,18.59c-3.08,0-4.23-2.2-3.86-4.29a5.23,5.23,0,0,1,5.35-4.18h31c3,0,4,2.09,3.67,4.18a5.1,5.1,0,0,1-5.16,4.29Z"/><path class="cls-12" d="M1140.59,24.23c0-.68-.54-.95-2.18-1h-23.64l-.53,3c6.27,0,18.91,0,23.18-.07,2.14-.07,2.76-.27,3-1Z"/></g></g></svg>