<svg xmlns="http://www.w3.org/2000/svg" xmlns:xlink="http://www.w3.org/1999/xlink" viewBox="0 0 1150 115.01"><defs><style>.cls-1{fill:#ff0;}.cls-10,.cls-11,.cls-2,.cls-3,.cls-4,.cls-5,.cls-6,.cls-7,.cls-8,.cls-9{fill:none;stroke-miterlimit:10;stroke-width:5px;}.cls-2{stroke:url(#darken-color02);}.cls-3{stroke:url(#darken-color02-2);}.cls-4{stroke:url(#darken-color02-3);}.cls-5{stroke:url(#darken-color02-4);}.cls-6{stroke:url(#darken-color02-5);}.cls-7{stroke:url(#darken-color02-6);}.cls-8{stroke:url(#darken-color02-7);}.cls-9{stroke:url(#darken-color02-8);}.cls-10{stroke:url(#darken-color02-9);}.cls-11{stroke:url(#darken-color02-10);}</style><linearGradient id="darken-color02" x1="62.92" y1="51.68" x2="161.12" y2="51.68" gradientTransform="matrix(1, 0, -0.35, 1, -30.91, 0)" gradientUnits="userSpaceOnUse"><stop offset="0" stop-color="#7391d9"/><stop offset="1" stop-color="#ee96cd"/></linearGradient><linearGradient id="darken-color02-2" x1="191.33" y1="52.36" x2="262.5" y2="52.36" xlink:href="#darken-color02"/><linearGradient id="darken-color02-3" x1="302.99" y1="54.77" x2="384.03" y2="54.77" xlink:href="#darken-color02"/><linearGradient id="darken-color02-4" x1="423.85" y1="48.19" x2="502.11" y2="48.19" xlink:href="#darken-color02"/><linearGradient id="darken-color02-5" x1="525.75" y1="48.76" x2="629.75" y2="48.76" xlink:href="#darken-color02"/><linearGradient id="darken-color02-6" x1="651.72" y1="47.59" x2="753.29" y2="47.59" xlink:href="#darken-color02"/><linearGradient id="darken-color02-7" x1="775.06" y1="45.11" x2="862.94" y2="45.11" xlink:href="#darken-color02"/><linearGradient id="darken-color02-8" x1="896.01" y1="50.67" x2="969.16" y2="50.67" xlink:href="#darken-color02"/><linearGradient id="darken-color02-9" x1="1014.99" y1="54.77" x2="1096.03" y2="54.77" xlink:href="#darken-color02"/><linearGradient id="darken-color02-10" x1="1138.16" y1="49.35" x2="1185.46" y2="49.35" xlink:href="#darken-color02"/></defs><g id="レイヤー_2" data-name="レイヤー 2"><g id="レイヤー_1-2" data-name="レイヤー 1"><polygon class="cls-1" points="1150 75.01 18.81 75.01 0 115.01 1131.19 115.01 1150 75.01"/><path class="cls-2" d="M85.27,42.32c-7.41,21-22.53,38.61-46.88,50.27-10.58,5.06-11.41-5.06-3.28-8.8,20.35-9.35,32.87-23.32,39.11-41l.9-2.53c-5.94,0-11.81.11-17.68.22-2.21,6.27-4.27,12.1-5.89,16.39a8.55,8.55,0,0,1-7.63,5.72c-2.86,0-5-2-3.52-5.61,1.81-4.51,3.94-10.23,6.07-16.28-7,.22-13.9.44-20.18.77-8.74.44-4.72-10,2.95-10.23,6.67-.22,13.64-.33,20.61-.44,1.72-5.17,3.31-10,4.41-13.75,2.31-7.48,13.4-8.36,11.05-.44-1.06,3.63-2.7,8.58-4.49,14l17.83-.33c2-5.72,3.91-11.11,4.89-14.19,2.78-9.13,14.14-8.58,11-.11-1.66,4.4-3.37,9.24-5.12,14.19,7.08-.11,14.16-.22,20.76-.22,10.38-.11,4.19,10.89-3.43,10.67-6.74-.22-13.63-.33-20.78-.33Z"/><path class="cls-3" d="M183.38,81.81c-13.79.44-21.34.33-31.9,0-11.06-.44-14.66-6.16-11.73-15.4,3.51-10.89,6.31-18.81,10-28.27C152.92,30,160.16,23.51,171.91,23c12.51-.55,22.66-.33,33.22,0,9,.33,12.91,7,10.69,14-3.2,10-6.65,19.8-10.32,29.26A23.85,23.85,0,0,1,183.38,81.81ZM203,40.67c1.45-4.73.11-7.48-5.42-7.7-9.35-.33-18-.33-26.73,0-6.24.22-9.2,3.3-11,7.81A244.41,244.41,0,0,0,151.61,64c-1.49,4.84,0,6.93,5.95,7.15,9.89.33,16.41.55,26.62,0a11.48,11.48,0,0,0,10.51-7.37C197.59,56.51,200.68,48,203,40.67Z"/><path class="cls-4" d="M279.85,41.66c-2.75-3.74-8.66-6.93-13.41-8.14-6.05-1.54.61-12.65,8.16-10.34,5.25,1.65,12.45,4.62,16.41,8.36,2.56,2.42.86,6.6-1.79,9.13S282.18,44.74,279.85,41.66ZM257,87.09c-10.4,3-9.5-9.57.45-11.88,24.09-5.61,54.34-28.38,73.05-49.94,5.93-6.82,15.63-2.2,7.72,6.49C315.86,56.51,285.14,79.06,257,87.09Z"/><path class="cls-5" d="M422.73,13.83c2-.66,3.87-1.32,5.32-2,7.33-3.63,10,5.5.47,9.57a82,82,0,0,1-13.38,3.63c-2.67,3.52-5.94,7.48-9.2,11.11,8.06-1.32,14.35,1.43,15.11,9.57,5.32-2.31,10.76-4.62,15.71-6.49,3-1.1,6.46-2.42,10-4.07,9.88-4.62,11,6.38,2.67,9.9-4.14,1.76-6.87,2.31-13.47,4.51-5.24,1.76-11,4-16.1,6.05a104.14,104.14,0,0,1-4.05,12.1c-1.77,4.4-5.45,6.71-8.24,6.82s-4.58-2-2.74-6.27c.93-2.31,1.93-4.84,2.75-7.15-1.19.55-2.37,1.1-3.45,1.65-16.74,8.8-17.42,15.4-12.34,18.48,4.78,3,16.34.77,22.09-.88,10.72-3,9.61,8.91-1.44,11.55-7.07,1.65-22.61,3.3-29.48-1.54-11.9-8.36-4-23.21,20.5-36.3,1.89-1,4.07-2.2,6.59-3.41.29-9.24-8.57-8.14-18.63.11l-.59.44a41.64,41.64,0,0,1-3.54,2.86c-7.95,5.39-13.77-.88-5.08-6.82a92.89,92.89,0,0,0,12.56-10.34c3-3.08,5.88-6.38,8.62-9.79-6.25.88-10.31.55-13.21-1.21-6.52-4,2.51-14.3,8.39-9.13,1.58,1.43,6.18.88,10.26.22.48-.11,1.14-.11,1.73-.22A62,62,0,0,0,415,7.56C417.81,1,427.91,1.62,426.23,7a27.52,27.52,0,0,1-3.13,6.38Z"/><path class="cls-6" d="M469.86,94.46c-3.08,0-4.82-2.86-3.81-5.72a7.66,7.66,0,0,1,4.07-4.07,86.68,86.68,0,0,0,18.16-11.55c2.2-5.94,4.35-11.11,6.1-16.06,1.36-3.85,1.67-5.06-2.83-5.06-1.76,0-3.23.11-4.88.11s-5.25-.11-3.62-4.73c.86-2.42,3.29-5,6.15-5h6.71c7.81,0,13.55.88,10.21,10.34-2.25,6.38-5.32,13.86-7.81,20.9a15.08,15.08,0,0,0,3.32,4.62,4.18,4.18,0,0,1,.16-2.64A5.56,5.56,0,0,1,506.6,72a48.28,48.28,0,0,0,18.82-6.27,4.47,4.47,0,0,1,2.36-.77c2.09,0,3,2.31,2.26,4.51a5.7,5.7,0,0,1-2.78,3.19c-6.56,3.63-15.27,6.82-21.74,7.7H504.2c3.4,2.2,8.79,4.4,24.19,4.4,11.44,0,24.29-1.21,32.89-1.87h.55c3.41,0,4.34,2.64,3.41,5.28a8.54,8.54,0,0,1-7.44,5.5c-7.16.66-17.73,1.32-28.18,1.32-27.72,0-34.56-5-39.45-13.53C485.85,85,474.15,94.46,469.86,94.46Zm38.17-72c-1.31-4.4-4.94-7.81-7.4-9.57a2.73,2.73,0,0,1-1-3.41C500.48,7,504,4.48,507,4.48c3.3,0,14.07,8.47,12.09,14.08-1.13,3.19-5.14,6.16-8.11,6.16A2.84,2.84,0,0,1,508,22.41Zm28.5,41.14-29.34.22c-2.75,0-3.37-2-2.71-3.85a5.78,5.78,0,0,1,5.43-3.85l14.59.11,2.37-6.71-10.6.11c-2.75,0-3.41-1.87-2.71-3.85A5.75,5.75,0,0,1,519,42l10.52.11L530.55,39a5.32,5.32,0,0,1,3.4-3.08c-1.25.11-2.46.11-3.67.11-10.89,0-14.57-1.43-10.88-11.88,1.24-3.52,3.33-9.13,11.91-9.13h6.38c3.19,0,4.18,0,5.07-2.53.54-1.54.48-2-1-2.09H527.66c-2.64,0-3.19-1.87-2.49-3.85a6.12,6.12,0,0,1,5.17-4.07h3.74c5.17,0,11.07.11,12.83.11,5.83,0,7.18,2.42,4.43,10.23-3.3,9.35-5.83,9.35-20.46,9.35-1.76,0-2.25.77-3.26,3.63s-.13,2.86,5.48,2.86c3.74,0,6.68-.22,8.1-3.63a5.71,5.71,0,0,1,5.31-3.52c2.42,0,4.34,1.43,3.41,4.07-1.56,4.4-5.31,8.8-12.41,9.9,1.76.33,3.13,1.43,2.39,3.52l-1.08,3.08,5.24.11h5.06L550.24,39a5.86,5.86,0,0,1,5-3.52c-7-1.43-5.15-6.6-4-10C553,20.54,555.07,15,563.54,15h6.71c4,0,4.33-.11,5.18-2.53.55-1.54.48-2-1-2.09H559.56c-2.53,0-3.08-1.87-2.42-3.74a6.15,6.15,0,0,1,5.21-4.18h3.74c5.39,0,11.62.11,13.38.11,6.38,0,7.1,3,4.54,10.23-3.22,9.13-5.39,9.35-21,9.35-2.09,0-2.44,1-3.33,3.52-1,2.75-.61,3,5.88,3,5.5,0,8.11-.22,9.72-4.18A5.72,5.72,0,0,1,580.58,21c2.42,0,4.41,1.54,3.48,4.18-3.57,10.12-13.45,11-21,11-1.65,0-3.15-.11-4.65-.22A2.25,2.25,0,0,1,559.59,39l-1.08,3.08L570,42c2.75,0,3.41,1.87,2.75,3.74a5.78,5.78,0,0,1-5.43,3.85l-11.4-.11-2.37,6.71,16.1-.11c2.75,0,3.41,1.87,2.71,3.85a5.89,5.89,0,0,1-5.43,3.85Zm10-14.08-5-.11-5.32.11-2.37,6.71,5.35.11,5-.11Zm-8.73,22.88a2.53,2.53,0,0,1-.86-3.19c.78-2.2,3.53-4.4,5.85-4.4a3.75,3.75,0,0,1,1.89.55,36.84,36.84,0,0,0,16.94,5.94c2.67.22,3.22,2.09,2.52,4.07a7.66,7.66,0,0,1-6.69,5C553.41,80.27,543.76,76.75,537.83,72.35Z"/><path class="cls-7" d="M599.57,74.44A206.89,206.89,0,0,0,616,59.26c6.78-7,12.76-1.54,8.59,3.74-4.78,6-12.77,13.42-18.84,18.48C596.28,89.4,590,81.92,599.57,74.44Zm21,9.79c-4.89-3,1.65-11.55,7.28-8.8C643.74,83,651.06,70,647.9,61.24c-1.5-4.18-5.86-9.9-7.31-12.65-3.64-7.15,7.11-11.44,9.71-7.26s6.58,10.34,8.39,15.18C666.48,76.86,640.55,96.11,620.54,84.23Zm40.32-48.51c-6.45,1.43-7.31-5.17-1.54-7.81,2.74-1.21,3.38-2.09,2.93-3.63-1-4.07-4.63-6.82-5.75-9.57-2.1-5.28,7.08-10.12,10-5.61s11.19,11.33,9.27,17.71c-.87,3.08-3.54,6.6-9.09,7.37C665.17,34.4,662.77,35.28,660.86,35.72ZM675.07,76.2A21.48,21.48,0,0,0,668.56,60c-4.25-3.85,3.88-11,8.76-7.37s9.58,9,10.19,17.6S674.92,84.12,675.07,76.2ZM684,42.87c-.4-2-3.35-6.71-4.86-8-3.9-3.3,3.51-9,7.27-6.27,2.09,1.54,5.69,5.39,6.62,8.36C694.54,42.21,685.12,47.71,684,42.87Zm15.57-6.71c-.55-1.87-3.65-6.49-5.31-7.7-4.09-3.08,3.07-9,7-6.49,2.24,1.43,6,5.17,7.06,8C710.11,35.17,700.83,40.89,699.53,36.16Z"/><path class="cls-8" d="M720.87,76.09c-.76-2.2.41-5.83,4.18-7.81,6.49-3.41,15.69-10.78,20.14-15.62,5-5.39,12.64-1.21,6.65,5.17-4.42,4.73-15.22,15.07-23.63,19.58C724.55,79.39,721.63,78.29,720.87,76.09Zm22-34.87c-7.49.33-4.91-9.79,3.35-10.12,8.8-.33,17.94-.66,26.89-.77,2-5.83,3.8-10.78,4.78-13.86,2.65-8.14,13.26-7.37,10.71-.44-1.31,3.41-3.21,8.47-5.33,14.19,8.5-.11,16.83,0,24.93.11,8.32.11,3.9,10.78-4.09,10.34s-16.23-.44-24.48-.44c-3.26,8.91-6.48,18.37-8.83,26-1.13,3.52-1.75,5.28-2.84,8.36-3.06,8.69-10.67,15.29-25.43,12.54-9.17-1.76-.88-13.09,5-10.89,4,1.43,8.61,2.09,10.86-4,2.86-7.81,7.28-20.35,11.25-31.9C760.79,40.56,751.76,40.89,742.85,41.22Zm51,32c-1.51-5.39-7-12.1-10.79-15-4.26-3.19,4-11.55,8.92-7.81,3.76,2.75,11.26,9.24,13.22,16.17.82,3-1.81,6.38-4.56,7.92S794.71,76.31,793.82,73.23Zm14.6-48c-6.27,0-9.54-5.06-7.33-11.33S810.18,2.5,816.45,2.5s9.62,5.17,7.41,11.44S814.69,25.27,808.42,25.27Zm5.94-16.83a8.73,8.73,0,0,0-7.44,5.5c-1,3,.59,5.5,3.56,5.5a8.74,8.74,0,0,0,7.44-5.5C819,11,817.33,8.44,814.36,8.44Z"/><path class="cls-9" d="M854.71,69.93c-12.29,6.16-14.05-5.06-5.29-8.69,23.73-9.9,51.88-30.14,71.21-49.72,7.52-7.59,14.71-.55,7.74,5.83-7.28,6.6-14.11,12.54-20.78,18-4.28,11.22-14.67,40-18.22,51-2.72,8.36-15,9.35-11.66.33,3.21-8.8,10-26.73,14.62-39.6A261.65,261.65,0,0,1,854.71,69.93Z"/><path class="cls-10" d="M991.85,41.66c-2.75-3.74-8.66-6.93-13.41-8.14-6.05-1.54.61-12.65,8.16-10.34,5.25,1.65,12.45,4.62,16.41,8.36,2.56,2.42.86,6.6-1.79,9.13S994.18,44.74,991.85,41.66ZM969,87.09c-10.4,3-9.5-9.57.45-11.88,24.09-5.61,54.34-28.38,73-49.94,5.93-6.82,15.63-2.2,7.72,6.49C1027.86,56.51,997.14,79.06,969,87.09Z"/><path class="cls-11" d="M1091,86.87c-2.92,8.91-15.58,9.24-12,.44,7.06-17.82,22.59-60.94,27.74-76.78,2.42-7.48,14.26-7.37,11.4.11-2,5.39-5.49,15-9.41,25.74a10.79,10.79,0,0,1,1.84.11c5.81,1,18.86,4.51,23,9.57,4,4.84-5.63,14.41-10.27,9.79-3.49-3.52-12.87-7.81-18.31-8.91C1099.52,62.12,1093.93,78,1091,86.87Z"/></g></g></svg>