<svg xmlns="http://www.w3.org/2000/svg" xmlns:xlink="http://www.w3.org/1999/xlink" viewBox="0 0 1262.15 159.63"><defs><style>.cls-1{fill:#ff0;}.cls-10,.cls-11,.cls-12,.cls-13,.cls-2,.cls-3,.cls-4,.cls-5,.cls-6,.cls-7,.cls-8,.cls-9{fill:none;stroke-miterlimit:10;}.cls-10,.cls-11,.cls-12,.cls-2,.cls-3,.cls-4,.cls-5,.cls-6,.cls-7,.cls-8,.cls-9{stroke-width:5px;}.cls-2{stroke:url(#darken-color02);}.cls-3{stroke:url(#darken-color02-2);}.cls-4{stroke:url(#darken-color02-3);}.cls-5{stroke:url(#darken-color02-4);}.cls-6{stroke:url(#darken-color02-5);}.cls-7{stroke:url(#darken-color02-6);}.cls-8{stroke:url(#darken-color02-7);}.cls-9{stroke:url(#darken-color02-8);}.cls-10{stroke:url(#darken-color02-9);}.cls-11{stroke:url(#darken-color02-10);}.cls-12{stroke:url(#darken-color02-11);}.cls-13{stroke-width:8px;stroke:url(#darken-color02-12);}</style><linearGradient id="darken-color02" x1="24.69" y1="92.51" x2="118.12" y2="92.51" gradientUnits="userSpaceOnUse"><stop offset="0" stop-color="#7391d9"/><stop offset="1" stop-color="#ee96cd"/></linearGradient><linearGradient id="darken-color02-2" x1="129.77" y1="96.9" x2="216.25" y2="96.9" xlink:href="#darken-color02"/><linearGradient id="darken-color02-3" x1="245.77" y1="96.9" x2="332.25" y2="96.9" xlink:href="#darken-color02"/><linearGradient id="darken-color02-4" x1="356.23" y1="98.1" x2="443.86" y2="98.1" xlink:href="#darken-color02"/><linearGradient id="darken-color02-5" x1="472.6" y1="95" x2="571.25" y2="95" xlink:href="#darken-color02"/><linearGradient id="darken-color02-6" x1="593.85" y1="95.68" x2="670.06" y2="95.68" xlink:href="#darken-color02"/><linearGradient id="darken-color02-7" x1="703.82" y1="98.09" x2="790.43" y2="98.09" xlink:href="#darken-color02"/><linearGradient id="darken-color02-8" x1="817.55" y1="90.92" x2="885.46" y2="90.92" xlink:href="#darken-color02"/><linearGradient id="darken-color02-9" x1="901.86" y1="90.92" x2="968.09" y2="90.92" xlink:href="#darken-color02"/><linearGradient id="darken-color02-10" x1="972.61" y1="90.86" x2="1038.45" y2="90.86" xlink:href="#darken-color02"/><linearGradient id="darken-color02-11" x1="1055.92" y1="90.92" x2="1127.76" y2="90.92" xlink:href="#darken-color02"/><linearGradient id="darken-color02-12" x1="1140.86" y1="68.25" x2="1238.96" y2="68.25" xlink:href="#darken-color02"/></defs><g id="レイヤー_2" data-name="レイヤー 2"><g id="レイヤー_1-2" data-name="レイヤー 1"><polygon class="cls-1" points="1262.15 119.63 20.64 119.63 0 159.63 1241.5 159.63 1262.15 119.63"/><path class="cls-2" d="M85.92,113.14c-.38,3.41-.71,5.28-1.12,8.25-1.27,8.47-7.23,15.4-24,12.43-9.7-1.76-3.63-13.09,2.91-10.89,4.26,1.43,10,2.09,10.89-3.74,1-6.49,2.72-17.93,4.42-29.48-14.33,15.18-25,24-41.66,33.55-10.16,5.83-13.71-4.62-6.14-8.25,16.69-7.92,31.14-20,43-34.21-9.83.22-19.68.55-29,.88-7.43.33-6.74-9.79,1.45-10.12,11.08-.44,23.11-.66,35-.77.89-6.27,1.6-11.55,2-14.41,1-8.14,12-7.37,10.75-.44-.54,3.08-1.38,8.47-2.38,14.74,6.27,0,12.45-.11,18.26,0,8.45.11,6,10.89-2.17,10.45-5.68-.22-11.69-.44-17.74-.44C88.62,92.24,86.83,104.89,85.92,113.14Z"/><path class="cls-3" d="M139.64,129.53c-8.55,3-10.39-7.81-1.64-10.67,21.25-6.93,41.73-24.53,53.31-40.92,1.32-1.87,1.19-3.63-1.23-3.63-6.91-.11-22.19.44-31.91.66-6.64.22-5.21-10.34,1.89-10.67,8.08-.33,24.29-.55,35.4-.55,9.9,0,14.41,6.27,8.8,13.75a227.14,227.14,0,0,1-15.51,18.7c8.16,5.5,20.5,14.74,24.32,21.78,3.31,6.16-6.45,14.74-10.47,8.25-4.21-6.71-13.78-16.72-21.85-22.11A117.94,117.94,0,0,1,139.64,129.53Z"/><path class="cls-4" d="M255.64,129.53c-8.55,3-10.39-7.81-1.64-10.67,21.25-6.93,41.73-24.53,53.31-40.92,1.32-1.87,1.19-3.63-1.23-3.63-6.91-.11-22.19.44-31.91.66-6.64.22-5.21-10.34,1.89-10.67,8.08-.33,24.29-.55,35.4-.55,9.9,0,14.41,6.27,8.8,13.75a227.14,227.14,0,0,1-15.51,18.7c8.16,5.5,20.5,14.74,24.32,21.78,3.31,6.16-6.45,14.74-10.47,8.25-4.21-6.71-13.78-16.72-21.85-22.11A117.94,117.94,0,0,1,255.64,129.53Z"/><path class="cls-5" d="M367.24,136.68c-8.31,4.07-12-6.05-4.25-9.57,14.47-6.6,28-17.27,39.68-29.15a56.58,56.58,0,0,0-12-6.6c-5.57-2.09.34-11.88,7.52-8.91a82.23,82.23,0,0,1,12.69,6.6,178.23,178.23,0,0,0,18.4-25.74c5.48-9.24,15.65-3.3,10.89,3.74a321.22,321.22,0,0,1-20.86,27.83c4.06,3.19,7.4,6.71,9.24,10s-.21,6.82-2.74,8.69-5.87,2.09-7.66-.88a39.52,39.52,0,0,0-7.43-8.36A156.37,156.37,0,0,1,367.24,136.68Z"/><path class="cls-6" d="M539.83,85.64c-3.7,21-15.72,38.61-38,50.27-9.69,5.06-12.31-5.06-4.83-8.8,18.7-9.35,28.75-23.32,31.87-41l.45-2.53c-5.94,0-11.79.11-17.64.22-1.1,6.27-2.13,12.1-3,16.39a6.84,6.84,0,0,1-6.62,5.72c-2.86,0-5.37-2-4.51-5.61,1-4.51,2.14-10.23,3.2-16.28-7,.22-13.82.44-20,.77-8.66.44-6.49-10,1.14-10.23,6.64-.22,13.59-.33,20.54-.44.8-5.17,1.54-10,2-13.75,1-7.48,11.93-8.36,11-.44-.42,3.63-1.18,8.58-2,14l17.77-.33c1-5.72,1.95-11.11,2.39-14.19,1.17-9.13,12.62-8.58,11-.11-.89,4.4-1.74,9.24-2.61,14.19,7-.11,14.11-.22,20.71-.22C573,73.1,568.7,84.1,561,83.88c-6.78-.22-13.69-.33-20.84-.33Z"/><path class="cls-7" d="M642.91,125.13c-13.72.44-21.29.33-31.9,0-11.14-.44-15.74-6.16-14.45-15.4,1.59-10.89,3-18.81,5-28.27,1.76-8.14,7.86-14.63,19.51-15.18,12.41-.55,22.6-.33,33.22,0,9.07.33,14.15,7,13.15,14-1.43,10-3.16,19.8-5.16,29.26C660.31,118.75,653.31,124.8,642.91,125.13ZM655.22,84c.62-4.73-1.21-7.48-6.78-7.7-9.4-.33-18.09-.33-26.73,0-6.2.22-8.61,3.3-9.63,7.81A214.24,214.24,0,0,0,608,107.31c-.63,4.84,1.2,6.93,7.21,7.15,9.95.33,16.51.55,26.62,0,4.66-.22,8.19-2.75,9.22-7.37C652.65,99.83,654.25,91.36,655.22,84Z"/><path class="cls-8" d="M729.3,85c-3.41-3.74-9.89-6.93-14.85-8.14-6.32-1.54-1.62-12.65,6.34-10.34,5.54,1.65,13.26,4.62,17.88,8.36,3,2.42,2,6.6-.18,9.13S732.17,88.06,729.3,85Zm-14.83,45.43c-9.88,3-11.18-9.57-1.65-11.88,23.1-5.61,49.34-28.38,64.25-49.94,4.72-6.82,15.24-2.2,8.87,6.49C767.93,99.83,741.18,122.38,714.47,130.41Z"/><path class="cls-9" d="M848.59,133.38c-1.44.11-4.32.22-7.07.22-10.67,0-23.25-.44-21.26-14.19.59-4.62,2-12.87,3.62-21.78,2.36-13.42,5.11-28.38,6.57-35.42,2.76-13.75,15-14,24.36-14,2.42,0,4.71.11,6.34.22,18,1.21,23.16,10.89,21.53,20.13-1.48,8.36-8.41,16.5-16.3,17.6-1.14.22-1.84.44-1.88.66s.38.33,1.57.44c11.73.88,16.44,10.34,14.63,20.57C878.63,119.63,867.82,132.28,848.59,133.38Zm19.68-26.73c1.14-6.49-2.13-12.87-12.12-13.64-2.71-.22-5.55-.33-8.3-.33-10.23,0-11.28.33-11.66,2.53C833.76,109,832.87,114,832.67,117c-.16,4.07.7,5.39,10.93,5.39,2.53,0,5.3-.11,7.41-.22C860.24,121.61,867,114,868.27,106.65Zm-15.9-47.08c-7,0-9.4.88-10.46,5.06-.69,2.64-1.68,8.91-2.92,15.29-.41,2.31,1.13,2.31,8.39,2.31,2.64,0,5.5,0,7.5-.11,8-.44,14.15-6.6,15.18-12.43.91-5.17-2.31-10-12-10C858.07,59.68,855.23,59.57,852.37,59.57Z"/><path class="cls-10" d="M940.71,60.12c-11,0-13.35.22-14.51,4.95-.69,2.64-1.53,8-2.76,14.41-.39,2.2-.28,2.2,13.25,2.2,5.06,0,10.34,0,12.34-.11,6.22-.33,5.19,5.5,5.13,5.83a7.23,7.23,0,0,1-6.93,6.27h-.55c-2.72-.22-6.88-.33-11.06-.33-13.64,0-14.76.11-15.16,2.42-2.89,16.39-3.23,18.92-3.34,20.79-.34,5.06,1.38,5.28,16.89,5.28,6.49,0,13.55-.11,15.66-.22h.55c3.85,0,5.45,2.75,4.95,5.61s-3.25,5.94-8,6.16c-1.45.11-7.85.22-14.23.22s-12.63-.11-14-.22c-10-.77-15.61-4.4-14.34-14.08.59-4.62,2-12.76,3.6-21.67,2.36-13.42,5.11-28.38,6.55-35.31,1.78-8.8,8.31-13.42,17.3-13.86,2-.11,8.29-.22,14.45-.22s12.3.11,13.93.22c4.14.22,5.63,3,5.13,5.83A7.51,7.51,0,0,1,958,60.23S948.19,60.12,940.71,60.12Z"/><path class="cls-11" d="M999.6,133.49c-17.93,0-25.36-10.23-24.41-15.62a8,8,0,0,1,7.48-6.27,4.81,4.81,0,0,1,4.36,2.75c2.14,4.07,7,7.37,14.76,7.37,12.1,0,16.19-8.25,16.81-11.77.78-4.4-1-9.13-6.18-12.32a169.72,169.72,0,0,0-15.08-8.69c-8.91-4.4-11.93-12.21-10.59-19.8,1.88-10.67,12.27-20.9,27.44-20.9s22.6,7.26,21.68,12.43c-.58,3.3-3.87,6.38-7.28,6.38a5.72,5.72,0,0,1-4.71-2.64c-1.68-2.31-4.93-5.06-11.75-5.06-7,0-12.11,4.4-13,9.35-.6,3.41.83,7.15,5.22,9.68,4.08,2.42,11,5.94,15.63,8.69,9.93,6.05,13.08,14.41,11.64,22.55C1029.57,121.39,1017.42,133.49,999.6,133.49Z"/><path class="cls-12" d="M1073.39,126.78c1.73-8.58,4.65-24.53,7.21-39,1.71-9.68,3.32-18.81,4.13-24.64.38-2.2,0-2.2-6.44-2.2-4.18,0-9.38.22-14.55.22-4.18,0-5.75-3-5.23-5.94a7,7,0,0,1,7.08-5.83h.22c6.58.11,18.22.22,29.66.22,9.35,0,18.72-.11,25-.22,4.31-.11,5.1,3.52,4.67,5.94-.52,3-2.78,5.83-6.3,5.83h-.44c-3.71-.22-6.9-.22-9.54-.22-10.89,0-10.89,0-11.27,2.2-1.54,7.48-3.53,18.15-5.43,28.93-2.33,13.2-4.48,26.62-5.58,34.76-.46,3.85-4.2,5.72-7.61,5.72s-6.27-1.87-5.61-5.61Z"/><path class="cls-13" d="M1198.39,52.81c10.19-.33,16.18-7,17.9-16.77,1.47-8.3-4.5-14.94-14.63-14.94-8,0-14,4.15-19.12,8.63a9.94,9.94,0,0,1-6.25,2.49,7.9,7.9,0,0,1-7.66-9.29c1.64-9.3,22.43-18.93,36.88-18.93,21.08,0,32.16,13.45,28.88,32-2,11.29-8.86,20.09-17.75,24.41,17.84,9,14.66,28.88,14.11,32-4.13,23.41-25,40-50.06,40-24.74,0-37.1-14.61-35.73-22.41.94-5.32,6.58-10,11.56-10a7.3,7.3,0,0,1,5.91,3.15c6,8.3,10.77,11.46,22.22,11.46,12,0,25.46-8.8,27.89-22.58,3-16.94-6.23-22.08-18-22.08H1193c-1,0-1.86.16-2.52.16a7.3,7.3,0,0,1-7.25-8.8c.76-4.31,5-8.63,10.15-8.63Z"/></g></g></svg>