<svg xmlns="http://www.w3.org/2000/svg" xmlns:xlink="http://www.w3.org/1999/xlink" viewBox="0 0 1262.15 114.26"><defs><style>.cls-1{fill:#ff0;}.cls-10,.cls-11,.cls-12,.cls-13,.cls-2,.cls-3,.cls-4,.cls-5,.cls-6,.cls-7,.cls-8,.cls-9{fill:none;stroke-miterlimit:10;stroke-width:4.53px;}.cls-2{stroke:url(#darken-color02);}.cls-3{stroke:url(#darken-color02-2);}.cls-4{stroke:url(#darken-color02-3);}.cls-5{stroke:url(#darken-color02-4);}.cls-6{stroke:url(#darken-color02-5);}.cls-7{stroke:url(#darken-color02-6);}.cls-8{stroke:url(#darken-color02-7);}.cls-9{stroke:url(#darken-color02-8);}.cls-10{stroke:url(#darken-color02-9);}.cls-11{stroke:url(#darken-color02-10);}.cls-12{stroke:url(#darken-color02-11);}.cls-13{stroke:url(#darken-color02-12);}</style><linearGradient id="darken-color02" x1="33.6" y1="48.16" x2="126.16" y2="48.16" gradientTransform="matrix(1, 0, -0.18, 1, 8.51, 0)" gradientUnits="userSpaceOnUse"><stop offset="0" stop-color="#7391d9"/><stop offset="1" stop-color="#ee96cd"/></linearGradient><linearGradient id="darken-color02-2" x1="136.2" y1="47.55" x2="226.41" y2="47.55" xlink:href="#darken-color02"/><linearGradient id="darken-color02-3" x1="248.16" y1="53.55" x2="323.16" y2="53.55" xlink:href="#darken-color02"/><linearGradient id="darken-color02-4" x1="341.51" y1="50.15" x2="429.17" y2="50.15" xlink:href="#darken-color02"/><linearGradient id="darken-color02-5" x1="444.28" y1="50.46" x2="531.52" y2="50.46" xlink:href="#darken-color02"/><linearGradient id="darken-color02-6" x1="558.54" y1="52.24" x2="622.19" y2="52.24" xlink:href="#darken-color02"/><linearGradient id="darken-color02-7" x1="654.2" y1="51.6" x2="737.07" y2="51.6" xlink:href="#darken-color02"/><linearGradient id="darken-color02-8" x1="749.94" y1="50.46" x2="837.18" y2="50.46" xlink:href="#darken-color02"/><linearGradient id="darken-color02-9" x1="851.83" y1="50.46" x2="939.06" y2="50.46" xlink:href="#darken-color02"/><linearGradient id="darken-color02-10" x1="961.39" y1="47.9" x2="1036.62" y2="47.9" xlink:href="#darken-color02"/><linearGradient id="darken-color02-11" x1="1051.45" y1="48.93" x2="1145.64" y2="48.93" xlink:href="#darken-color02"/><linearGradient id="darken-color02-12" x1="1153.14" y1="47.81" x2="1248.54" y2="47.81" xlink:href="#darken-color02"/></defs><g id="レイヤー_2" data-name="レイヤー 2"><g id="レイヤー_1-2" data-name="レイヤー 1"><polygon class="cls-1" points="1262.15 74.26 20.64 74.26 0 114.26 1241.5 114.26 1262.15 74.26"/><path class="cls-2" d="M113.81,68.49,84.15,68c4.45,8.25,13.51,14.67,28.43,15,3.55.1,4.77,2.44,4.35,4.78a6.83,6.83,0,0,1-6.88,5.51c-1.12,0-24.71-.82-34.37-20.58C61.66,92.63,33.11,94,33.11,94a4.16,4.16,0,0,1-4.4-5.1,5.56,5.56,0,0,1,5-4.58c18.09-2,28.81-7.34,34.67-16.3l-29.64.51h-.1a3.31,3.31,0,0,1-3.54-4.18,5.3,5.3,0,0,1,5.15-4.38H72c.42-1.22.73-2.45,1-3.67a6.81,6.81,0,0,1,2.33-4l-34.35.1c-3,0-4-2-3.66-4.07A5.2,5.2,0,0,1,42.52,44l32.79.1,1.11-6.32-22.84.1c-2.85,0-3.85-1.83-3.51-3.77A4.94,4.94,0,0,1,55,30.08H77.79L78.87,24l-28.65.1c-2.95,0-4-1.94-3.7-3.87A5.19,5.19,0,0,1,51.64,16H69.47A31.33,31.33,0,0,0,65.3,9.6a2.75,2.75,0,0,1-.62-2.24c.38-2.14,3.27-4.08,5.81-4.08,4.08,0,9.88,9.27,9.27,12.74l5.08.1,6.53-.1a75.59,75.59,0,0,0,7.17-10.6,5.36,5.36,0,0,1,4.82-3c2.75,0,5.24,2,4.76,4.79-.34,1.93-3.78,5.8-6.66,8.86h17.63a3.26,3.26,0,0,1,3.45,4.07,4.9,4.9,0,0,1-4.87,4L88.75,24l-1.08,6.11H110.8c2.65,0,3.63,1.93,3.27,4a4.65,4.65,0,0,1-4.65,3.87l-23.11-.1-1.12,6.32,33.34-.1a3.31,3.31,0,0,1,3.54,4.17,5.07,5.07,0,0,1-5,4.18l-34.82-.1a3.64,3.64,0,0,1,.85,3.26c-.16.92-1,4-1.18,4.38h33.42c2.85,0,3.9,2.14,3.52,4.28a5.07,5.07,0,0,1-4.93,4.28Z"/><path class="cls-3" d="M138.8,73a3.76,3.76,0,0,1-3.86-4.69A6.11,6.11,0,0,1,139,63.6c12-4.69,25.71-14.06,34.41-21.8a14.38,14.38,0,0,1,9.45-3.88,12.36,12.36,0,0,1,8.89,3.88C199.71,50,207.88,56.16,218.55,61a4.15,4.15,0,0,1,2.54,4.69,6,6,0,0,1-5.77,5c-4.59,0-18.43-9.88-30.73-23.33-.94-1-1.67-1.53-2.59-1.53a5.06,5.06,0,0,0-2.81,1.53,205.41,205.41,0,0,1-19.88,15.08C161.65,61.25,163,61,177.49,61c5.51,0,11.4.1,17.19.2,5.48.1,8.73,4.18,8.2,8.36-.24,1.93-.51,4.07-.91,6.31s-.87,4.38-1.39,6.73a12.16,12.16,0,0,1-11.74,9.37c-5.33.2-10.14.31-14.93.31s-9.35-.11-14.31-.31c-6.58-.2-9.3-3.87-8.65-9.27.2-1.73.52-3.57.83-5.3,1.27-7.23,1.85-10.49,4.88-13.24C150.56,68.08,141.85,73,138.8,73Zm54.42-59.6c7.54,0,15.06.1,22.48.2,5.48.11,11.19,3,10.21,9.68-.11,1.22-.4,2.86-.69,4.48-.62,3.57-1.38,7.85-6.58,7.85-2.54,0-4.72-1.53-4.23-4.28l0-.2.67-3.77c.7-4,.48-5.61-4.5-5.71-8-.1-17.79-.2-27.16-.2-7.75,0-15.41.1-21.64.2-5.52.1-6.13,1.84-6.7,4.49l-.9,5.09,0,.1c-.48,2.75-3.2,4.28-5.64,4.28-4.89,0-4.23-3.77-3.47-8,1.06-6,2.64-13.85,13.36-14,8-.1,16-.2,24.18-.2l1-5.6a6.08,6.08,0,0,1,6.16-4.89c2.65,0,5,1.63,4.44,4.89ZM149.06,49.44A4,4,0,0,1,145,44.75a5.54,5.54,0,0,1,3.77-4.08A51.75,51.75,0,0,0,167.9,27.53a4.75,4.75,0,0,1,3.46-1.73,4,4,0,0,1,3.86,4.69,5.37,5.37,0,0,1-1.5,2.75C168.19,39.15,153.24,49.44,149.06,49.44Zm43.17,27.3c.25-1.43.51-2.85.66-4.28.42-3.56-1-3.67-13.62-3.67-4.28,0-8.68.11-12.88.21-3.68.1-4.49,3-5.24,7.23-1,5.6-.89,7.34,2.76,7.44s7.52.1,11.39.1,7.85,0,11.84-.1C191,83.47,191.46,81.12,192.23,76.74ZM207.72,45a45.34,45.34,0,0,0-13.8-11.31,3.28,3.28,0,0,1-1.81-3.56,5.48,5.48,0,0,1,5.22-4.18c2.85,0,14.06,6.32,18.56,12a4.85,4.85,0,0,1,1,3.77,6.31,6.31,0,0,1-5.68,5.1A4.49,4.49,0,0,1,207.72,45Z"/><path class="cls-4" d="M247.55,84.89c-4.61-20.07,8.75-50.23,12.73-62.35,2.44-7.54,11.93-5.3,9.77.61C267,31.4,256.63,55.35,257.4,64.82c.08,1.32.54,1,1.11.1.29-.51,1.77-2.54,2.3-3.26,4-5,9.5-.1,6.44,4-4.94,6.62-7.4,11.3-8.53,14.26-1.1,2.75-.43,5.91-3.37,8.15S248.71,89.88,247.55,84.89Zm28.58-7.23c-3.37-4.59,4-11.82,8.47-7,4.62,5,17.14,3.36,25.37,1.73,8.56-1.73,7.16,9.07.13,10.8C298.72,85.91,282.06,85.6,276.13,77.66ZM289.1,37c-5.85,1.42-7.51-7.64.25-9.48,9.46-2.24,20.07-2.34,26.9-.61s3.2,11.31-3.46,9.78A51.83,51.83,0,0,0,289.1,37Z"/><path class="cls-5" d="M353.93,48.42c-2,11.41-4.83,26.79-7.7,41.36a5.73,5.73,0,0,1-5.78,4.48c-2.35,0-4.52-1.52-4-4.27l0-.21c4-18.85,9.78-52.57,13.77-74.07C351.87,6.34,358.14,6,369.45,6c4.08,0,8.26,0,10.17.11,5.16.2,8.58,3.36,8,7.84-.51,3.47-1,7-1.64,10.49-2.21,12.54-2.73,14.88-23.31,14.88-2.75,0-5.28-.1-7.09-.2Zm23.85-28.94c.2-1.12.28-2.14.44-3.05.31-3-.79-3.06-8.63-3.06-8.46,0-9.21.2-10.06,3.87-.13.71-.35,1.43-.5,2.24ZM357.88,26l-1.06,6c1.51.11,4.57.11,7.73.11,10.08,0,10.87-.41,11.46-3.16.16-.92.44-1.94.62-3ZM401.6,70.42l-17.67-.3a3.77,3.77,0,0,1,.68.2c.86.31,14.23,7.13,13.35,12.13a4.86,4.86,0,0,1-.75,1.93,4.16,4.16,0,0,1,2-.51,2.43,2.43,0,0,1,.8.1,34.14,34.14,0,0,0,5.19.62c3.16,0,5.61-1.23,6.6-6.22.82-4.07,1.74-8.76,2.59-13.55,1.29-7.34,2.56-15.08,3.69-21.5l.73-4.17c-1.85.1-4.62.2-7.57.2-12.84,0-20.87-.1-19.67-8.66.24-1.94.62-4.08,1-6.22.61-3.46,1.34-7,2.05-10.49,1-4.48,5.32-7.64,10.56-7.84C407.15,6,411.53,6,415.71,6c3.05,0,5.91,0,7.62.11,7.57.4,9.94,4.28,9.15,8.76l-1.33,7.54c-2.69,15.28-5.43,32-7.73,45-.86,4.89-1.52,9.17-2.15,12.73C420,87.54,415.18,94,404.08,94c-5.2,0-10.43-.41-9.51-5.6a5.07,5.07,0,0,1,.49-1.63,5.65,5.65,0,0,1-2.93,1,2.81,2.81,0,0,1-2.68-1.52c-2.28-3.88-5.9-7-9.22-9.58C372.69,87,358.61,89.48,356.37,89.48c-2.75,0-3.61-2-3.25-4.08a4.92,4.92,0,0,1,3.77-4.07c9.56-1.63,14.82-4.89,17.95-11.11l-14.19.2h-.11c-2.75,0-3.77-1.73-3.46-3.46a4.88,4.88,0,0,1,4.84-3.77h15.39c.37-1.53.67-3.26,1-5H364.84c-2.75,0-3.77-1.73-3.47-3.47a4.75,4.75,0,0,1,4.73-3.66h8a19.78,19.78,0,0,0-2.67-5.71,2.41,2.41,0,0,1-.32-1.63c.34-1.93,3-3.36,5.28-3.36,3.46,0,6.32,6.31,6,8.35a4.94,4.94,0,0,1-1.22,2.35h4.89c1.67-2.55,3.08-4.79,5.5-9.27a4.11,4.11,0,0,1,3.84-2.14c2.35,0,4.89,1.73,4.5,4-.16.92-.59,1.63-5.08,7.44h7.44c2.64,0,3.56,1.73,3.24,3.56A4.41,4.41,0,0,1,401,58.2h-14c-.31,1.73-.59,3.36-1,5h16.81c2.65,0,3.55,1.83,3.22,3.67a4.29,4.29,0,0,1-4.4,3.56Zm20.5-50.94c1.06-6,.67-6.11-8.6-6.11-8.46,0-9.6.1-10.34,3.16-.16.92-.44,1.93-.62,2.95Zm-1,6.52H401.39c-.18,1-.26,2-.42,3-.46,3.16,1.78,3.16,10.85,3.16,3.36,0,6.83,0,8.27-.11Z"/><path class="cls-6" d="M471.13,61.56a16.8,16.8,0,0,1,11.52-19.15,21.21,21.21,0,0,1,8.93-.92c.29-2.24.73-5.3,1.15-8.25-8.71.81-17.38,2-22.82,2.85-7.53,1.12-12.55,2.44-15.7,2.95-7,1.23-7.28-9,1-10.29,4.2-.71,11-1.42,15.35-2.14,5.24-.81,14.61-1.93,23.72-2.75L494.6,22c1.22-6.32.68-6.72,1.25-10,1.31-7.43,11.48-6.72,10.75-.3-.31,2.34-1.44,7-2.13,9.78-.09.51-.28,1-.37,1.53,3-.21,5.66-.31,7.9-.31,5,0,8.57-.1,15.49,0,8.52.21,6.21,11-1.84,10.4-7.12-.62-9.57-.62-15.87-.72-2.34,0-4.8.1-7.47.21-.47,3.26-.93,6.41-1.45,9.37-.25,1.42-.42,3.56-.72,5.81,6.56,14.26-8.05,35.86-20.38,44.52-7.78,5.4-15.37-1.83-5.39-8.15a46.81,46.81,0,0,0,14.26-15C481.29,72.67,472.77,70.73,471.13,61.56Zm19-10.7c-1.21-1.22-4.13-1.42-6.45-.41a7.46,7.46,0,0,0-4.32,7.75c.86,5.5,9.73,5.5,12-1.73.68-2.14.54-3.06.07-3.88A10.14,10.14,0,0,0,490.13,50.86Z"/><path class="cls-7" d="M599.29,76c8.61-6.63,10-16.3,4.89-20.17-4.67-3.57-15.55-4.28-26.9,1.73a28.85,28.85,0,0,0-9.91,7.64c-4.62,5.4-13.74-.61-6.33-6.83,13.16-11.1,22.8-18.95,36.57-32.91,1.37-1.42.28-1-.61-.61-3.12,1.53-10.2,3.57-18,5.2-8.35,1.73-8.1-8.36-1-9.17a176.87,176.87,0,0,0,23.29-5c8.57-2.35,14,4.89,7.92,10.59-3.91,3.67-8.69,7.64-13.43,11.41s-9.46,7.44-13.76,11c9.81-4.79,21.94-4.79,28.69-.31,13.12,8.76,5.17,26.69-6.89,34.44-11.36,7.23-27.33,7.64-34.17,2.54-9.56-7-2.55-19.66,9.55-20.07,8.2-.3,15,4.59,13.67,13.76A17,17,0,0,0,599.29,76ZM578.13,73c-4.55.41-5.49,4.59-2.54,6.32,2.13,1.22,5.42,1.63,8.29,1.53C584.81,76.13,582.69,72.56,578.13,73Z"/><path class="cls-8" d="M680.56,75.11c-1.75,14.57-14.76,14.37-22.4,10.29-11.08-5.91-6.44-13.14,0-19.05a84.06,84.06,0,0,1,16.27-10.8c.65-4.28,1.32-8.66,2-12.74a38.64,38.64,0,0,1-12.29.41c-7.38-.92-4.36-11.1,3.79-9.37,2.46.51,6.3.1,10.45-.92.84-4.79,1.21-8,1.69-11.92.93-7.54,12.1-7.33,10.31-.1-.6,2.24-1.27,5.5-2,8.56a37.6,37.6,0,0,0,4.49-2.35c6.15-3.66,11,4.38,3.06,8.66a70.9,70.9,0,0,1-10.39,4.59c-.65,3.16-1.32,6.93-1.9,10.8A74,74,0,0,1,692.78,48c9.21-2.55,17.72-1.73,22.59.1,15.79,5.81,10.62,19.56,4.09,27.1-8.31,9.58-23.15,12.84-33.78,6.12-5.22-3.37.23-11.72,5.91-8.66,7.26,3.87,13.76,4,19.8-2.55,3-3.26,7.15-10.5-1.14-13.76-3.7-1.52-9-1.83-16.47-.2A61.4,61.4,0,0,0,682.4,60C681.65,65.43,681.13,70.73,680.56,75.11ZM664,71.85c-2.55,2.34-3,5-.88,6.11,4,2.14,7,1.84,7.82-2.14.59-2.75,1.25-6.52,1.88-10.69A64.91,64.91,0,0,0,664,71.85Zm63.44-32.19c-2.23-2.35-7.41-4.79-12.71-4.18-6.34.71-6.37-8.36,1.07-9S733,28.45,736,32.32c2,2.55.88,5.4-1.17,7.23S729.61,41.9,727.46,39.66Z"/><path class="cls-9" d="M776.79,61.56a16.79,16.79,0,0,1,11.53-19.15,21.15,21.15,0,0,1,8.92-.92c.29-2.24.73-5.3,1.15-8.25-8.7.81-17.38,2-22.82,2.85C768,37.21,763,38.53,759.87,39c-7,1.23-7.28-9,1-10.29,4.2-.71,11-1.42,15.35-2.14,5.24-.81,14.61-1.93,23.72-2.75l.32-1.83c1.22-6.32.68-6.72,1.25-10,1.31-7.43,11.48-6.72,10.75-.3-.31,2.34-1.44,7-2.13,9.78-.09.51-.28,1-.37,1.53,3-.21,5.66-.31,7.9-.31,5,0,8.58-.1,15.49,0,8.52.21,6.21,11-1.84,10.4-7.12-.62-9.57-.62-15.87-.72-2.34,0-4.8.1-7.47.21C807.5,35.89,807,39,806.52,42c-.25,1.42-.42,3.56-.72,5.81,6.56,14.26-8,35.86-20.38,44.52-7.78,5.4-15.37-1.83-5.39-8.15a46.81,46.81,0,0,0,14.26-15C787,72.67,778.43,70.73,776.79,61.56Zm19-10.7c-1.21-1.22-4.13-1.42-6.45-.41A7.46,7.46,0,0,0,785,58.2c.86,5.5,9.73,5.5,12-1.73.69-2.14.54-3.06.07-3.88A10.14,10.14,0,0,0,795.79,50.86Z"/><path class="cls-10" d="M878.67,61.56A16.81,16.81,0,0,1,890.2,42.41a21.21,21.21,0,0,1,8.93-.92c.29-2.24.73-5.3,1.14-8.25-8.7.81-17.37,2-22.81,2.85-7.53,1.12-12.56,2.44-15.7,2.95-7,1.23-7.29-9,1-10.29,4.2-.71,11-1.42,15.35-2.14,5.24-.81,14.61-1.93,23.72-2.75l.32-1.83c1.21-6.32.68-6.72,1.25-10,1.31-7.43,11.48-6.72,10.75-.3-.31,2.34-1.44,7-2.13,9.78-.09.51-.28,1-.37,1.53,3-.21,5.66-.31,7.9-.31,5,0,8.57-.1,15.48,0,8.53.21,6.21,11-1.83,10.4-7.13-.62-9.57-.62-15.87-.72-2.34,0-4.81.1-7.47.21-.48,3.26-.93,6.41-1.45,9.37-.25,1.42-.43,3.56-.72,5.81,6.55,14.26-8.06,35.86-20.38,44.52-7.78,5.4-15.37-1.83-5.39-8.15a46.67,46.67,0,0,0,14.25-15C888.84,72.67,880.32,70.73,878.67,61.56Zm19-10.7c-1.21-1.22-4.13-1.42-6.45-.41a7.46,7.46,0,0,0-4.32,7.75c.86,5.5,9.72,5.5,12-1.73.68-2.14.54-3.06.07-3.88A10.14,10.14,0,0,0,897.68,50.86Z"/><path class="cls-11" d="M985.61,71c-14.3,12.93-24.21,8.45-24.69-4.39-.42-9.78,6.45-21,16.32-29-.33-2.14-.65-4.38-.77-6.62-.15-2-.34-6.73-.37-8.87-.24-8.45,11.26-8.35,10.39-1.12a69.57,69.57,0,0,0-.47,8.46,15.28,15.28,0,0,0,.11,2.24,23.38,23.38,0,0,1,2.24-1.12,47,47,0,0,1,18.17-4.28,69.34,69.34,0,0,0,3.27-11c1.15-7.14,11.6-6.32,9.88,1.12a78,78,0,0,1-3.33,10.8c9.1,2.14,16.21,8,17.23,18.44,2,18.85-13,32.9-31.77,39.22-8.25,2.85-11.54-6.82-2.21-9.47,18.68-5.4,24.72-17.12,24-26.8-.58-7.74-4.93-11.92-10.74-13.65-.47.92-1,1.93-1.54,3a144.77,144.77,0,0,1-14,20.58,10.52,10.52,0,0,0,1.14,1c2.06,1.63,1.23,4.59-.4,6.32s-4.46,2.75-6.9,1c-.27-.21-.46-.31-.73-.51C988.78,68.08,987.19,69.61,985.61,71Zm-6.72-24.86c-5.23,5.4-8.79,11.71-8.72,17.11.13,7.95,5.31,5.71,8.68,2.75a80.49,80.49,0,0,0,5.92-5.8A46,46,0,0,1,978.89,46.18Zm11.36-8.36A21.73,21.73,0,0,0,987,39.66a36.64,36.64,0,0,0,4.74,12.43,102.13,102.13,0,0,0,10.85-16.51c.18-.41.47-.92.66-1.43A37.93,37.93,0,0,0,990.25,37.82Z"/><path class="cls-12" d="M1061.84,28.75c-3.26,0-4.32-2-4-4.07a5.5,5.5,0,0,1,5.47-4.48h32.71c3,0,4.1,2.14,3.73,4.27a5.17,5.17,0,0,1-5.24,4.28Zm12.85,62.36c-3,.1-6.25.2-9.51.2-2.75,0-5.38-.1-7.71-.2-4.53-.31-6.81-3.57-6.12-8,.47-2.65.83-5.3,1.28-7.85s1-5,1.38-7.23a9.37,9.37,0,0,1,8.8-7.74c2.87-.11,6-.21,9-.21s6,.1,8.63.21c3.85.1,7.65,2.85,7,7.23-.32,2.34-.8,5.09-1.29,7.84s-1,5.4-1.44,7.65A10.29,10.29,0,0,1,1074.69,91.11Zm-6-76.31c-3.06,0-4.15-1.94-3.79-4a5.43,5.43,0,0,1,5.26-4.38h22.92a3.32,3.32,0,0,1,3.55,4.18,5.08,5.08,0,0,1-5,4.18Zm-4.6,27.2c-3,0-4.14-1.94-3.78-4a5.43,5.43,0,0,1,5.26-4.39h22.92a3.31,3.31,0,0,1,3.54,4.18,5.06,5.06,0,0,1-5,4.18Zm-2.31,13.14c-3.06,0-4.15-1.93-3.79-4a5.43,5.43,0,0,1,5.26-4.38h22.92a3.31,3.31,0,0,1,3.54,4.17,5.06,5.06,0,0,1-5,4.18Zm15.54,20.48c.32-1.83.65-3.67.8-5.09.24-2.55-1.25-2.75-7.67-2.75-1.73,0-3.57,0-5.21.1-2.89.2-3.22,2-4.2,7.64-.33,1.83-.55,3.67-.82,5.19-.24,1.94.69,2.45,7.42,2.45,5.09,0,8,0,8.7-2.55C1076.69,79.19,1077,77.35,1077.32,75.62Zm31.27-58.89c-3.16,0-4.31-2.14-3.93-4.28a5.71,5.71,0,0,1,5.59-4.58c4.2-.1,8.68-.1,13.27-.1,3.36,0,6.82,0,10.17.1,6.79.2,10.23,3.77,9.14,11.1-.34,2.55-1,6.22-1.58,9.58-1.6,9.07-3.2,17.52-14.3,17.52h-10.09c-7,0-8.78.11-9.61,3.67-1,4.48-2.31,10.8-3.37,16.81-.67,3.77-1.31,7.44-1.65,10.5-.51,4.07,2.08,5,11.14,5,9.48,0,14-1.43,15.59-10.39a5.5,5.5,0,0,1,5.62-4.69c1.22,0,5.43.41,4.53,5.5-3.2,18.14-17,19-27.69,19-12.13,0-20.54-1.42-19-12.43.42-3,1.07-7.23,1.89-11.92,1.26-7.13,2.88-15.18,4-20.38,1-4.48,4.63-9.47,12.8-9.57,3.87,0,8.33.1,12.31.1,6.82,0,7.06-.2,8.72-9.58.41-2.34.74-4.79,1-7.54.31-3.46-1.41-3.56-9.56-3.56-4.68,0-9.59.1-14.91.2Z"/><path class="cls-13" d="M1230,65.23c-1.06,6-2.72,11.41-12.71,11.41-5.29,0-10.92.1-16.72.1l-.73,4.69,0,.1c-1.07,6.11-7.28,11.82-17.67,11.82-3.26,0-10.68-.1-9.74-5.4a5.47,5.47,0,0,1,5.29-4.59,7.43,7.43,0,0,1,1.49.21,23.31,23.31,0,0,0,5.27.71c3.06,0,5.69-1,6.35-4.79l.57-2.65c-8.86,0-17.83,0-26-.1a3,3,0,0,1-3.21-3.77,4.54,4.54,0,0,1,4.54-3.77h.1c7.52.1,16.67.2,25.84.2l.81-4.58h-37.49c-2.35,0-3.23-1.94-2.89-3.87a4.45,4.45,0,0,1,4.23-3.77h37.5l.75-4.28c-9.58,0-19.27.1-25.91.2h-.1c-2.25,0-3.06-1.73-2.76-3.46a4.61,4.61,0,0,1,4.54-3.77c7.25-.1,16.42-.1,25.49-.1l.63-3.57c-24.35,0-26.56-.2-25-9.27,1.19-6.72,3-9.88,12.34-9.88,3.87,0,9.8-.1,16-.1l.7-4-30.78.11a3.27,3.27,0,0,1-3.46-4.08,4.93,4.93,0,0,1,4.89-4.08L1203,11l.63-4.18a5.52,5.52,0,0,1,5.49-4.59c2.35,0,4.32,1.53,3.78,4.59l-.74,4.18,30.28-.11a3.23,3.23,0,0,1,3.46,4.08,4.86,4.86,0,0,1-4.9,4.08L1210.79,19l-.7,4c6.22,0,12.13,0,16.08.1,6.51.1,9,1.93,8.6,6.11-.09,1.12-.19,2.24-.37,3.26s-.48,2.14-.76,3.16c-1.86,6.52-4.73,6.62-26.94,6.62l-.65,3.67c6,0,11.72,0,16.59.1,6.5.1,10,2.24,9.3,7.34-.16.91-.26,2-.49,3.36h9.37c2.65,0,3.6,2.14,3.22,4.28a4.93,4.93,0,0,1-4.73,4.28Zm-30.28-35.66c-5.51,0-10.62.1-13.78.1-2.14,0-3,.51-3.41,1.43l-.39,2.24c-.31,1.73,2.12,1.83,16.59,1.83Zm8.18,5.6c16.09,0,16.4,0,16.92-3,.29-1.63-.06-2.55-2.91-2.55s-7.73-.1-13-.1Zm14.59,20.69c.22-1.84-.84-2.76-2.68-2.76-4.16-.1-9.35-.1-15.06-.1l-.73,4.18h18.34Zm-19.82,9-.81,4.58c5.3,0,10.41-.1,15.12-.2a3.55,3.55,0,0,0,3.66-2.85c.09-.51.28-1,.37-1.53Z"/></g></g></svg>