<svg xmlns="http://www.w3.org/2000/svg" xmlns:xlink="http://www.w3.org/1999/xlink" viewBox="0 0 1100 153.34"><defs><style>.cls-1{fill:#ff0;}.cls-10,.cls-11,.cls-12,.cls-13,.cls-14,.cls-15,.cls-16,.cls-17,.cls-18,.cls-19,.cls-2,.cls-20,.cls-21,.cls-22,.cls-23,.cls-24,.cls-25,.cls-26,.cls-27,.cls-28,.cls-29,.cls-3,.cls-30,.cls-31,.cls-32,.cls-4,.cls-5,.cls-6,.cls-7,.cls-8,.cls-9{fill:none;stroke-miterlimit:10;}.cls-10,.cls-11,.cls-12,.cls-13,.cls-14,.cls-15,.cls-16,.cls-17,.cls-18,.cls-19,.cls-2,.cls-20,.cls-21,.cls-22,.cls-23,.cls-24,.cls-25,.cls-26,.cls-28,.cls-29,.cls-3,.cls-30,.cls-31,.cls-32,.cls-4,.cls-5,.cls-6,.cls-7,.cls-8,.cls-9{stroke-width:5px;}.cls-2{stroke:url(#darken-color02);}.cls-3{stroke:url(#darken-color02-2);}.cls-4{stroke:url(#darken-color02-3);}.cls-5{stroke:url(#darken-color02-4);}.cls-6{stroke:url(#darken-color02-5);}.cls-7{stroke:url(#darken-color02-6);}.cls-8{stroke:url(#darken-color02-7);}.cls-9{stroke:url(#darken-color02-8);}.cls-10{stroke:url(#darken-color02-9);}.cls-11{stroke:url(#darken-color02-10);}.cls-12{stroke:url(#darken-color02-11);}.cls-13{stroke:url(#darken-color02-12);}.cls-14{stroke:url(#darken-color02-13);}.cls-15{stroke:url(#darken-color02-14);}.cls-16{stroke:url(#darken-color02-15);}.cls-17{stroke:url(#darken-color02-16);}.cls-18{stroke:url(#darken-color02-17);}.cls-19{stroke:url(#darken-color02-18);}.cls-20{stroke:url(#darken-color02-19);}.cls-21{stroke:url(#darken-color02-20);}.cls-22{stroke:url(#darken-color02-21);}.cls-23{stroke:url(#darken-color02-22);}.cls-24{stroke:url(#darken-color02-23);}.cls-25{stroke:url(#darken-color02-24);}.cls-26{stroke:url(#darken-color02-25);}.cls-27{stroke-width:8px;stroke:url(#darken-color02-26);}.cls-28{stroke:url(#darken-color02-27);}.cls-29{stroke:url(#darken-color02-28);}.cls-30{stroke:url(#darken-color02-29);}.cls-31{stroke:url(#darken-color02-30);}.cls-32{stroke:url(#darken-color02-31);}</style><linearGradient id="darken-color02" x1="20.8" y1="82.96" x2="134.36" y2="82.96" gradientUnits="userSpaceOnUse"><stop offset="0" stop-color="#7391d9"/><stop offset="1" stop-color="#ee96cd"/></linearGradient><linearGradient id="darken-color02-2" x1="37.73" y1="100.89" x2="91.47" y2="100.89" xlink:href="#darken-color02"/><linearGradient id="darken-color02-3" x1="59.55" y1="89.61" x2="77.08" y2="89.61" xlink:href="#darken-color02"/><linearGradient id="darken-color02-4" x1="57.67" y1="100.28" x2="75.2" y2="100.28" xlink:href="#darken-color02"/><linearGradient id="darken-color02-5" x1="55.36" y1="112.17" x2="73.21" y2="112.17" xlink:href="#darken-color02"/><linearGradient id="darken-color02-6" x1="76.31" y1="45.28" x2="96.77" y2="45.28" xlink:href="#darken-color02"/><linearGradient id="darken-color02-7" x1="73.59" y1="98.91" x2="129.46" y2="98.91" xlink:href="#darken-color02"/><linearGradient id="darken-color02-8" x1="97.23" y1="96.24" x2="113.24" y2="96.24" xlink:href="#darken-color02"/><linearGradient id="darken-color02-9" x1="142.59" y1="106.06" x2="246.84" y2="106.06" xlink:href="#darken-color02"/><linearGradient id="darken-color02-10" x1="162.19" y1="51.94" x2="188.36" y2="51.94" xlink:href="#darken-color02"/><linearGradient id="darken-color02-11" x1="175.95" y1="70.47" x2="254.52" y2="70.47" xlink:href="#darken-color02"/><linearGradient id="darken-color02-12" x1="204.25" y1="90.16" x2="221.71" y2="90.16" xlink:href="#darken-color02"/><linearGradient id="darken-color02-13" x1="210.07" y1="109.85" x2="243.49" y2="109.85" xlink:href="#darken-color02"/><linearGradient id="darken-color02-14" x1="265.28" y1="85.93" x2="341.77" y2="85.93" xlink:href="#darken-color02"/><linearGradient id="darken-color02-15" x1="289.73" y1="79.88" x2="309.57" y2="79.88" xlink:href="#darken-color02"/><linearGradient id="darken-color02-16" x1="293.97" y1="56.17" x2="312.67" y2="56.17" xlink:href="#darken-color02"/><linearGradient id="darken-color02-17" x1="318.14" y1="84.17" x2="375.21" y2="84.17" xlink:href="#darken-color02"/><linearGradient id="darken-color02-18" x1="328.04" y1="47.1" x2="348.68" y2="47.1" xlink:href="#darken-color02"/><linearGradient id="darken-color02-19" x1="328.58" y1="73.88" x2="364.34" y2="73.88" xlink:href="#darken-color02"/><linearGradient id="darken-color02-20" x1="392.65" y1="85.65" x2="492.58" y2="85.65" xlink:href="#darken-color02"/><linearGradient id="darken-color02-21" x1="518.96" y1="89.01" x2="617.61" y2="89.01" xlink:href="#darken-color02"/><linearGradient id="darken-color02-22" x1="637.21" y1="89.7" x2="713.42" y2="89.7" xlink:href="#darken-color02"/><linearGradient id="darken-color02-23" x1="648.73" y1="89.44" x2="701.2" y2="89.44" xlink:href="#darken-color02"/><linearGradient id="darken-color02-24" x1="753.37" y1="70.46" x2="787.41" y2="70.46" xlink:href="#darken-color02"/><linearGradient id="darken-color02-25" x1="748.19" y1="92.1" x2="834.79" y2="92.1" xlink:href="#darken-color02"/><linearGradient id="darken-color02-26" x1="845.76" y1="68.25" x2="943.87" y2="68.25" xlink:href="#darken-color02"/><linearGradient id="darken-color02-27" x1="959.59" y1="106.06" x2="1063.84" y2="106.06" xlink:href="#darken-color02"/><linearGradient id="darken-color02-28" x1="979.19" y1="51.94" x2="1005.36" y2="51.94" xlink:href="#darken-color02"/><linearGradient id="darken-color02-29" x1="992.95" y1="70.47" x2="1071.52" y2="70.47" xlink:href="#darken-color02"/><linearGradient id="darken-color02-30" x1="1021.25" y1="90.16" x2="1038.71" y2="90.16" xlink:href="#darken-color02"/><linearGradient id="darken-color02-31" x1="1027.07" y1="109.85" x2="1060.49" y2="109.85" xlink:href="#darken-color02"/></defs><g id="レイヤー_2" data-name="レイヤー 2"><g id="レイヤー_1-2" data-name="レイヤー 1"><polygon class="cls-1" points="1100 113.34 17.99 113.34 0 153.34 1082.01 153.34 1100 113.34"/><path class="cls-2" d="M98,55.24c3.83-3.63,9.11-11.11,11.66-15.62a6.25,6.25,0,0,1,5.44-3.41c3,0,5.78,2.2,5.23,5.28s-9.2,11.66-11.85,14.19c7,0,13.64,0,19.45.11a3.62,3.62,0,0,1,3.83,4.51,5.37,5.37,0,0,1-5.31,4.51c-8.78-.11-19.23-.11-29.79-.11-14.3,0-28.82,0-39.4.11a4.6,4.6,0,0,0-4.68,4.07c-3.24,16.5-6.07,40-19.2,57.75a6.77,6.77,0,0,1-5.49,3.08c-2.75,0-5-2.09-4.56-4.73a5.38,5.38,0,0,1,1.22-2.53C34.4,109.8,38.28,95.28,40.63,82c1-5.61,1.7-10.89,2.46-15.84l0-.22A12.22,12.22,0,0,1,55.47,55.79H65.7a3.6,3.6,0,0,1-1.94-2.09c-1.65-3.74-3.69-5.28-6.21-7.81A3.21,3.21,0,0,1,56.62,43c.43-2.42,3.46-4.62,6.43-4.62,4.29,0,11.19,8.25,10.47,12.32A7.08,7.08,0,0,1,69,55.79c8.91,0,18.83-.11,28.51-.11Z"/><path class="cls-3" d="M68,120.58c-17.3,4.51-23.88,5.06-24.1,5.06a3.5,3.5,0,0,1-3.63-4.4,5.17,5.17,0,0,1,4.48-4.18l5.28-.66,5.23-29H53.21c-2.21,0-3-1.76-2.7-3.41a4.08,4.08,0,0,1,3.92-3.52H65.65l.72-4.73H58.23a2.89,2.89,0,0,1-3-3.63,4.28,4.28,0,0,1,4.27-3.63H84.92c2.42,0,3.21,1.76,2.88,3.63a4.24,4.24,0,0,1-4.16,3.63H75l-.83,4.73H86.33c2.09,0,2.88,1.76,2.59,3.41a4.05,4.05,0,0,1-3.81,3.52h-3l-7.21,42.13a4.74,4.74,0,0,1-4.86,3.85c-2.2,0-4.08-1.21-3.61-3.85Z"/><polygon class="cls-4" points="74.11 87.36 63.33 87.36 62.53 91.87 73.31 91.87 74.11 87.36"/><polygon class="cls-5" points="72.22 98.03 61.44 98.03 60.65 102.54 71.43 102.54 72.22 98.03"/><path class="cls-6" d="M70.23,108.7H59.56l-1.12,6.38c3.85-.66,7.62-1.43,11.07-2.31Z"/><path class="cls-7" d="M87.37,54.58a3.08,3.08,0,0,1-3.28-2.64c-.84-4-2.85-6.27-4.75-9.24a3,3,0,0,1-.47-2.31C79.29,38,82.39,36,85.14,36c5,0,9.6,10.45,9.1,13.31S90.12,54.58,87.37,54.58Z"/><path class="cls-8" d="M119.08,84.94a77.05,77.05,0,0,1-12.51,27.28,30.19,30.19,0,0,0,11.55,9.35,3.69,3.69,0,0,1,2.13,4.18,6.53,6.53,0,0,1-6,5.28c-2.42,0-8.93-3.63-14.18-11.33-8.66,8.58-18,12.32-20.32,12.32a3.67,3.67,0,0,1-3.6-4.51,5.11,5.11,0,0,1,3.2-3.85A50.54,50.54,0,0,0,96.1,112.33a51.13,51.13,0,0,1-4-16.06c-2.82,4.18-4.43,5.17-6.63,5.17s-4.11-1.65-3.7-4a6,6,0,0,1,1.48-2.75c6.19-7,11.54-18,13.77-25.74a4.65,4.65,0,0,1,4.64-3.19c2.31,0,4.46,1.54,4,4.07-.06.33-.18,1-2.46,6.49h20.24c2.86,0,3.81,2.09,3.42,4.29a5,5,0,0,1-4.94,4.29Z"/><path class="cls-9" d="M99.83,84.94a48.31,48.31,0,0,0,2.51,19.47,65.56,65.56,0,0,0,7.72-19.47Z"/><path class="cls-10" d="M150,131.8a4.92,4.92,0,0,1-4.82-5.72,6,6,0,0,1,3.36-4.07,67.92,67.92,0,0,0,16.11-11.55c1.16-5.94,2.4-11.11,3.27-16.06.68-3.85.79-5.06-3.72-5.06-1.76,0-3.21.11-4.86.11s-5.26-.11-4.45-4.73c.43-2.42,2.41-5,5.27-5h6.71c7.81,0,13.71.88,12,10.34C177.77,96.49,176,104,174.77,111a19,19,0,0,0,4.13,4.62,4.17,4.17,0,0,1-.3-2.64,4.41,4.41,0,0,1,4.16-3.63,41.23,41.23,0,0,0,17.71-6.27,3.87,3.87,0,0,1,2.23-.77c2.09,0,3.44,2.31,3.05,4.51a4.44,4.44,0,0,1-2.21,3.19c-5.92,3.63-14.07,6.82-20.39,7.7h-1.32c3.79,2.2,9.57,4.4,25,4.4,11.44,0,24.08-1.21,32.56-1.87h.55c3.41,0,4.81,2.64,4.35,5.28a6.83,6.83,0,0,1-6.47,5.5c-7,.66-17.51,1.32-28,1.32-27.72,0-35.42-4.95-41.83-13.53C164.3,122.34,154.27,131.8,150,131.8Z"/><path class="cls-11" d="M175.44,59.75c-2.08-4.4-6.32-7.81-9.09-9.57a3.18,3.18,0,0,1-1.6-3.41c.43-2.42,3.52-5,6.49-5,3.3,0,15.55,8.47,14.56,14.08-.56,3.19-4.05,6.16-7,6.16A3.52,3.52,0,0,1,175.44,59.75Z"/><path class="cls-12" d="M211.2,100.89l-29.3.22a3.13,3.13,0,0,1-3.39-3.85,4.64,4.64,0,0,1,4.75-3.85l14.61.11,1.18-6.71-10.58.11c-2.75,0-3.74-1.87-3.39-3.85a4.61,4.61,0,0,1,4.73-3.74l10.54.11.54-3.08a4.18,4.18,0,0,1,2.86-3.08c-1.23.11-2.44.11-3.65.11-10.89,0-14.82-1.43-13-11.88.62-3.52,1.72-9.13,10.3-9.13h6.38c3.19,0,4.18,0,4.63-2.53.27-1.54.13-2-1.39-2.09H193c-2.64,0-3.52-1.87-3.17-3.85a4.87,4.87,0,0,1,4.45-4.07H198c5.17,0,11.1.11,12.85.11,5.83,0,7.61,2.42,6.23,10.23-1.65,9.35-4.18,9.35-18.81,9.35-1.76,0-2.11.77-2.62,3.63s.38,2.86,6,2.86c3.74,0,6.64-.22,7.46-3.63a4.61,4.61,0,0,1,4.69-3.52c2.42,0,4.59,1.43,4.12,4.07-.77,4.4-3.75,8.8-10.65,9.9,1.81.33,3.37,1.43,3,3.52l-.54,3.08,5.26.11H220l.57-3.19c.36-2.09,2.34-3.3,4.36-3.52-7.23-1.43-6.32-6.6-5.72-10,.87-4.95,2-10.45,10.42-10.45h6.71c4,0,4.31-.11,4.74-2.53.27-1.54.13-2-1.39-2.09H224.86c-2.53,0-3.41-1.87-3.08-3.74a4.91,4.91,0,0,1,4.47-4.18H230c5.39,0,11.65.11,13.41.11,6.38,0,7.61,3,6.33,10.23-1.61,9.13-3.74,9.35-19.36,9.35-2.09,0-2.26,1-2.71,3.52-.48,2.75-.08,3,6.41,3,5.5,0,8.07-.22,9-4.18a4.61,4.61,0,0,1,4.69-3.52c2.42,0,4.67,1.54,4.21,4.18-1.79,10.12-11.51,11-19.1,11-1.65,0-3.17-.11-4.69-.22a2.69,2.69,0,0,1,1.77,3.08l-.55,3.08,11.46-.11c2.75,0,3.74,1.87,3.41,3.74a4.64,4.64,0,0,1-4.75,3.85l-11.42-.11-1.18,6.71L243,93.41c2.75,0,3.74,1.87,3.39,3.85a4.72,4.72,0,0,1-4.75,3.85Z"/><polygon class="cls-13" points="218.74 86.81 213.7 86.7 208.4 86.81 207.22 93.52 212.59 93.63 217.56 93.52 218.74 86.81"/><path class="cls-14" d="M214.05,109.69a2.9,2.9,0,0,1-1.42-3.19,5.69,5.69,0,0,1,5.07-4.4,4.32,4.32,0,0,1,2,.55,43.13,43.13,0,0,0,18,5.94c2.71.22,3.59,2.09,3.24,4.07a6.12,6.12,0,0,1-5.82,5C231,117.61,220.75,114.09,214.05,109.69Z"/><path class="cls-15" d="M290.77,95.83c-3.09,12.54-7.18,24.53-13.15,32.78-1.73,2.31-3.77,3.3-5.53,3.3a4,4,0,0,1-4.25-4.62,5.59,5.59,0,0,1,1.07-2.31c8.92-11.88,14-33.88,17.4-53.13C287.8,63.38,289,55.57,290,49.3L290,49c1.59-9,8.75-9.68,16.12-9.68,2.09,0,4.18,0,5.92.11,6,.33,8.93,4.29,8,10l-3.18,18c-7.72,43.78-7.84,44.44-8.53,49.61a13.71,13.71,0,0,1-2.5,6c13.53-5.61,20-14.41,23.1-26.84a6.07,6.07,0,0,1,5.9-4.73c2.64,0,4.86,1.76,4.32,4.84l-.1.55c-7.12,26.62-28.95,35.64-32.8,35.64a4.33,4.33,0,0,1-4.46-5.28l.12-.66a16.91,16.91,0,0,1-9.23,2.42c-9,0-9.46-3.74-9.11-5.72a5.43,5.43,0,0,1,5.2-4.51,3.21,3.21,0,0,1,1.08.11,17,17,0,0,0,3.35.33c2.64,0,5.09-.77,5.76-4,.73-3.52,2.14-10.89,3.65-19.47Z"/><path class="cls-16" d="M304.22,86.92c.84-4.73,1.56-9.46,2.38-14.08H295.38c-.82,4.62-1.65,9.35-2.6,14.08Z"/><path class="cls-17" d="M308.17,63.93c.87-5,1.52-9.24,1.93-12.21.56-3.19-2.28-3.3-5-3.3-2.31,0-5.43.22-6,3.3l-.68,3.85L297,63.93Z"/><path class="cls-18" d="M362.54,111.78a5.15,5.15,0,0,1,5.29-4.4c1.65,0,5.27.66,4.46,5.28C369.88,126.3,365,131,351.34,131c-9.57,0-13.31-2.53-11.56-12.43.68-3.85,3.87-21.34,5.25-27.94-21.89,0-26.19-.55-23.8-14.08,2-11.33,3.62-18.7,15.16-19.25,4.44-.22,9.72-.22,14.67-.22a130.62,130.62,0,0,0,10.59-16.39,5.71,5.71,0,0,1,5.22-3.41c3,0,5.77,2.2,5.25,5.17-.27,1.54-1.93,4.07-10.74,14.74l1.3.11c6.34.22,10.71,3.52,9.94,9.13-.34,3.19-.86,7.37-1.44,10.67-1.16,6.6-3.4,12.43-14.32,13.2-.66,0-1.23.11-1.89.11-1.06,6-4,20.24-5,25.74-.89,5.06,1,5.39,3.23,5.39,5.83,0,7.63-.22,9.09-8.47l.21-1.21Z"/><path class="cls-19" d="M339.44,56.23A3.53,3.53,0,0,1,336,53.48a24.31,24.31,0,0,0-4.65-8.58,3.31,3.31,0,0,1-.72-2.75C331,40,333.75,38,336.39,38c4.95,0,10.31,9.57,9.74,12.76S342.19,56.23,339.44,56.23Z"/><path class="cls-20" d="M361.78,69.32c.48-4-1.51-4-12.29-4-4.18,0-8.47,0-11.45.11-4.75.11-5.45,3.41-6.45,9.13-1.3,7.37-1.16,7.81,13.47,7.81s14.69-.33,16-7.92C361.4,72.73,361.62,70.86,361.78,69.32Z"/><path class="cls-21" d="M442.84,101c-.83,4.73-1.59,9-2.06,12.32-1.28,8.47,6.3,8.58,13.89,8.58,13.53,0,18.79-1.76,20.47-11.33a6.12,6.12,0,0,1,6.21-5.28c2.86,0,5.6,2,5,5.28-2,11.33-9.31,19.14-20.74,20.35a118.22,118.22,0,0,1-13.78.77c-9.9,0-24.75,0-22-16.61l2.25-12.76-31.72,4c-.33,0-.68.11-1,.11-3.41,0-4.52-2.42-4.08-5a6.55,6.55,0,0,1,5.68-5.39l32.89-3.74c.72-4.07,1.59-8.36,2.32-12.54l-25.88,3.3c-.33,0-.68.11-1,.11-3.3,0-4.52-2.42-4.07-5a6.56,6.56,0,0,1,5.68-5.39L438,69.76c.83-4.73,1.61-9.13,2.38-12.87-11.27,1.54-21.9,2.53-24.32,2.53-3.63,0-5-2.64-4.57-5.28a5.82,5.82,0,0,1,5.81-4.84A241.83,241.83,0,0,0,474.84,40a6.68,6.68,0,0,1,2-.33c3.3,0,4.56,2.86,4.07,5.61a5.43,5.43,0,0,1-3.74,4.4,238.79,238.79,0,0,1-25.85,5.61c-.77,3.74-1.57,8.25-2.55,13.2l30.27-3.85h.77c3.19,0,4.6,2.64,4.13,5.28a6.09,6.09,0,0,1-5.38,4.95l-31.66,3.63c-.74,4.18-1.61,8.47-2.32,12.54l40.49-5.06h.77c3.19,0,4.59,2.64,4.13,5.28a6.11,6.11,0,0,1-5.5,5Z"/><path class="cls-22" d="M586.19,79.66c-3.7,21-15.71,38.61-38,50.27-9.69,5.06-12.31-5.06-4.83-8.8,18.7-9.35,28.75-23.32,31.88-41l.44-2.53c-5.94,0-11.79.11-17.64.22-1.1,6.27-2.13,12.1-3,16.39a6.84,6.84,0,0,1-6.62,5.72c-2.86,0-5.37-2-4.51-5.61,1-4.51,2.14-10.23,3.2-16.28-7,.22-13.82.44-20,.77-8.66.44-6.49-10,1.14-10.23,6.64-.22,13.59-.33,20.54-.44.8-5.17,1.54-10,2-13.75,1-7.48,11.93-8.36,11-.44-.42,3.63-1.18,8.58-2,14l17.77-.33c1-5.72,2-11.11,2.39-14.19,1.17-9.13,12.62-8.58,11-.11-.89,4.4-1.74,9.24-2.61,14.19,7.06-.11,14.12-.22,20.72-.22,10.36-.11,6.1,10.89-1.56,10.67-6.78-.22-13.69-.33-20.84-.33Z"/><path class="cls-23" d="M686.27,119.15c-13.72.44-21.29.33-31.9,0-11.14-.44-15.74-6.16-14.44-15.4,1.59-10.89,3-18.81,5-28.27,1.77-8.14,7.86-14.63,19.51-15.18,12.41-.55,22.61-.33,33.22,0,9.07.33,14.16,7,13.15,14-1.43,10-3.16,19.8-5.15,29.26C703.68,112.77,696.67,118.82,686.27,119.15Z"/><path class="cls-24" d="M698.58,78c.62-4.73-1.21-7.48-6.78-7.7-9.4-.33-18.09-.33-26.73,0-6.2.22-8.61,3.3-9.63,7.81a214.24,214.24,0,0,0-4.09,23.21c-.63,4.84,1.2,6.93,7.21,7.15,10,.33,16.51.55,26.62,0,4.66-.22,8.19-2.75,9.22-7.37C696,93.85,697.61,85.38,698.58,78Z"/><path class="cls-25" d="M773.66,79c-3.41-3.74-9.89-6.93-14.85-8.14-6.32-1.54-1.61-12.65,6.34-10.34,5.54,1.65,13.26,4.62,17.88,8.36,3,2.42,2,6.6-.18,9.13S776.53,82.08,773.66,79Z"/><path class="cls-26" d="M758.83,124.43c-9.87,3-11.18-9.57-1.65-11.88,23.1-5.61,49.34-28.38,64.25-49.94,4.72-6.82,15.24-2.2,8.87,6.49C812.29,93.85,785.55,116.4,758.83,124.43Z"/><path class="cls-27" d="M903.3,52.81c10.19-.33,16.17-7,17.9-16.77,1.46-8.3-4.5-14.94-14.63-14.94-8,0-14,4.15-19.12,8.63a10,10,0,0,1-6.26,2.5,7.9,7.9,0,0,1-7.65-9.3C875.18,13.63,896,4,910.41,4c21.09,0,32.17,13.45,28.89,32-2,11.29-8.86,20.09-17.76,24.41,17.85,9,14.67,28.89,14.11,32-4.13,23.41-25,40-50.06,40-24.73,0-37.1-14.61-35.73-22.42.94-5.31,6.58-10,11.56-10a7.33,7.33,0,0,1,5.92,3.16c6,8.3,10.76,11.45,22.22,11.45,12,0,25.46-8.8,27.89-22.58,3-16.93-6.24-22.08-18-22.08h-1.49c-1,0-1.86.17-2.52.17a7.3,7.3,0,0,1-7.25-8.8c.76-4.32,5-8.64,10.16-8.64Z"/><path class="cls-28" d="M967,131.8a4.92,4.92,0,0,1-4.82-5.72,6,6,0,0,1,3.35-4.07,67.78,67.78,0,0,0,16.12-11.55c1.16-5.94,2.4-11.11,3.27-16.06.68-3.85.79-5.06-3.72-5.06-1.76,0-3.21.11-4.86.11s-5.26-.11-4.45-4.73c.43-2.42,2.41-5,5.27-5h6.71c7.81,0,13.71.88,12,10.34C994.77,96.49,993,104,991.76,111a19.3,19.3,0,0,0,4.14,4.62,4.17,4.17,0,0,1-.3-2.64,4.41,4.41,0,0,1,4.16-3.63,41.23,41.23,0,0,0,17.71-6.27,3.87,3.87,0,0,1,2.23-.77c2.09,0,3.44,2.31,3,4.51a4.44,4.44,0,0,1-2.21,3.19c-5.92,3.63-14.07,6.82-20.39,7.7h-1.32c3.79,2.2,9.57,4.4,25,4.4,11.44,0,24.08-1.21,32.56-1.87h.55c3.41,0,4.81,2.64,4.35,5.28a6.83,6.83,0,0,1-6.47,5.5c-7,.66-17.51,1.32-28,1.32-27.72,0-35.43-4.95-41.83-13.53C981.3,122.34,971.27,131.8,967,131.8Z"/><path class="cls-29" d="M992.44,59.75c-2.08-4.4-6.32-7.81-9.09-9.57a3.18,3.18,0,0,1-1.6-3.41c.43-2.42,3.51-5,6.48-5,3.31,0,15.56,8.47,14.57,14.08-.56,3.19-4,6.16-7,6.16A3.52,3.52,0,0,1,992.44,59.75Z"/><path class="cls-30" d="M1028.2,100.89l-29.3.22a3.13,3.13,0,0,1-3.39-3.85,4.64,4.64,0,0,1,4.75-3.85l14.61.11,1.18-6.71-10.58.11c-2.75,0-3.74-1.87-3.39-3.85a4.61,4.61,0,0,1,4.73-3.74l10.54.11.54-3.08a4.18,4.18,0,0,1,2.86-3.08c-1.23.11-2.44.11-3.65.11-10.89,0-14.82-1.43-13-11.88.62-3.52,1.72-9.13,10.3-9.13h6.38c3.19,0,4.18,0,4.63-2.53.27-1.54.13-2-1.39-2.09H1010c-2.64,0-3.52-1.87-3.17-3.85a4.86,4.86,0,0,1,4.45-4.07H1015c5.17,0,11.09.11,12.85.11,5.83,0,7.61,2.42,6.23,10.23-1.65,9.35-4.18,9.35-18.81,9.35-1.76,0-2.11.77-2.62,3.63s.38,2.86,6,2.86c3.74,0,6.64-.22,7.46-3.63a4.61,4.61,0,0,1,4.69-3.52c2.42,0,4.59,1.43,4.12,4.07-.77,4.4-3.75,8.8-10.65,9.9,1.81.33,3.37,1.43,3,3.52l-.54,3.08,5.26.11H1037l.56-3.19c.37-2.09,2.35-3.3,4.37-3.52-7.23-1.43-6.32-6.6-5.72-10,.87-4.95,2-10.45,10.42-10.45h6.71c4,0,4.31-.11,4.74-2.53.27-1.54.13-2-1.39-2.09h-14.85c-2.53,0-3.41-1.87-3.08-3.74a4.9,4.9,0,0,1,4.47-4.18H1047c5.39,0,11.65.11,13.4.11,6.38,0,7.62,3,6.34,10.23-1.61,9.13-3.74,9.35-19.36,9.35-2.09,0-2.26,1-2.71,3.52-.48,2.75-.08,3,6.41,3,5.5,0,8.07-.22,9-4.18a4.62,4.62,0,0,1,4.7-3.52c2.42,0,4.67,1.54,4.21,4.18-1.79,10.12-11.51,11-19.1,11-1.65,0-3.17-.11-4.69-.22a2.67,2.67,0,0,1,1.76,3.08l-.54,3.08,11.46-.11c2.75,0,3.74,1.87,3.41,3.74a4.64,4.64,0,0,1-4.75,3.85l-11.42-.11-1.18,6.71,16.08-.11c2.75,0,3.74,1.87,3.39,3.85a4.72,4.72,0,0,1-4.75,3.85Z"/><polygon class="cls-31" points="1035.74 86.81 1030.7 86.7 1025.4 86.81 1024.22 93.52 1029.59 93.63 1034.56 93.52 1035.74 86.81"/><path class="cls-32" d="M1031.05,109.69a2.9,2.9,0,0,1-1.42-3.19,5.69,5.69,0,0,1,5.07-4.4,4.32,4.32,0,0,1,2,.55,43.13,43.13,0,0,0,18,5.94c2.71.22,3.59,2.09,3.24,4.07a6.12,6.12,0,0,1-5.82,5C1048,117.61,1037.75,114.09,1031.05,109.69Z"/></g></g></svg>