<svg id="レイヤー_1" data-name="レイヤー 1" xmlns="http://www.w3.org/2000/svg" xmlns:xlink="http://www.w3.org/1999/xlink" viewBox="0 0 536.96 141.79"><defs><style>.cls-1{fill:#1a191a;}.cls-2{fill:url(#darken-color02);}.cls-3{fill:url(#darken-color02-2);}.cls-4{fill:#fff;}</style><linearGradient id="darken-color02" x1="99.41" y1="121.26" x2="448.39" y2="121.26" gradientUnits="userSpaceOnUse"><stop offset="0" stop-color="#7391d9"/><stop offset="1" stop-color="#ee96cd"/></linearGradient><linearGradient id="darken-color02-2" x1="95.6" y1="75.24" x2="455.6" y2="75.24" xlink:href="#darken-color02"/></defs><polygon class="cls-1" points="64.69 23.7 61 29.74 92.31 41.61 64.69 23.7"/><polygon class="cls-1" points="100.55 0 93.65 1.54 101.65 33.47 100.55 0"/><polygon class="cls-1" points="71.14 0.28 63.45 6.23 97.91 36.8 71.14 0.28"/><polygon class="cls-1" points="456.5 46.06 475.96 38.69 473.67 34.94 456.5 46.06"/><polygon class="cls-1" points="451.38 20.21 450.7 41.01 455.67 21.16 451.38 20.21"/><polygon class="cls-1" points="474.44 24.08 469.66 20.38 453.02 43.08 474.44 24.08"/><path class="cls-2" d="M144.08,140.62l-20.34-33.13a4.43,4.43,0,0,1,3.78-6.75h41.76a2.11,2.11,0,0,1,1.29,3.81,63.37,63.37,0,0,0-10,10.19,65.4,65.4,0,0,0-12,25.33,2.21,2.21,0,0,1-2.49,1.69c-.19,0-.41-.08-.64-.14A2.24,2.24,0,0,1,144.08,140.62Z"/><rect class="cls-3" x="95.6" y="37.74" width="360" height="75" rx="30.37"/><path class="cls-4" d="M146.1,97.62a2.76,2.76,0,0,1-5.46,0v-.06l.23-18.2a60.59,60.59,0,0,1-6.63,8.46,3.13,3.13,0,0,1-2.17,1,2.92,2.92,0,0,1-2.9-2.61,2.52,2.52,0,0,1,1-1.9,51.68,51.68,0,0,0,10.8-13.81l0-.61-7.8.17h0a2.32,2.32,0,0,1-2.45-2.4,2.38,2.38,0,0,1,2.5-2.45h7.74l-.11-5.4c-.22.06-5,.62-6.07.62A2.46,2.46,0,0,1,132,58a2.37,2.37,0,0,1,2.39-2.4,52.86,52.86,0,0,0,14.92-2.78,2.55,2.55,0,0,1,.89-.17,2.58,2.58,0,0,1,2.51,2.56c0,2.12-2.9,2.9-6.63,3.68,0,1.28,0,3.62-.11,6.34h6.57A2.39,2.39,0,0,1,155,67.66a2.33,2.33,0,0,1-2.45,2.4h-.06L145.82,70v3.56a2.62,2.62,0,0,1,1.28-.33c1.67,0,5.57,2.78,7.07,4.34a2.64,2.64,0,0,1-1.72,4.57,2.32,2.32,0,0,1-1.84-1,22.25,22.25,0,0,0-4.79-4.07c.06,8.41.28,20.49.28,20.49Zm12.14-40.09a2.44,2.44,0,0,1,2.61-2.5,2.48,2.48,0,0,1,2.62,2.5v28.4a2.43,2.43,0,0,1-2.62,2.39,2.39,2.39,0,0,1-2.61-2.39Zm17.37,34.63v.11c0,3.35-2.23,7.3-9,7.3-5.4,0-6.46-1.23-6.46-3.17a2.58,2.58,0,0,1,2.39-2.79,2.18,2.18,0,0,1,.62.06,19.27,19.27,0,0,0,3.78.61c1.67,0,3.12-.61,3.18-3,.05-2.06.05-17.54.05-27.89v-8.8a2.68,2.68,0,0,1,5.35,0V85.43Z"/><path class="cls-4" d="M230.56,82.42H218.14V96.23a2.7,2.7,0,0,1-5.4,0V82.42H201c-.72,7.35-3.17,17.32-7.63,17.32a2.74,2.74,0,0,1-2.84-2.57,2.83,2.83,0,0,1,.56-1.61c4.34-5.85,5.07-16,5.07-25.06,0-4-.11-7.62-.17-10.69v-.16c0-4.62,2.17-6.69,7.24-6.8,4.79-.11,9.19-.16,13.64-.16,3.9,0,7.85.05,12.25.16,3.29.06,6.57,2.34,6.62,6.18.17,8.19.06,19.27.17,25.39l.11,7.63v.11c0,3.9-2.33,7.46-9.07,7.46-3.68,0-6.52-.44-6.52-3.28a2.38,2.38,0,0,1,2.4-2.56,2.28,2.28,0,0,1,.55,0,18.12,18.12,0,0,0,3.51.39c2.84,0,3.68-1.17,3.68-3.06ZM212.8,70.06H201.49c0,2.45-.05,5.07-.16,7.63h11.41Zm0-12.58c-2.84,0-5.74.05-8.69.11a2.42,2.42,0,0,0-2.67,2.73v5H212.8Zm17.65,7.85c-.06-1.62-.06-3.18-.11-4.51-.12-2.12-1.17-3.18-3.23-3.23-3-.11-6-.11-9-.11v7.85Zm.11,4.73H218.09l0,7.63h12.42Z"/><path class="cls-4" d="M297.14,72.34l-14.7-.16c-1.83,1.5-3.78,2.95-5.73,4.28,1.22,0,2.5,0,3.79,0,2.28,0,4.5,0,6.4.16,3.23.17,5.45,2.34,5.62,4.79.11,1.78.17,4,.17,6.24,0,2-.06,3.84-.17,5.51a6,6,0,0,1-5.9,5.62c-2.12.17-4.34.28-6.57.28-2.62,0-5.18-.11-7.46-.28-3.9-.22-5.79-2.33-6-5.51-.05-1.11-.05-2.34-.05-3.62,0-2.39.05-5,.16-7.12-2.28,1.22-11,5.23-12.86,5.23a2.58,2.58,0,0,1-2.62-2.62,2.74,2.74,0,0,1,2.23-2.61A71.24,71.24,0,0,0,275,72.12l-19,.22h-.06c-1.84,0-2.62-1.11-2.62-2.23A2.59,2.59,0,0,1,256,67.5l15.2,0L271.14,62H261c-1.84,0-2.67-1.12-2.67-2.29A2.53,2.53,0,0,1,261,57.2l10.19,0V52.63a2.4,2.4,0,0,1,2.67-2.34,2.48,2.48,0,0,1,2.73,2.34l-.05,4.62,7.79,0a2.38,2.38,0,0,1,2.51,2.45A2.3,2.3,0,0,1,284.28,62h-7.79v5.56h4.12a63.74,63.74,0,0,0,11.13-13.19,2.36,2.36,0,0,1,2-1.17,3.12,3.12,0,0,1,3,2.89c0,2.18-7.9,10.3-9.07,11.47l9.46,0a2.48,2.48,0,0,1,2.56,2.56,2.25,2.25,0,0,1-2.5,2.28ZM271.59,89.27c0,.83.05,1.67.05,2.5.06,2.29.84,2.62,8,2.62,7.35,0,7.91,0,7.91-5.12ZM287.45,85c0-4.18-.33-4.18-7-4.18-2.12,0-4.4,0-6.13.06-2,0-2.67,1.28-2.67,4.12Z"/><path class="cls-4" d="M341.18,67.55c-.89,7.08-5.9,17.6-11.25,22.55-4.29,4-9,1.78-11.41-3-3.51-6.91.22-17.26,7.68-22.44,6.85-4.73,17-5.51,24.05-1.28,8.63,5.18,10,15.42,5.18,23.38-2.61,4.29-8.07,7.74-13.58,9.19-4.9,1.28-6.63-4.34-1.84-5.46,4.23-.94,8.52-3.34,10.35-6.23,4-6.24,2.46-13.53-3.06-17A14.49,14.49,0,0,0,340.4,65,2.79,2.79,0,0,1,341.18,67.55Zm-12.36,1.06c-5.18,4-8,11.41-5.63,15.7.84,1.62,2.29,2.45,3.68,1.23C331.05,81.86,334.94,73,335.5,67a3.87,3.87,0,0,1,.5-1.73A18.52,18.52,0,0,0,328.82,68.61Z"/><path class="cls-4" d="M377.08,100.24a2.94,2.94,0,0,1-3-2.68,2.48,2.48,0,0,1,1.11-1.94c5.18-4,6-10,6-15.15,0-1.56-.06-3.06-.11-4.4v-.22c0-2.39,2-4.23,5.57-4.29,3.78-.11,8.07-.11,12.41-.11s8.8,0,12.75.11c5.9.17,5.9,2.79,5.9,7.57,0,4.29-.89,6.24-6.29,6.35-4.51.11-9.69.17-15.25.17-3.18,0-6.57-.06-10-.06C384.82,94.56,379.92,100.24,377.08,100.24Zm5.35-32.07a2.2,2.2,0,1,1,0-4.4l13.75,0V60.48l-17.93.06a2.23,2.23,0,1,1,0-4.46l17.88.06V53a3,3,0,0,1,5.9,0L402,56.08h17.88a2.23,2.23,0,0,1,0,4.46L402,60.48v3.34l13.59,0a2.2,2.2,0,1,1,0,4.4Zm14.14,7.46c-2.73,0-5.34.05-7.9.11-1.29,0-2.18.39-2.18,1.72v3.85c3.51,0,6.91,0,10.08,0Zm5.29,5.73q4.59-.08,8.52-.17c1.5,0,2-.61,2-2.72a10.82,10.82,0,0,0-.11-1.45c-.22-1.39-.78-1.39-10.41-1.39Z"/></svg>